<svg version="1.1" id="cef-logo" xmlns="http://www.w3.org/2000/svg" x="0" y="0" viewBox="0 0 131.95 115.87" width="132px" height="116px" xml:space="preserve"><style>.cef-logo-0{fill:#ff2869}.cef-logo-2{fill:#00cfac}.cef-logo-3{fill:#eb426b}.cef-logo-5{fill:#f6cd47}.cef-logo-6{fill:#49a22f}.cef-logo-7{fill:#e93c24}.cef-logo-10{fill:#fdcd00}.cef-logo-11{fill:#fff}</style><g id="Groupe_6" transform="translate(47.215 47.787)"><path id="Tracé_11" class="cef-logo-0" d="M1.56 0c.02.5-.36.92-.85.95a.93.93 0 01-.72-.3"/></g><g id="Groupe_7"><path id="Tracé_12" d="M110.14 96.21c-.01.48-.1.96-.27 1.41l.08.01c5.35.82 10.45-3.36 10.5-8.47l-10.21.47-.1 6.58z" fill="#5dcbae"/><path id="Tracé_13" class="cef-logo-2" d="M17.87 35.73c-1.06.3-2.06.79-2.95 1.43l7.42-2.69-4.47 1.26z"/><path id="Tracé_14" class="cef-logo-0" d="M41.42 92.79l.82-.04-.85-.11.03.15z"/><path id="Tracé_15" class="cef-logo-3" d="M26.59 92.02l9.14-.11-23.76-3.04.16 1.3c.33 2.3 2.4 3.94 4.71 3.74l8.5-.39c-.13-.68.31-1.34.99-1.48.09-.01.17-.02.26-.02z"/><path id="Tracé_16" class="cef-logo-0" d="M131.94 83.34l-9.69-80.23c-.3-2.49-3.05-3.83-5.54-2.71l-7.54 3.4c1.36.4 2.29 1.65 2.27 3.07l-.05 3.52c3.35.64 5.82 3.49 5.99 6.89l3.08 71.48c.01.14.01.27 0 .41l6.44-.3a5.187 5.187 0 005.05-5.33c-.01-.07-.01-.14-.01-.2z"/><path id="Tracé_17" class="cef-logo-2" d="M117.37 17.27a7.379 7.379 0 00-5.99-6.89l-1.14 79.25 10.21-.47v-.41l-3.08-71.48z"/><path id="Tracé_18" d="M117.37 17.27a7.379 7.379 0 00-5.99-6.89l-1.14 79.25 10.21-.47v-.41l-3.08-71.48z" fill="#082044"/><path id="Tracé_19" class="cef-logo-5" d="M10.73 48.11l.64-.29-.15-3.46a8.568 8.568 0 013.7-7.2L3.2 41.41A4.718 4.718 0 000 45.93l1.89 38.43c.11 1.94 1.61 3.5 3.55 3.69l6.54.84-4.32-35.72a5.03 5.03 0 013.07-5.06z"/><path id="Tracé_20" class="cef-logo-5" d="M109.16 3.8c-.81-.25-1.68-.23-2.48.07l-84.34 30.6 50.21-14.18L109.16 3.8z"/><path id="Tracé_21" class="cef-logo-5" d="M42.24 92.75l62.43 7.98a4.98 4.98 0 005.21-3.11l-39.9-6.14-27.74 1.27z"/><path id="Tracé_22" class="cef-logo-2" d="M11.22 44.36l.15 3.46 61.17-27.54-50.2 14.18-7.42 2.69a8.536 8.536 0 00-3.7 7.21z"/><path id="Tracé_23" class="cef-logo-6" d="M11.22 44.36l.15 3.46 61.17-27.54-50.2 14.18-7.42 2.69a8.536 8.536 0 00-3.7 7.21z"/><path id="Tracé_24" class="cef-logo-2" d="M110.24 89.63l-40.26 1.85 39.9 6.14c.17-.45.26-.93.27-1.41l.09-6.58z"/><path id="Tracé_25" class="cef-logo-6" d="M110.24 89.63l-40.26 1.85 39.9 6.14c.17-.45.26-.93.27-1.41l.09-6.58z"/><path id="Tracé_26" class="cef-logo-0" d="M107.03 10.54c1.41-.41 2.91-.46 4.35-.15l.05-3.52c.02-1.42-.91-2.67-2.27-3.07L72.55 20.28l34.48-9.74z"/><path id="Tracé_27" class="cef-logo-7" d="M107.03 10.54c1.41-.41 2.91-.46 4.35-.15l.05-3.52c.02-1.42-.91-2.67-2.27-3.07L72.55 20.28l34.48-9.74z"/><path id="Tracé_28" class="cef-logo-0" d="M19.11 83.64a7.411 7.411 0 01-6.5-6.98l-1.24-28.84-.64.29a5.024 5.024 0 00-3.07 5.05l4.32 35.72 23.76 3.04 4.57-.05c.5-.02.94.3 1.08.78l.85.11 27.74-1.27-50.87-7.85z"/><path id="Tracé_29" class="cef-logo-7" d="M19.11 83.64a7.411 7.411 0 01-6.5-6.98l-1.24-28.84-.64.29a5.024 5.024 0 00-3.07 5.05l4.32 35.72 23.76 3.04 4.57-.05c.5-.02.94.3 1.08.78l.85.11 27.74-1.27-50.87-7.85z"/><path id="Tracé_30" class="cef-logo-2" d="M107.03 10.54l-34.49 9.74-61.17 27.54 1.24 28.84c.18 3.6 2.92 6.54 6.5 6.98l50.87 7.83 40.26-1.84 1.14-79.25c-1.44-.3-2.94-.25-4.35.16zM43.39 75.98c-.06-.2.06-.42.26-.48.01 0 .02-.01.04-.01.04.22-.09.43-.3.49zm12.24-28.92c-.02.45-.04 1.11-1.76 1.18-.91.04-.95-.05-1.45-.03-4.31.18-4.59 7.88-4.64 9.48-.05 1.51-.31 9.79 3.77 9.62.59-.02.59-.11 1.64-.16 1.72-.07 1.67 1.53 1.65 1.98l-.11 2.98c.06.9-.62 1.67-1.52 1.72-.09.01-.18 0-.27 0-6.44.27-13.82-2.32-13.33-15.89.46-12.68 8.05-15.89 14.49-16.15 1.13-.05 1.7.46 1.67 1.35l-.14 3.92zm20.73-.86c-.04 1.07-.95 1.15-2.08 1.2-1.77.07-3.17.04-4.3.09-2.49.1-2.53.99-2.58 2.42-.1 2.89-.13 3.65 2.14 3.55 2.81-.12 3.27-.22 4.31-.27 1.59-.07 1.62 1.49 1.6 1.98l-.1 2.85c-.05 1.33-1 1.46-2.14 1.51-2.31.1-3.76.07-4.71.11-1.45.06-1.47.68-1.53 2.15l-.11 3.11c.1.88.9 1.5 1.78 1.4.03 0 .05-.01.07-.01 2.58-.11 3.45-.23 4.4-.27 1.9-.08 2.48.43 2.43 1.77l-.11 3.11c-.05 1.33-.52 1.8-1.88 1.86l-11.97.5c-2.72.11-2.62-2.56-2.59-3.45l.89-24.48c.07-1.78.13-3.56 2.85-3.67l11.7-.48c1.13-.05 2.12.36 2.08 1.25l-.15 3.77zm20.36-.85c-.03.89-.4 1.13-2.04 1.2-1.13.05-1.45-.03-3.58.06-2.81.12-2.84.92-2.94 3.54-.08 2.14-.1 2.85 1.89 2.77 1.9-.08 2.36-.19 3.13-.22 2.58-.11 2.66.29 2.59 2.29l-.01.4c-.12 3.2-.13 3.65-3.22 3.78-.91.04-2.49.02-3.17.04-1.5.06-1.55.38-1.64 2.64l-.24 6.76c-.06 1.78-.13 3.56-2.85 3.67l-2.27.09c-2.72.11-2.66-1.67-2.59-3.45l.89-24.48c.05-1.33.13-3.56 2.85-3.67l11.25-.47c1.13-.05 2.11.36 2.08 1.25l-.13 3.8z"/><path id="Tracé_31" class="cef-logo-0" d="M107.03 10.54l-34.49 9.74-61.17 27.54 1.24 28.84c.18 3.6 2.92 6.54 6.5 6.98l50.87 7.83 40.26-1.84 1.14-79.25c-1.44-.3-2.94-.25-4.35.16zM43.39 75.98c-.06-.2.06-.42.26-.48.01 0 .02-.01.04-.01.04.22-.09.43-.3.49zm12.24-28.92c-.02.45-.04 1.11-1.76 1.18-.91.04-.95-.05-1.45-.03-4.31.18-4.59 7.88-4.64 9.48-.05 1.51-.31 9.79 3.77 9.62.59-.02.59-.11 1.64-.16 1.72-.07 1.67 1.53 1.65 1.98l-.11 2.98c.06.9-.62 1.67-1.52 1.72-.09.01-.18 0-.27 0-6.44.27-13.82-2.32-13.33-15.89.46-12.68 8.05-15.89 14.49-16.15 1.13-.05 1.7.46 1.67 1.35l-.14 3.92zm20.73-.86c-.04 1.07-.95 1.15-2.08 1.2-1.77.07-3.17.04-4.3.09-2.49.1-2.53.99-2.58 2.42-.1 2.89-.13 3.65 2.14 3.55 2.81-.12 3.27-.22 4.31-.27 1.59-.07 1.62 1.49 1.6 1.98l-.1 2.85c-.05 1.33-1 1.46-2.14 1.51-2.31.1-3.76.07-4.71.11-1.45.06-1.47.68-1.53 2.15l-.11 3.11c.1.88.9 1.5 1.78 1.4.03 0 .05-.01.07-.01 2.58-.11 3.45-.23 4.4-.27 1.9-.08 2.48.43 2.43 1.77l-.11 3.11c-.05 1.33-.52 1.8-1.88 1.86l-11.97.5c-2.72.11-2.62-2.56-2.59-3.45l.89-24.48c.07-1.78.13-3.56 2.85-3.67l11.7-.48c1.13-.05 2.12.36 2.08 1.25l-.15 3.77zm20.36-.85c-.03.89-.4 1.13-2.04 1.2-1.13.05-1.45-.03-3.58.06-2.81.12-2.84.92-2.94 3.54-.08 2.14-.1 2.85 1.89 2.77 1.9-.08 2.36-.19 3.13-.22 2.58-.11 2.66.29 2.59 2.29l-.01.4c-.12 3.2-.13 3.65-3.22 3.78-.91.04-2.49.02-3.17.04-1.5.06-1.55.38-1.64 2.64l-.24 6.76c-.06 1.78-.13 3.56-2.85 3.67l-2.27.09c-2.72.11-2.66-1.67-2.59-3.45l.89-24.48c.05-1.33.13-3.56 2.85-3.67l11.25-.47c1.13-.05 2.11.36 2.08 1.25l-.13 3.8z"/><path id="Tracé_32" d="M107.03 10.54l-34.49 9.74-61.17 27.54 1.24 28.84c.18 3.6 2.92 6.54 6.5 6.98l50.87 7.83 40.26-1.84 1.14-79.25c-1.44-.3-2.94-.25-4.35.16zM43.39 75.98c-.06-.2.06-.42.26-.48.01 0 .02-.01.04-.01.04.22-.09.43-.3.49zm12.24-28.92c-.02.45-.04 1.11-1.76 1.18-.91.04-.95-.05-1.45-.03-4.31.18-4.59 7.88-4.64 9.48-.05 1.51-.31 9.79 3.77 9.62.59-.02.59-.11 1.64-.16 1.72-.07 1.67 1.53 1.65 1.98l-.11 2.98c.06.9-.62 1.67-1.52 1.72-.09.01-.18 0-.27 0-6.44.27-13.82-2.32-13.33-15.89.46-12.68 8.05-15.89 14.49-16.15 1.13-.05 1.7.46 1.67 1.35l-.14 3.92zm20.73-.86c-.04 1.07-.95 1.15-2.08 1.2-1.77.07-3.17.04-4.3.09-2.49.1-2.53.99-2.58 2.42-.1 2.89-.13 3.65 2.14 3.55 2.81-.12 3.27-.22 4.31-.27 1.59-.07 1.62 1.49 1.6 1.98l-.1 2.85c-.05 1.33-1 1.46-2.14 1.51-2.31.1-3.76.07-4.71.11-1.45.06-1.47.68-1.53 2.15l-.11 3.11c.1.88.9 1.5 1.78 1.4.03 0 .05-.01.07-.01 2.58-.11 3.45-.23 4.4-.27 1.9-.08 2.48.43 2.43 1.77l-.11 3.11c-.05 1.33-.52 1.8-1.88 1.86l-11.97.5c-2.72.11-2.62-2.56-2.59-3.45l.89-24.48c.07-1.78.13-3.56 2.85-3.67l11.7-.48c1.13-.05 2.12.36 2.08 1.25l-.15 3.77zm20.36-.85c-.03.89-.4 1.13-2.04 1.2-1.13.05-1.45-.03-3.58.06-2.81.12-2.84.92-2.94 3.54-.08 2.14-.1 2.85 1.89 2.77 1.9-.08 2.36-.19 3.13-.22 2.58-.11 2.66.29 2.59 2.29l-.01.4c-.12 3.2-.13 3.65-3.22 3.78-.91.04-2.49.02-3.17.04-1.5.06-1.55.38-1.64 2.64l-.24 6.76c-.06 1.78-.13 3.56-2.85 3.67l-2.27.09c-2.72.11-2.66-1.67-2.59-3.45l.89-24.48c.05-1.33.13-3.56 2.85-3.67l11.25-.47c1.13-.05 2.11.36 2.08 1.25l-.13 3.8z" fill="#071802"/><path id="Tracé_33" d="M43.39 75.98c.21-.06.34-.27.3-.48-.21.04-.35.24-.31.45 0 0 .01.02.01.03z" fill="#685ffe"/><path id="Tracé_34" class="cef-logo-2" d="M43.39 75.98c.21-.06.34-.27.3-.48-.21.04-.35.24-.31.45 0 0 .01.02.01.03z"/><path id="Tracé_35" class="cef-logo-0" d="M43.39 75.98c.21-.06.34-.27.3-.48-.21.04-.35.24-.31.45 0 0 .01.02.01.03z"/><path id="Tracé_36" class="cef-logo-10" d="M43.39 75.98c.21-.06.34-.27.3-.48-.21.04-.35.24-.31.45 0 0 .01.02.01.03z"/><path id="Tracé_37" class="cef-logo-3" d="M25.51 93.87l16.2 21.58c.46.52 1.26.57 1.78.1.29-.26.44-.64.42-1.02l-2.48-21.74-16.08.74c.03.12.08.23.16.34z"/><path id="Tracé_38" class="cef-logo-0" d="M35.73 91.92l-9.14.11a1.26 1.26 0 00-1.27 1.24c0 .09.01.17.02.26l16.08-.74-.03-.15-5.66-.72z"/><path id="Tracé_39" class="cef-logo-3" d="M35.73 91.92l-9.14.11a1.26 1.26 0 00-1.27 1.24c0 .09.01.17.02.26l16.08-.74-.03-.15-5.66-.72z"/><path id="Tracé_40" class="cef-logo-0" d="M40.3 91.86l-4.57.05 5.65.72a1.07 1.07 0 00-1.08-.77z"/><path id="Tracé_41" class="cef-logo-10" d="M40.3 91.86l-4.57.05 5.65.72a1.07 1.07 0 00-1.08-.77z"/><path id="Tracé_42" class="cef-logo-0" d="M40.3 91.86l-4.57.05 5.65.72a1.07 1.07 0 00-1.08-.77z"/><path id="Tracé_43" class="cef-logo-11" d="M54.1 41.79c-6.44.27-14.03 3.47-14.49 16.15-.49 13.57 6.89 16.16 13.33 15.89.89.09 1.69-.56 1.78-1.46.01-.09.01-.17 0-.26l.11-2.98c.02-.45.07-2.05-1.65-1.98-1.04.04-1.05.13-1.64.16-4.08.17-3.83-8.11-3.77-9.62.06-1.6.34-9.3 4.64-9.48.5-.02.54.07 1.45.03 1.72-.07 1.75-.74 1.76-1.18l.14-3.92c.04-.89-.53-1.4-1.66-1.35z"/><path id="Tracé_44" class="cef-logo-11" d="M74.41 41.17l-11.7.48c-2.72.11-2.79 1.89-2.85 3.67l-.89 24.48c-.03.89-.13 3.56 2.59 3.45l11.97-.5c1.36-.06 1.83-.52 1.88-1.85l.11-3.11c.05-1.34-.52-1.84-2.43-1.77-.95.04-1.82.16-4.4.27-.87.15-1.7-.44-1.84-1.32 0-.02-.01-.05-.01-.07l.11-3.11c.05-1.47.08-2.09 1.53-2.15.95-.04 2.4-.01 4.71-.11 1.13-.05 2.09-.18 2.14-1.51l.1-2.85c.02-.49-.02-2.04-1.6-1.98-1.04.04-1.5.15-4.31.27-2.27.09-2.24-.66-2.14-3.55.05-1.42.08-2.31 2.58-2.42 1.13-.05 2.54-.02 4.3-.09 1.13-.05 2.04-.13 2.08-1.2l.14-3.78c.05-.9-.94-1.3-2.07-1.25z"/><path id="Tracé_45" class="cef-logo-11" d="M94.77 40.32l-11.25.47c-2.72.11-2.8 2.34-2.85 3.67l-.89 24.48c-.06 1.78-.13 3.56 2.59 3.45l2.27-.09c2.72-.11 2.78-1.89 2.85-3.67l.24-6.76c.08-2.27.14-2.58 1.64-2.64.68-.03 2.26-.01 3.17-.04 3.08-.13 3.1-.57 3.22-3.78l.01-.4c.07-2 0-2.4-2.59-2.29-.77.03-1.23.14-3.13.22-2 .08-1.97-.63-1.89-2.77.09-2.63.12-3.43 2.94-3.54 2.13-.09 2.45-.01 3.58-.06 1.63-.07 2-.31 2.04-1.2l.14-3.78c.03-.91-.95-1.31-2.09-1.27z"/></g></svg>