<svg version="1.1" id="Calque_1" xmlns="http://www.w3.org/2000/svg" x="0" y="0" viewBox="0 0 512.01 469.69" xml:space="preserve"><style>.st0{fill:#03051c}.st2{fill:#00cfac}.st3{fill:#ff2869}.st4{fill:#eb426b}.st6{fill:#f6cd47}.st7{fill:#49a22f}.st8{fill:#e93c24}.st11{fill:#fdcd00}.st12{fill:#fff}</style><g id="Groupe_35" transform="translate(-236.681 -306.426)"><g id="Groupe_34"><g id="Groupe_32"><g id="Groupe_31"><path id="Tracé_165" class="st0" d="M425.14 635.18c1.29 0 1.96.62 1.96 1.65v4.54c0 .52 0 1.29-1.96 1.29-1.03 0-1.08-.1-1.65-.1-4.9 0-4.9 8.93-4.9 10.78 0 1.76.05 11.35 4.7 11.35.67 0 .67-.1 1.86-.1 1.96 0 1.96 1.86 1.96 2.37v3.46c.12.94-.54 1.8-1.48 1.92-.16.02-.32.02-.48-.01-7.33 0-15.84-3.35-15.84-19.09-.01-14.7 8.51-18.06 15.83-18.06z"/><path id="Tracé_166" class="st0" d="M428.55 649.58c0-8.31.77-14.4 11.66-14.4 10.37 0 11.09 5.99 11.09 14.19 0 3.1.15 6.14.15 8.88 0 8.15-1.29 14.09-11.25 14.09-10.89 0-11.66-6.09-11.66-14.35 0-1.39.05-2.79.05-4.23s-.04-2.84-.04-4.18zm8.82-4.33v16.25c0 1.55 0 3.61 2.58 3.61s2.58-2.07 2.58-3.61v-16.25c0-1.29 0-2.84-2.58-2.84s-2.58 1.55-2.58 2.84z"/><path id="Tracé_167" class="st0" d="M472.93 638.33c1.14-2.68 2.32-2.89 4.18-2.89h2.79c3.1 0 3.1 2.06 3.1 4.13v28.38c0 2.06 0 4.13-3.1 4.13h-2.58c-3.1 0-3.1-2.06-3.1-4.13v-14.19c0-.31-.1-.52-.26-.52s-.31.21-.46.52c-3.66 7.28-3.77 9.03-5.47 9.03s-1.86-1.76-5.47-9.03c-.15-.31-.36-.52-.46-.52-.15 0-.26.21-.26.52v14.19c0 2.06 0 4.13-3.1 4.13h-2.58c-3.1 0-3.1-2.06-3.1-4.13v-28.38c0-2.06 0-4.13 3.1-4.13h2.73c1.91 0 3.1.26 4.23 2.89l3.87 9.13c.41.93.67 1.45 1.03 1.45s.62-.52 1.03-1.45l3.88-9.13z"/><path id="Tracé_168" class="st0" d="M493.62 667.95c0 2.06 0 4.13-3.1 4.13h-2.58c-3.1 0-3.1-2.06-3.1-4.13v-28.38c0-2.06 0-4.13 3.1-4.13h2.58c3.1 0 3.1 2.06 3.1 4.13v28.38z"/><path id="Tracé_169" class="st0" d="M509 668.31c-.1 1.96-.21 3.77-3.1 3.77h-2.58c-3.1 0-3.1-2.06-3.1-4.13v-23.58c0-1.29-.26-1.6-1.34-1.6-.36 0-.88.05-1.5.05-1.29 0-2.32-.21-2.32-1.45v-4.39c0-1.03 1.14-1.55 2.43-1.55h14.24c1.29 0 2.42.52 2.42 1.55v4.39c0 1.24-1.03 1.45-2.32 1.45-.36 0-.83-.05-1.45-.05-1.29 0-1.39.31-1.39 1.6l.01 23.94z"/><path id="Tracé_170" class="st0" d="M524.27 662.64c.15 1.05 1.11 1.8 2.17 1.7 2.94 0 3.92-.1 5-.1 2.17 0 2.84.62 2.84 2.17v3.61c0 1.55-.52 2.06-2.06 2.06H518.6c-3.1 0-3.1-3.1-3.1-4.13v-28.38c0-2.06 0-4.13 3.1-4.13h13.31c1.29 0 2.42.52 2.42 1.55v4.39c0 1.24-1.03 1.29-2.32 1.29-2.01 0-3.61-.1-4.9-.1-2.84 0-2.84 1.03-2.84 2.68 0 3.35 0 4.23 2.58 4.23 3.2 0 3.72-.1 4.9-.1 1.81 0 1.91 1.81 1.91 2.37v3.3c0 1.55-1.08 1.65-2.37 1.65-2.63 0-4.28-.1-5.37-.1-1.65 0-1.65.72-1.65 2.43v3.61zm4.44-30.09a4.628 4.628 0 01-3.87 1.65c-2.68 0-2.99-.05-3.25-.21a.426.426 0 01-.26-.41c.11-.53.38-1.02.77-1.39l3.41-3.72c1.14-1.14 1.5-1.45 3.66-1.45.41 0 1.08 0 2.01.05.83 0 1.55.31 1.55.98 0 .31-.46.72-.88 1.14-3.09 3.31-3.14 3.36-3.14 3.36z"/><path id="Tracé_171" class="st0" d="M557.3 635.44c11.35 0 12.9 7.22 12.9 18.32 0 10.58-1.03 18.32-12.9 18.32h-7.74c-3.1 0-3.1-2.06-3.1-4.13v-28.38c0-2.06 0-4.13 3.1-4.13h7.74zm-2.12 8.57c0 5.83.05 12.18.05 18.27 0 1.34.1 2.58 1.03 2.58 3.87 0 4.13-3.1 4.13-11.35 0-7.22-.26-11.1-4.13-11.1-.92 0-1.08.52-1.08 1.6z"/><path id="Tracé_172" class="st0" d="M580.62 662.64c.15 1.05 1.11 1.8 2.17 1.7 2.94 0 3.92-.1 5.01-.1 2.17 0 2.84.62 2.84 2.17v3.61c0 1.55-.52 2.06-2.06 2.06h-13.62c-3.1 0-3.1-3.1-3.1-4.13v-28.38c0-2.06 0-4.13 3.1-4.13h13.31c1.29 0 2.43.52 2.43 1.55v4.39c0 1.24-1.03 1.29-2.32 1.29-2.01 0-3.61-.1-4.9-.1-2.84 0-2.84 1.03-2.84 2.68 0 3.35 0 4.23 2.58 4.23 3.2 0 3.72-.1 4.9-.1 1.81 0 1.91 1.81 1.91 2.37v3.3c0 1.55-1.08 1.65-2.37 1.65-2.63 0-4.28-.1-5.37-.1-1.65 0-1.65.72-1.65 2.43l-.02 3.61z"/><path id="Tracé_173" class="st0" d="M603.17 635.18c4.28 0 7.17.78 7.17 2.22v3.97c0 .57-.21 1.55-1.96 1.55h-.41c-.83 0-2.68-.57-4.18-.57-1.24 0-2.22.41-2.22 2.06 0 1.6.46 2.43 2.48 4.08 6.14 5.06 7.38 8.67 7.38 12.85 0 2.37-.05 4.54-1.39 6.55a9.844 9.844 0 01-5.52 3.87c-1.62.38-3.29.57-4.95.57-3.82 0-7.53-.72-7.53-2.79v-3.97c0-.62.52-1.24 1.91-1.24 1.34 0 2.48.77 5.42.77 1.45 0 3.41-1.14 3.41-2.73 0-1.19-.05-2.07-3.2-5.16-4.8-4.7-7.07-6.86-7.07-11.09-.02-10.16 6.53-10.94 10.66-10.94z"/><path id="Tracé_174" class="st0" d="M631.91 662.64c.15 1.05 1.11 1.8 2.17 1.7 2.94 0 3.92-.1 5-.1 2.17 0 2.84.62 2.84 2.17v3.61c0 1.55-.52 2.06-2.06 2.06h-13.62c-3.1 0-3.1-3.1-3.1-4.13v-28.38c0-2.06 0-4.13 3.1-4.13h13.31c1.29 0 2.42.52 2.42 1.55v4.39c0 1.24-1.03 1.29-2.32 1.29-2.01 0-3.61-.1-4.9-.1-2.84 0-2.84 1.03-2.84 2.68 0 3.35 0 4.23 2.58 4.23 3.2 0 3.72-.1 4.9-.1 1.81 0 1.91 1.81 1.91 2.37v3.3c0 1.55-1.08 1.65-2.37 1.65-2.63 0-4.28-.1-5.37-.1-1.65 0-1.65.72-1.65 2.43v3.61zm4.44-30.09a4.628 4.628 0 01-3.87 1.65c-2.68 0-2.99-.05-3.25-.21a.426.426 0 01-.26-.41c.11-.53.38-1.02.77-1.39l3.41-3.72c1.14-1.14 1.5-1.45 3.66-1.45.41 0 1.08 0 2.01.05.83 0 1.55.31 1.55.98 0 .31-.47.72-.88 1.14-3.09 3.31-3.14 3.36-3.14 3.36z"/><path id="Tracé_175" class="st0" d="M659.21 664.6c2.17 0 2.43 1.14 2.43 2.68v.67c0 2.06 0 4.13-3.1 4.13h-11.66c-3.1 0-3.1-2.06-3.1-4.13v-28.38c0-2.06 0-4.13 3.1-4.13h2.58c3.1 0 3.1 2.06 3.1 4.13v22.24c0 1.24 0 2.84 1.6 2.89 2.73 0 3.97-.1 5.05-.1z"/><path id="Tracé_176" class="st0" d="M671.54 662.64c.15 1.05 1.11 1.8 2.17 1.7 2.94 0 3.92-.1 5-.1 2.17 0 2.84.62 2.84 2.17v3.61c0 1.55-.52 2.06-2.06 2.06h-13.62c-3.1 0-3.1-3.1-3.1-4.13v-28.38c0-2.06 0-4.13 3.1-4.13h13.31c1.29 0 2.42.52 2.42 1.55v4.39c0 1.24-1.03 1.29-2.32 1.29-2.01 0-3.61-.1-4.9-.1-2.84 0-2.84 1.03-2.84 2.68 0 3.35 0 4.23 2.58 4.23 3.2 0 3.72-.1 4.9-.1 1.81 0 1.91 1.81 1.91 2.37v3.3c0 1.55-1.08 1.65-2.37 1.65-2.63 0-4.28-.1-5.37-.1-1.65 0-1.65.72-1.65 2.43v3.61zm-6.55-34.58c0-.67.72-.88 1.55-.88.93-.05 1.6-.05 2.01-.05 2.22 0 2.58.26 3.66 1.34 0 0 1.76 1.91 3.41 3.72.39.38.66.86.78 1.39 0 .16-.26.41-.31.46-.21.1-.26.16-3.3.16a5.476 5.476 0 01-3.77-1.65s-.05-.05-3.15-3.35c-.42-.41-.88-.83-.88-1.14z"/><path id="Tracé_177" class="st0" d="M702.14 635.39h2.01c2.22 0 3.51.26 3.51 2.32 0 1.6-1.39 7.74-5.68 30.24-.52 2.58-1.55 4.13-3.61 4.13h-6.45c-2.06 0-3.1-1.55-3.56-4.13-3.92-22.5-5.37-28.64-5.37-30.24 0-2.17 1.29-2.37 3.77-2.37h2.22c2.73 0 3.3.88 4.18 9.08 1.5 13.57 1.6 18.63 2.48 18.63.62 0 .93-5.06 1.7-10.78 1.97-15.69 1.45-16.88 4.8-16.88z"/><path id="Tracé_178" class="st0" d="M717.88 662.64c.15 1.05 1.11 1.8 2.17 1.7 2.94 0 3.92-.1 5.01-.1 2.17 0 2.84.62 2.84 2.17v3.61c0 1.55-.52 2.06-2.06 2.06h-13.62c-3.1 0-3.1-3.1-3.1-4.13v-28.38c0-2.06 0-4.13 3.1-4.13h13.31c1.29 0 2.43.52 2.43 1.55v4.39c0 1.24-1.03 1.29-2.32 1.29-2.01 0-3.61-.1-4.9-.1-2.84 0-2.84 1.03-2.84 2.68 0 3.35 0 4.23 2.58 4.23 3.2 0 3.72-.1 4.9-.1 1.81 0 1.91 1.81 1.91 2.37v3.3c0 1.55-1.08 1.65-2.37 1.65-2.63 0-4.28-.1-5.37-.1-1.65 0-1.65.72-1.65 2.43l-.02 3.61z"/><path id="Tracé_179" class="st0" d="M740.43 635.18c4.28 0 7.17.78 7.17 2.22v3.97c0 .57-.21 1.55-1.96 1.55h-.41c-.83 0-2.68-.57-4.18-.57-1.24 0-2.22.41-2.22 2.06 0 1.6.47 2.43 2.48 4.08 6.14 5.06 7.38 8.67 7.38 12.85 0 2.37-.05 4.54-1.39 6.55a9.844 9.844 0 01-5.52 3.87c-1.62.38-3.29.57-4.95.57-3.82 0-7.53-.72-7.53-2.79v-3.97c0-.62.52-1.24 1.91-1.24 1.34 0 2.48.77 5.42.77 1.45 0 3.41-1.14 3.41-2.73 0-1.19-.05-2.07-3.2-5.16-4.8-4.7-7.07-6.86-7.07-11.09-.02-10.16 6.53-10.94 10.66-10.94z"/><path id="Tracé_180" class="st0" d="M418.54 695.2c0 2.48 0 3.3 2.27 3.3 2.17 0 2.68-.1 3.56-.1 2.94 0 3.04.47 3.04 2.79v.46c0 3.72 0 4.23-3.51 4.23-1.03 0-2.84-.1-3.61-.1-1.7 0-1.76.36-1.76 2.99v7.84c0 2.07 0 4.13-3.1 4.13h-2.58c-3.1 0-3.1-2.06-3.1-4.13v-28.39c0-1.55 0-4.13 3.1-4.13h12.8c1.29 0 2.42.52 2.42 1.55v4.39c0 1.03-.41 1.29-2.27 1.29-1.29 0-1.65-.1-4.08-.1-3.18 0-3.18.93-3.18 3.98z"/><path id="Tracé_181" class="st0" d="M442.48 684.1c7.69 0 9.86 5.52 9.86 11.61 0 3.72-.05 6.09-2.99 8.57-1.45 1.24-2.37.52-2.37 2.48 0 2.12.67 4.7 2.37 4.7.56-.02 1.12-.1 1.66-.25 1.65 0 1.91 1.39 1.91 3.77 0 1.14-.05 2.53-.05 4.08 0 1.03-.41 1.96-3.1 1.96-4.75 0-7.17-3.51-8.15-7.33-1.24-4.8-2.79-5.62-3.1-5.62-.41 0-.41.83-.41 1.24v7.33c0 2.07 0 4.13-3.1 4.13h-3.61c-2.07 0-2.07-2.06-2.07-4.13v-28.39c0-2.06 0-4.13 3.1-4.13l10.05-.02zm-4.44 9.18c0 .67.05 1.86.05 2.94 0 1.03-.05 1.96-.05 2.58 0 1.7.31 2.01 2.37 2.01 2.32 0 2.84-2.27 2.84-4.59s-.52-5.16-2.84-5.16c-2.06.01-2.37.37-2.37 2.22z"/><path id="Tracé_182" class="st0" d="M479.74 718.16c0 2.37-1.6 2.58-4.54 2.58h-2.73c-3.2 0-1.6-7.74-3.66-7.74h-4.13c-2.07 0-.88 7.74-3.97 7.74h-2.42c-2.68 0-4.28-.21-4.28-2.58 0-3.1 1.24-5.83 5.26-29.93.41-2.58 1.45-4.13 3.51-4.13h7.95c2.06 0 3.1 1.55 3.61 4.13 3.49 21.16 5.4 26.83 5.4 29.93zm-15.02-13.73c0 .83.36.83 2.01.83 1.6 0 2.01 0 2.01-.77 0-.28-.01-.55-.05-.83-.62-5.06-.83-11.3-1.96-11.3-1.08 0-1.45 6.19-1.96 11.3-.04.26-.05.52-.05.77z"/><path id="Tracé_183" class="st0" d="M497.23 700.62c.15 0 .26-.16.26-.52v-11.87c0-2.06 0-4.13 3.1-4.13h2.58c3.1 0 3.1 2.06 3.1 4.13v28.38c0 2.07 0 4.13-3.1 4.13-4.64 0-5-.83-5.73-2.37l-6.86-14.91c-.15-.31-.31-.52-.41-.52-.15 0-.21.21-.21.52l.05 13.16c0 2.07 0 4.13-3.1 4.13h-2.58c-3.1 0-3.1-2.06-3.1-4.13v-28.38c0-2.06 0-4.13 3.1-4.13h2.73c1.7 0 2.27.21 3.04 1.81l6.66 14.19c.16.35.32.51.47.51z"/><path id="Tracé_184" class="st0" d="M523.55 683.84c1.29 0 1.96.62 1.96 1.65v4.54c0 .52 0 1.29-1.96 1.29-1.03 0-1.08-.1-1.65-.1-4.9 0-4.9 8.93-4.9 10.78 0 1.76.05 11.35 4.7 11.35.67 0 .67-.1 1.86-.1 1.96 0 1.96 1.86 1.96 2.37v3.46c.12.94-.54 1.8-1.48 1.92-.16.02-.32.02-.48-.01-7.33 0-15.84-3.35-15.84-19.09-.01-14.7 8.5-18.06 15.83-18.06z"/><path id="Tracé_185" class="st0" d="M526.95 698.24c0-8.31.77-14.4 11.66-14.4 10.37 0 11.09 5.99 11.09 14.19 0 3.1.16 6.14.16 8.88 0 8.15-1.29 14.09-11.25 14.09-10.89 0-11.66-6.09-11.66-14.35 0-1.39.05-2.79.05-4.23s-.05-2.84-.05-4.18zm8.83-4.33v16.26c0 1.55 0 3.61 2.58 3.61s2.58-2.06 2.58-3.61v-16.26c0-1.29 0-2.84-2.58-2.84s-2.58 1.55-2.58 2.84z"/><path id="Tracé_186" class="st0" d="M560.24 709.03v7.59c0 2.07 0 4.13-3.1 4.13h-2.58c-3.1 0-3.1-2.06-3.1-4.13v-28.38c0-2.06 0-4.13 3.1-4.13h11.2c5.57 0 8.72 4.54 8.72 11.77-.03 2.86-.57 5.69-1.6 8.36-1.65 3.51-6.55 4.03-9.44 4.03-.64.01-1.28-.02-1.91-.1-1.24-.02-1.29.39-1.29.86zm-.05-15.43c0 .67.05 1.55.05 2.63 0 1.03-.05 1.96-.05 2.58 0 1.7.31 2.01 2.37 2.01 2.73 0 2.84-2.27 2.84-4.59s-.52-5.16-2.84-5.16c-2.06 0-2.37.67-2.37 2.53z"/><path id="Tracé_187" class="st0" d="M584.49 694.68c0 2.84 0 2.84 2.84 2.84s2.84 0 2.84-2.68v-6.6c0-2.06 0-4.13 3.1-4.13h2.58c3.1 0 3.1 2.06 3.1 4.13v28.38c0 2.07 0 4.13-3.1 4.13h-2.58c-3.1 0-3.1-2.06-3.1-4.13v-7.74c0-3.41-.21-3.61-2.84-3.61h-.57c-1.65 0-2.27 0-2.27 2.63v8.72c0 2.07 0 4.13-3.1 4.13h-2.58c-3.1 0-3.1-2.06-3.1-4.13v-28.39c0-2.06 0-4.13 3.1-4.13h2.58c3.1 0 3.1 2.06 3.1 4.13v6.45z"/><path id="Tracé_188" class="st0" d="M600.59 698.24c0-8.31.77-14.4 11.66-14.4 10.37 0 11.09 5.99 11.09 14.19 0 3.1.16 6.14.16 8.88 0 8.15-1.29 14.09-11.25 14.09-10.89 0-11.66-6.09-11.66-14.35 0-1.39.05-2.79.05-4.23s-.05-2.84-.05-4.18zm8.82-4.33v16.26c0 1.55 0 3.61 2.58 3.61s2.58-2.06 2.58-3.61v-16.26c0-1.29 0-2.84-2.58-2.84s-2.58 1.55-2.58 2.84z"/><path id="Tracé_189" class="st0" d="M641.1 700.62c.16 0 .26-.16.26-.52v-11.87c0-2.06 0-4.13 3.1-4.13h2.58c3.1 0 3.1 2.06 3.1 4.13v28.38c0 2.07 0 4.13-3.1 4.13-4.64 0-5-.83-5.73-2.37l-6.86-14.91c-.15-.31-.31-.52-.41-.52-.16 0-.21.21-.21.52l.05 13.16c0 2.07 0 4.13-3.09 4.13h-2.58c-3.1 0-3.1-2.06-3.1-4.13v-28.38c0-2.06 0-4.13 3.1-4.13h2.73c1.7 0 2.27.21 3.04 1.81l6.66 14.19c.15.35.3.51.46.51z"/><path id="Tracé_190" class="st0" d="M660.76 711.3c.15 1.05 1.11 1.8 2.17 1.7 2.94 0 3.92-.1 5.01-.1 2.17 0 2.84.62 2.84 2.17v3.61c0 1.55-.52 2.06-2.06 2.06H655.1c-3.1 0-3.1-3.1-3.1-4.13v-28.38c0-2.06 0-4.13 3.1-4.13h13.32c1.29 0 2.42.52 2.42 1.55v4.39c0 1.24-1.03 1.29-2.32 1.29-2.01 0-3.61-.1-4.9-.1-2.84 0-2.84 1.03-2.84 2.68 0 3.35 0 4.23 2.58 4.23 3.2 0 3.72-.1 4.9-.1 1.81 0 1.91 1.81 1.91 2.37v3.3c0 1.55-1.08 1.65-2.37 1.65-2.63 0-4.28-.1-5.37-.1-1.65 0-1.65.72-1.65 2.43l-.02 3.61z"/><path id="Tracé_191" class="st0" d="M683.31 683.84c4.28 0 7.17.77 7.17 2.22v3.97c0 .57-.21 1.55-1.96 1.55h-.41c-.83 0-2.68-.57-4.18-.57-1.24 0-2.22.41-2.22 2.06 0 1.6.47 2.42 2.48 4.08 6.14 5.06 7.38 8.67 7.38 12.85 0 2.37-.05 4.54-1.39 6.55a9.844 9.844 0 01-5.52 3.87c-1.62.38-3.28.57-4.95.57-3.82 0-7.53-.72-7.53-2.79v-3.97c0-.62.52-1.24 1.91-1.24 1.34 0 2.48.77 5.42.77 1.45 0 3.41-1.14 3.41-2.73 0-1.19-.05-2.06-3.2-5.16-4.8-4.7-7.07-6.86-7.07-11.1-.02-10.15 6.53-10.93 10.66-10.93z"/></g></g><g id="Groupe_33"><path id="Tracé_192" d="M558.31 582.72c.04 1.38-.16 2.76-.59 4.07l.23.03c15.4 1.66 29.45-10.96 28.93-25.59l-29.16 2.66.59 18.83z" fill="#5dcbae"/><path id="Tracé_193" class="st2" d="M286.55 421.64c-2.99 1-5.79 2.51-8.27 4.47l20.87-8.66-12.6 4.19z"/><path id="Tracé_194" class="st3" d="M361.27 581.82l2.35-.21-2.46-.2c.05.13.09.27.11.41z"/><path id="Tracé_195" class="st4" d="M318.76 581.55l26.14-1.49-68.36-5.62.62 3.7c1.07 6.42 7.01 10.71 13.96 10.08l24.26-2.21c-.47-1.93.71-3.88 2.64-4.35.24-.06.49-.1.74-.11z"/><path id="Tracé_196" class="st3" d="M618.98 543.09l-38.09-228.25c-1.18-7.07-9.22-10.55-16.2-7.02l-21.13 10.69c3.94.96 6.76 4.43 6.88 8.49l.31 10.07c9.54 1.64 17.13 8.88 18.02 18.94l18.06 204.05c.03.39.05.78.07 1.17l18.39-1.68c8.53-.78 15-8.56 13.69-16.46z"/><path id="Tracé_197" class="st2" d="M568.76 356c-.89-10.06-8.48-17.3-18.02-18.94l6.99 226.83 29.16-2.66c-.01-.39-.03-.78-.07-1.17L568.76 356z"/><path id="Tracé_198" d="M568.76 356c-.89-10.06-8.48-17.3-18.02-18.94l6.99 226.83 29.16-2.66c-.01-.39-.03-.78-.07-1.17L568.76 356z" fill="#082044"/><path id="Tracé_199" class="st6" d="M267.71 457.99l1.8-.91-.87-9.88c-.71-8.04 3.12-15.93 9.65-21.08l-32.98 13.68c-5.57 2.31-9.1 7.8-8.58 13.33l10.36 109.69c.57 5.53 5.08 9.81 10.63 10.09l18.82 1.55-16.96-101.61c-.97-5.86 2.36-11.94 8.13-14.86z"/><path id="Tracé_200" class="st6" d="M543.55 318.51c-2.36-.61-4.85-.43-7.09.53l-237.3 98.42 141.78-47.06 102.61-51.89z"/><path id="Tracé_201" class="st6" d="M363.62 581.61l179.6 14.77c6.45.47 12.4-3.46 14.5-9.58L442.8 574.38l-79.18 7.23z"/><path id="Tracé_202" class="st2" d="M268.63 447.2l.87 9.88 171.43-86.68-141.78 47.06-20.87 8.66c-6.52 5.14-10.36 13.03-9.65 21.08z"/><path id="Tracé_203" class="st7" d="M268.63 447.2l.87 9.88 171.43-86.68-141.78 47.06-20.87 8.66c-6.52 5.14-10.36 13.03-9.65 21.08z"/><path id="Tracé_204" class="st2" d="M557.73 563.89L442.8 574.38l114.92 12.42c.43-1.31.63-2.69.59-4.07l-.58-18.84z"/><path id="Tracé_205" class="st7" d="M557.73 563.89L442.8 574.38l114.92 12.42c.43-1.31.63-2.69.59-4.07l-.58-18.84z"/><path id="Tracé_206" class="st3" d="M538.32 338.07c3.99-1.35 8.26-1.69 12.42-1l-.31-10.07a9.014 9.014 0 00-6.88-8.49l-102.61 51.88 97.38-32.32z"/><path id="Tracé_207" class="st8" d="M538.32 338.07c3.99-1.35 8.26-1.69 12.42-1l-.31-10.07a9.014 9.014 0 00-6.88-8.49l-102.61 51.88 97.38-32.32z"/><path id="Tracé_208" class="st3" d="M296.29 558.55c-10.64-1.15-18.6-8.96-19.5-19.14l-7.29-82.33-1.8.91c-5.77 2.92-9.1 9-8.13 14.85l16.96 101.61 68.36 5.62 13.07-.74c1.42-.13 2.74.73 3.19 2.08l2.46.2 79.19-7.23-146.51-15.83z"/><path id="Tracé_209" class="st8" d="M296.29 558.55c-10.64-1.15-18.6-8.96-19.5-19.14l-7.29-82.33-1.8.91c-5.77 2.92-9.1 9-8.13 14.85l16.96 101.61 68.36 5.62 13.07-.74c1.42-.13 2.74.73 3.19 2.08l2.46.2 79.19-7.23-146.51-15.83z"/><path id="Tracé_210" class="st2" d="M538.32 338.07l-97.38 32.33-171.43 86.68 7.29 82.33c.9 10.18 8.86 17.99 19.5 19.14l146.51 15.83 114.92-10.49-6.99-226.83c-4.16-.69-8.43-.34-12.42 1.01zM364.73 533.49a1.1 1.1 0 01.69-1.39l.1-.03c.15.6-.19 1.22-.79 1.42zm31.29-84.32c.01 1.27.03 3.19-4.89 3.61-2.59.23-2.72-.02-4.15.1-12.3 1.07-12.1 23.13-12.06 27.72.04 4.33.38 28.04 12.04 27.03 1.68-.15 1.68-.4 4.66-.66 4.92-.43 4.96 4.16 4.97 5.44l.08 8.54c.03 3.19-1.64 4.86-4.88 5.15-18.39 1.6-39.83-4.84-40.18-43.72-.33-36.34 20.96-46.48 39.35-48.08 3.24-.28 4.93 1.1 4.96 3.65l.1 11.22zm59.17-5.13c.03 3.06-2.56 3.41-5.8 3.69-5.05.44-9.07.53-12.3.81-7.12.62-7.1 3.17-7.06 7.25.07 8.29.09 10.45 6.57 9.89 8.03-.7 9.32-1.07 12.3-1.32 4.53-.39 4.83 4.05 4.84 5.45l.07 8.16c.04 3.83-2.68 4.32-5.92 4.6-6.6.57-10.75.68-13.47.92-4.14.36-4.13 2.14-4.09 6.35l.08 8.92c.29 2.78 2.89 3.96 5.48 3.74 7.38-.64 9.84-1.11 12.56-1.35 5.44-.47 7.14.91 7.17 4.74l.08 8.93c.04 3.83-1.25 5.21-5.13 5.55l-34.19 2.97c-7.77.67-7.84-6.97-7.86-9.53l-.63-70.13c-.05-5.1-.09-10.2 7.68-10.88l33.41-2.9c3.24-.28 6.1.75 6.12 3.3l.09 10.84zm58.14-5.05c.02 2.55-1.01 3.28-5.67 3.68-3.24.28-4.14.1-10.23.63-8.03.7-8.01 2.99-7.94 10.52.05 6.12.07 8.16 5.77 7.67 5.44-.47 6.73-.84 8.93-1.03 7.38-.64 7.65.48 7.7 6.22l.01 1.15c.08 9.18.09 10.45-8.71 11.22-2.59.23-7.12.36-9.07.53-4.27.37-4.4 1.27-4.34 7.78l.17 19.38c.05 5.1.09 10.2-7.68 10.88l-6.47.56c-7.77.67-7.82-4.42-7.86-9.53l-.63-70.13c-.03-3.83-.09-10.2 7.68-10.88l32.11-2.79c3.24-.28 6.1.75 6.12 3.3l.11 10.84z"/><path id="Tracé_211" class="st3" d="M538.32 338.07l-97.38 32.33-171.43 86.68 7.29 82.33c.9 10.18 8.86 17.99 19.5 19.14l146.51 15.83 114.92-10.49-6.99-226.83c-4.16-.69-8.43-.34-12.42 1.01zM364.73 533.49a1.1 1.1 0 01.69-1.39l.1-.03c.15.6-.19 1.22-.79 1.42zm31.29-84.32c.01 1.27.03 3.19-4.89 3.61-2.59.23-2.72-.02-4.15.1-12.3 1.07-12.1 23.13-12.06 27.72.04 4.33.38 28.04 12.04 27.03 1.68-.15 1.68-.4 4.66-.66 4.92-.43 4.96 4.16 4.97 5.44l.08 8.54c.03 3.19-1.64 4.86-4.88 5.15-18.39 1.6-39.83-4.84-40.18-43.72-.33-36.34 20.96-46.48 39.35-48.08 3.24-.28 4.93 1.1 4.96 3.65l.1 11.22zm59.17-5.13c.03 3.06-2.56 3.41-5.8 3.69-5.05.44-9.07.53-12.3.81-7.12.62-7.1 3.17-7.06 7.25.07 8.29.09 10.45 6.57 9.89 8.03-.7 9.32-1.07 12.3-1.32 4.53-.39 4.83 4.05 4.84 5.45l.07 8.16c.04 3.83-2.68 4.32-5.92 4.6-6.6.57-10.75.68-13.47.92-4.14.36-4.13 2.14-4.09 6.35l.08 8.92c.29 2.78 2.89 3.96 5.48 3.74 7.38-.64 9.84-1.11 12.56-1.35 5.44-.47 7.14.91 7.17 4.74l.08 8.93c.04 3.83-1.25 5.21-5.13 5.55l-34.19 2.97c-7.77.67-7.84-6.97-7.86-9.53l-.63-70.13c-.05-5.1-.09-10.2 7.68-10.88l33.41-2.9c3.24-.28 6.1.75 6.12 3.3l.09 10.84zm58.14-5.05c.02 2.55-1.01 3.28-5.67 3.68-3.24.28-4.14.1-10.23.63-8.03.7-8.01 2.99-7.94 10.52.05 6.12.07 8.16 5.77 7.67 5.44-.47 6.73-.84 8.93-1.03 7.38-.64 7.65.48 7.7 6.22l.01 1.15c.08 9.18.09 10.45-8.71 11.22-2.59.23-7.12.36-9.07.53-4.27.37-4.4 1.27-4.34 7.78l.17 19.38c.05 5.1.09 10.2-7.68 10.88l-6.47.56c-7.77.67-7.82-4.42-7.86-9.53l-.63-70.13c-.03-3.83-.09-10.2 7.68-10.88l32.11-2.79c3.24-.28 6.1.75 6.12 3.3l.11 10.84z"/><path id="Tracé_212" d="M538.32 338.07l-97.38 32.33-171.43 86.68 7.29 82.33c.9 10.18 8.86 17.99 19.5 19.14l146.51 15.83 114.92-10.49-6.99-226.83c-4.16-.69-8.43-.34-12.42 1.01zM364.73 533.49a1.1 1.1 0 01.69-1.39l.1-.03c.15.6-.19 1.22-.79 1.42zm31.29-84.32c.01 1.27.03 3.19-4.89 3.61-2.59.23-2.72-.02-4.15.1-12.3 1.07-12.1 23.13-12.06 27.72.04 4.33.38 28.04 12.04 27.03 1.68-.15 1.68-.4 4.66-.66 4.92-.43 4.96 4.16 4.97 5.44l.08 8.54c.03 3.19-1.64 4.86-4.88 5.15-18.39 1.6-39.83-4.84-40.18-43.72-.33-36.34 20.96-46.48 39.35-48.08 3.24-.28 4.93 1.1 4.96 3.65l.1 11.22zm59.17-5.13c.03 3.06-2.56 3.41-5.8 3.69-5.05.44-9.07.53-12.3.81-7.12.62-7.1 3.17-7.06 7.25.07 8.29.09 10.45 6.57 9.89 8.03-.7 9.32-1.07 12.3-1.32 4.53-.39 4.83 4.05 4.84 5.45l.07 8.16c.04 3.83-2.68 4.32-5.92 4.6-6.6.57-10.75.68-13.47.92-4.14.36-4.13 2.14-4.09 6.35l.08 8.92c.29 2.78 2.89 3.96 5.48 3.74 7.38-.64 9.84-1.11 12.56-1.35 5.44-.47 7.14.91 7.17 4.74l.08 8.93c.04 3.83-1.25 5.21-5.13 5.55l-34.19 2.97c-7.77.67-7.84-6.97-7.86-9.53l-.63-70.13c-.05-5.1-.09-10.2 7.68-10.88l33.41-2.9c3.24-.28 6.1.75 6.12 3.3l.09 10.84zm58.14-5.05c.02 2.55-1.01 3.28-5.67 3.68-3.24.28-4.14.1-10.23.63-8.03.7-8.01 2.99-7.94 10.52.05 6.12.07 8.16 5.77 7.67 5.44-.47 6.73-.84 8.93-1.03 7.38-.64 7.65.48 7.7 6.22l.01 1.15c.08 9.18.09 10.45-8.71 11.22-2.59.23-7.12.36-9.07.53-4.27.37-4.4 1.27-4.34 7.78l.17 19.38c.05 5.1.09 10.2-7.68 10.88l-6.47.56c-7.77.67-7.82-4.42-7.86-9.53l-.63-70.13c-.03-3.83-.09-10.2 7.68-10.88l32.11-2.79c3.24-.28 6.1.75 6.12 3.3l.11 10.84z" fill="#071802"/><path id="Tracé_213" d="M364.73 533.49c.59-.2.94-.81.79-1.42a1.1 1.1 0 00-.82 1.32c.01.03.02.06.03.1z" fill="#685ffe"/><path id="Tracé_214" class="st2" d="M364.73 533.49c.59-.2.94-.81.79-1.42a1.1 1.1 0 00-.82 1.32c.01.03.02.06.03.1z"/><path id="Tracé_215" class="st3" d="M364.73 533.49c.59-.2.94-.81.79-1.42a1.1 1.1 0 00-.82 1.32c.01.03.02.06.03.1z"/><path id="Tracé_216" class="st11" d="M364.73 533.49c.59-.2.94-.81.79-1.42a1.1 1.1 0 00-.82 1.32c.01.03.02.06.03.1z"/><path id="Tracé_217" class="st4" d="M315.9 586.97l49.12 59.65c2.12 2.57 6.69.41 6.16-2.91l-9.91-61.88-45.89 4.19c.11.34.29.66.52.95z"/><path id="Tracé_218" class="st3" d="M344.9 580.07l-26.14 1.49a3.585 3.585 0 00-3.48 3.71c.01.25.04.5.1.74l45.89-4.19c-.03-.14-.06-.28-.11-.42l-16.26-1.33z"/><path id="Tracé_219" class="st4" d="M344.9 580.07l-26.14 1.49a3.585 3.585 0 00-3.48 3.71c.01.25.04.5.1.74l45.89-4.19c-.03-.14-.06-.28-.11-.42l-16.26-1.33z"/><path id="Tracé_220" class="st3" d="M357.97 579.32l-13.07.74 16.26 1.34a3.064 3.064 0 00-3.19-2.08z"/><path id="Tracé_221" class="st11" d="M357.97 579.32l-13.07.74 16.26 1.34a3.064 3.064 0 00-3.19-2.08z"/><path id="Tracé_222" class="st3" d="M357.97 579.32l-13.07.74 16.26 1.34a3.064 3.064 0 00-3.19-2.08z"/><path id="Tracé_223" class="st12" d="M390.96 434.3c-18.39 1.6-39.68 11.74-39.35 48.08.35 38.89 21.79 45.32 40.18 43.72 3.24-.28 4.91-1.96 4.88-5.15l-.08-8.54c-.01-1.28-.05-5.86-4.97-5.44-2.98.26-2.98.51-4.66.66-11.65 1.01-12-22.69-12.04-27.03-.04-4.59-.24-26.65 12.06-27.72 1.42-.12 1.56.12 4.15-.1 4.92-.43 4.9-2.34 4.89-3.61l-.1-11.22c-.03-2.55-1.72-3.93-4.96-3.65z"/><path id="Tracé_224" class="st12" d="M448.98 429.9l-33.41 2.9c-7.77.67-7.72 5.77-7.68 10.88l.63 70.13c.02 2.55.09 10.2 7.86 9.53l34.19-2.97c3.88-.34 5.17-1.72 5.13-5.55l-.08-8.93c-.04-3.83-1.73-5.21-7.17-4.74-2.72.24-5.18.7-12.56 1.35-2.59.22-5.19-.95-5.48-3.74l-.08-8.92c-.04-4.21-.05-5.99 4.09-6.35 2.72-.24 6.86-.34 13.47-.92 3.24-.28 5.95-.77 5.92-4.6l-.07-8.16c-.01-1.4-.31-5.84-4.84-5.45-2.98.26-4.27.63-12.3 1.32-6.47.56-6.49-1.61-6.57-9.89-.04-4.08-.06-6.63 7.06-7.25 3.24-.28 7.25-.38 12.3-.81 3.24-.28 5.83-.63 5.8-3.69l-.1-10.84c-.02-2.55-2.88-3.58-6.11-3.3z"/><path id="Tracé_225" class="st12" d="M507.11 424.85L475 427.64c-7.77.67-7.71 7.05-7.68 10.88l.63 70.13c.05 5.1.09 10.2 7.86 9.53l6.47-.56c7.77-.67 7.72-5.77 7.68-10.88l-.17-19.38c-.06-6.5.06-7.41 4.34-7.78 1.94-.17 6.48-.31 9.07-.53 8.8-.77 8.79-2.04 8.71-11.22l-.01-1.15c-.05-5.74-.32-6.86-7.7-6.22-2.2.19-3.49.56-8.93 1.03-5.7.49-5.72-1.55-5.77-7.67-.07-7.52-.09-9.82 7.94-10.52 6.09-.53 6.99-.35 10.23-.63 4.66-.4 5.69-1.13 5.67-3.68l-.1-10.84c-.03-2.55-2.89-3.58-6.13-3.3z"/></g></g><ellipse id="Ellipse_1" cx="435.25" cy="768.5" rx="134.62" ry="7.61" opacity=".39" fill="#262626"/></g></svg>