<svg xmlns="http://www.w3.org/2000/svg" xmlns:xlink="http://www.w3.org/1999/xlink" viewBox="0 0 684.54 684.54"><defs><style>.cls-1,.cls-2,.cls-3,.cls-5,.cls-6,.cls-7{opacity:0.1;}.cls-1{fill:url(#linear-gradient);}.cls-2{fill:url(#linear-gradient-2);}.cls-3{fill:url(#linear-gradient-3);}.cls-4{fill:#fff;}.cls-5{fill:url(#linear-gradient-4);}.cls-6{fill:#828282;}.cls-7{fill:url(#linear-gradient-5);}.cls-8{font-size:21.3px;}.cls-11,.cls-8{fill:#4f4f4f;font-family:HWTArtz, HWT Artz;}.cls-9{letter-spacing:-0.05em;}.cls-10{letter-spacing:0em;}.cls-11{font-size:17.33px;}.cls-12{letter-spacing:-0.02em;}.cls-13{fill:none;stroke-miterlimit:10;stroke-width:0.25px;stroke:url(#linear-gradient-6);}</style><linearGradient id="linear-gradient" y1="342.27" x2="684.54" y2="342.27" gradientUnits="userSpaceOnUse"><stop offset="0" stop-color="#fff"/><stop offset="1"/></linearGradient><linearGradient id="linear-gradient-2" x1="134" y1="360.18" x2="613.9" y2="360.18" xlink:href="#linear-gradient"/><linearGradient id="linear-gradient-3" x1="191.95" y1="316.91" x2="356.27" y2="316.91" xlink:href="#linear-gradient"/><linearGradient id="linear-gradient-4" x1="380.94" y1="415.86" x2="545.27" y2="415.86" xlink:href="#linear-gradient"/><linearGradient id="linear-gradient-5" x1="426.02" y1="424.86" x2="514.86" y2="424.86" xlink:href="#linear-gradient"/><linearGradient id="linear-gradient-6" x1="-4161.06" y1="-2563.83" x2="-4032.75" y2="-2563.83" gradientTransform="translate(-3954.03 -2254.28) rotate(180)" xlink:href="#linear-gradient"/></defs><title>orgaCEF2</title><g id="Layer_2" data-name="Layer 2"><g id="Layer_1-2" data-name="Layer 1"><path class="cls-1" d="M342.27,684.54C153.24,684.54,0,531.3,0,342.27S153.24,0,342.27,0,684.54,153.24,684.54,342.27,531.3,684.54,342.27,684.54"/><circle class="cls-2" cx="373.95" cy="360.18" r="239.95"/><circle class="cls-3" cx="274.11" cy="316.91" r="82.16"/><circle class="cls-4" cx="230.34" cy="309.54" r="12.35"/><circle class="cls-4" cx="248.1" cy="355.69" r="12.78"/><circle class="cls-4" cx="296.64" cy="357.35" r="12.78"/><circle class="cls-4" cx="274.11" cy="318.57" r="12.78"/><circle class="cls-4" cx="314.55" cy="302.91" r="12.35"/><circle class="cls-4" cx="269.39" cy="275.73" r="12.35"/><circle class="cls-5" cx="463.11" cy="415.86" r="82.16"/><circle class="cls-6" cx="169.56" cy="135.76" r="48.44"/><circle class="cls-7" cx="470.44" cy="424.86" r="44.42"/><text class="cls-8" transform="translate(341.32 72.11)">LE CEF</text><text class="cls-8" transform="translate(147.35 144.38)">S<tspan class="cls-9" x="8.43" y="0">T</tspan><tspan class="cls-10" x="15.65" y="0">AFF</tspan></text><text class="cls-8" transform="translate(342.27 184.19)">MEMBRES</text><text class="cls-8" transform="translate(221.86 436.91)">régionales</text><text class="cls-8" transform="translate(11.39 315.64)">LOCALES</text><text class="cls-11" transform="translate(430.4 373.74)"><tspan class="cls-12">A</tspan><tspan x="8.75" y="0">G</tspan></text><text class="cls-8" transform="translate(461.45 429.13)">CA</text><line class="cls-13" x1="78.73" y1="309.54" x2="207.03" y2="309.54"/></g></g></svg>