<svg xmlns="http://www.w3.org/2000/svg" viewBox="0 0 33 33"><defs><style>.cls-1{fill:#ff2869;fill-rule:evenodd;}</style></defs><path class="cls-1" d="M16.5,0C7.39,0,0,7.39,0,16.5s7.39,16.5,16.5,16.5,16.5-7.39,16.5-16.5S25.61,0,16.5,0h0Zm3.83,12.04v.53h0v7.14c0,1.7-.67,3.32-1.87,4.52-1.2,1.2-2.82,1.87-4.52,1.87s-3.32-.67-4.52-1.87c-1.2-1.2-1.87-2.82-1.87-4.52s.67-3.32,1.87-4.52c1.2-1.2,2.82-1.87,4.52-1.87h1.19v3.36h-1.19c-.81,0-1.57,.32-2.15,.89-.57,.57-.89,1.34-.89,2.15s.32,1.57,.89,2.15c.57,.57,1.34,.89,2.15,.89s1.57-.32,2.15-.89c.57-.57,.89-1.34,.89-2.14V6.89h3.35l.17,.31c.52,.97,1.22,1.88,2.1,2.56,.67,.52,1.44,.89,2.28,1.04l.6,.1-.64,3.24-.57-.1c-.68-.12-1.35-.33-1.98-.62-.72-.34-1.39-.8-1.93-1.38Z"/></svg>