<svg xmlns="http://www.w3.org/2000/svg" xmlns:xlink="http://www.w3.org/1999/xlink" width="500" zoomAndPan="magnify" viewBox="0 0 375 374.999991" height="500" preserveAspectRatio="xMidYMid meet" version="1.0"><defs><g/><clipPath id="c257f56504"><path d="M 62.726562 144.070312 L 110.410156 144.070312 L 110.410156 193.570312 L 62.726562 193.570312 Z M 62.726562 144.070312 " clip-rule="nonzero"/></clipPath><clipPath id="be5d9fdef3"><path d="M 110.417969 180.214844 L 167.417969 180.214844 L 167.417969 193.714844 L 110.417969 193.714844 Z M 110.417969 180.214844 " clip-rule="nonzero"/></clipPath></defs><rect x="-37.5" width="450" fill="#ffffff" y="-37.499999" height="449.999989" fill-opacity="1"/><rect x="-37.5" width="450" fill="#ffffff" y="-37.499999" height="449.999989" fill-opacity="1"/><path fill="#f6cd47" d="M 53.964844 137.863281 C 67.800781 131.710938 115.277344 145.34375 124.992188 161.785156 C 134.710938 178.222656 135.46875 189.457031 129.480469 205.917969 C 123.496094 222.378906 108.613281 234.328125 93.628906 236.5625 C 78.644531 238.796875 56.957031 243.285156 43.488281 226.847656 C 30.023438 210.40625 24.796875 208.890625 24.058594 202.167969 C 23.320312 195.441406 19.566406 174.515625 29.285156 159.550781 C 39 144.585938 40.496094 143.847656 53.964844 137.863281 Z M 53.964844 137.863281 " fill-opacity="1" fill-rule="nonzero"/><g clip-path="url(#c257f56504)"><path fill="#000000" d="M 109.570312 192.6875 C 109.15625 192.949219 108.492188 191.929688 108.242188 192.0625 C 108.363281 191.996094 108.480469 191.929688 108.59375 191.851562 C 108.773438 191.734375 108.933594 191.59375 109.078125 191.445312 C 109.261719 191.675781 109.898438 192.324219 109.640625 192.621094 C 109.621094 192.648438 109.59375 192.667969 109.570312 192.6875 Z M 105.273438 190.132812 C 105.277344 190.121094 105.277344 190.117188 105.285156 190.105469 C 105.421875 189.8125 105.695312 189.433594 106.074219 189.082031 C 106.457031 188.730469 106.863281 188.464844 107.171875 188.273438 C 107.242188 188.230469 107.300781 188.195312 107.355469 188.164062 C 107.714844 188.96875 107.90625 189.40625 107.90625 189.40625 C 108.15625 189.953125 108.875 191.066406 107.820312 191.230469 C 107.238281 191.324219 106.546875 190.8125 106.0625 190.558594 C 106.054688 190.558594 105.925781 190.488281 105.667969 190.351562 C 105.5625 190.292969 105.425781 190.21875 105.273438 190.132812 Z M 95.351562 183.175781 C 95.234375 183.070312 95.117188 182.964844 94.996094 182.859375 C 95.015625 182.816406 95.035156 182.773438 95.0625 182.71875 C 95.101562 182.625 95.15625 182.507812 95.214844 182.375 C 95.292969 182.246094 95.375 182.097656 95.472656 181.933594 C 95.570312 181.773438 95.671875 181.59375 95.792969 181.40625 C 95.925781 181.226562 96.0625 181.035156 96.210938 180.832031 C 96.496094 180.421875 96.886719 180.023438 97.273438 179.59375 C 97.480469 179.394531 97.6875 179.203125 97.886719 179.019531 C 97.988281 178.929688 98.089844 178.839844 98.191406 178.753906 C 98.292969 178.671875 98.398438 178.597656 98.496094 178.519531 C 98.695312 178.371094 98.886719 178.226562 99.066406 178.09375 C 99.246094 177.972656 99.425781 177.871094 99.589844 177.773438 C 99.75 177.675781 99.898438 177.59375 100.027344 177.515625 C 100.15625 177.453125 100.277344 177.40625 100.367188 177.363281 C 100.558594 177.28125 100.660156 177.238281 100.660156 177.238281 C 100.691406 177.222656 100.710938 177.199219 100.730469 177.175781 C 101.101562 177.640625 101.472656 178.101562 101.828125 178.542969 C 102.710938 179.757812 103.546875 180.882812 104.210938 181.96875 C 105.441406 183.988281 106.265625 185.761719 106.863281 187.054688 C 106.855469 187.058594 106.847656 187.058594 106.84375 187.0625 C 106.84375 187.0625 106.753906 187.195312 106.535156 187.4375 C 106.320312 187.671875 105.972656 188.011719 105.488281 188.453125 C 105.003906 188.894531 104.640625 189.273438 104.398438 189.539062 C 104.375 189.558594 104.359375 189.578125 104.34375 189.589844 C 103.875 189.320312 103.308594 189.007812 102.667969 188.585938 C 102.300781 188.355469 101.910156 188.105469 101.484375 187.832031 C 101.050781 187.570312 100.621094 187.246094 100.152344 186.921875 C 99.195312 186.285156 98.1875 185.488281 97.058594 184.617188 C 96.515625 184.160156 95.949219 183.679688 95.351562 183.175781 Z M 91.753906 179.691406 C 91.773438 179.65625 91.824219 179.566406 91.90625 179.433594 C 91.957031 179.34375 92.023438 179.234375 92.101562 179.105469 C 92.1875 178.984375 92.296875 178.847656 92.414062 178.699219 C 92.53125 178.546875 92.660156 178.386719 92.796875 178.210938 C 92.953125 178.046875 93.121094 177.875 93.296875 177.691406 C 93.636719 177.316406 94.082031 176.96875 94.527344 176.589844 C 95.464844 175.882812 96.382812 175.324219 97.082031 174.980469 C 97.425781 174.800781 97.710938 174.671875 97.914062 174.585938 C 98.117188 174.5 98.226562 174.453125 98.226562 174.453125 C 98.261719 174.433594 98.289062 174.402344 98.308594 174.375 C 98.457031 174.535156 98.605469 174.695312 98.746094 174.851562 C 99.152344 175.324219 99.5625 175.777344 99.953125 176.230469 C 99.917969 176.253906 99.878906 176.277344 99.832031 176.3125 C 99.667969 176.417969 99.417969 176.570312 99.128906 176.8125 C 98.980469 176.929688 98.8125 177.054688 98.625 177.199219 C 98.4375 177.335938 98.257812 177.515625 98.046875 177.695312 C 97.621094 178.042969 97.175781 178.496094 96.65625 178.992188 C 96.167969 179.519531 95.722656 179.972656 95.378906 180.398438 C 95.011719 180.808594 94.738281 181.183594 94.507812 181.480469 C 94.335938 181.691406 94.207031 181.882812 94.105469 182.03125 C 93.925781 181.863281 93.746094 181.691406 93.558594 181.519531 C 92.960938 180.953125 92.378906 180.324219 91.753906 179.691406 Z M 68.894531 156.4375 C 68.894531 156.425781 68.898438 156.421875 68.898438 156.417969 C 68.910156 156.40625 68.925781 156.417969 68.929688 156.417969 C 68.9375 156.410156 68.953125 156.398438 68.957031 156.390625 C 68.972656 156.378906 68.984375 156.367188 69 156.351562 C 69.003906 156.34375 69.007812 156.335938 69.011719 156.328125 C 69.117188 156.457031 69.222656 156.585938 69.328125 156.71875 C 69.992188 157.472656 70.710938 158.351562 71.5625 159.269531 C 72.628906 160.457031 73.867188 161.765625 75.210938 163.164062 C 74.875 162.90625 74.503906 162.558594 74.089844 162.125 C 73.828125 161.851562 73.558594 161.539062 73.257812 161.203125 C 73.105469 161.035156 72.953125 160.859375 72.773438 160.675781 C 72.59375 160.480469 72.402344 160.316406 72.210938 160.140625 C 71.484375 159.5 70.847656 158.960938 70.347656 158.457031 C 69.839844 157.964844 69.476562 157.503906 69.238281 157.121094 C 69.113281 156.933594 69.03125 156.757812 68.960938 156.613281 C 68.949219 156.578125 68.929688 156.542969 68.921875 156.503906 C 68.90625 156.476562 68.894531 156.441406 68.894531 156.4375 Z M 67.9375 152.894531 C 67.957031 152.847656 67.980469 152.800781 68.007812 152.746094 C 68.058594 152.667969 68.121094 152.578125 68.1875 152.480469 C 68.257812 152.378906 68.332031 152.269531 68.417969 152.152344 C 68.511719 152.046875 68.617188 151.929688 68.726562 151.8125 C 68.933594 151.566406 69.21875 151.339844 69.507812 151.097656 C 70.109375 150.648438 70.722656 150.316406 71.183594 150.167969 C 71.296875 150.125 71.398438 150.089844 71.488281 150.054688 C 71.582031 150.023438 71.660156 150.015625 71.726562 150.003906 C 71.855469 149.972656 71.925781 149.964844 71.925781 149.964844 C 71.960938 149.949219 71.984375 149.914062 71.996094 149.863281 C 73.179688 150.546875 74.683594 151.667969 76.394531 153.1875 C 77.355469 154.035156 78.410156 154.992188 79.507812 156.03125 C 80.609375 157.070312 81.789062 158.175781 83.023438 159.339844 C 84.261719 160.511719 85.535156 161.765625 86.863281 163.054688 C 87.527344 163.703125 88.203125 164.359375 88.882812 165.023438 C 89.574219 165.683594 90.273438 166.351562 90.980469 167.027344 C 93.300781 169.234375 95.503906 171.378906 97.472656 173.46875 C 97.324219 173.570312 97.054688 173.746094 96.683594 173.996094 C 96.0625 174.414062 95.148438 175.03125 93.996094 175.910156 C 93.433594 176.375 92.929688 176.769531 92.527344 177.152344 C 92.101562 177.511719 91.78125 177.863281 91.511719 178.128906 C 91.230469 178.390625 91.058594 178.625 90.925781 178.773438 C 90.914062 178.78125 90.910156 178.785156 90.90625 178.796875 C 90.523438 178.386719 90.140625 177.96875 89.742188 177.546875 C 89.070312 176.820312 88.375 176.066406 87.65625 175.292969 C 87.300781 174.902344 86.933594 174.507812 86.5625 174.109375 C 86.199219 173.703125 85.828125 173.292969 85.453125 172.875 C 83.949219 171.203125 82.554688 169.625 81.214844 168.15625 C 79.863281 166.691406 78.589844 165.355469 77.414062 164.109375 C 75.0625 161.628906 73.128906 159.511719 71.636719 157.765625 C 70.160156 156 69.105469 154.648438 68.453125 153.6875 C 68.246094 153.367188 68.078125 153.109375 67.9375 152.894531 Z M 66.347656 150.5625 C 66.300781 150.316406 66.328125 150.003906 66.519531 149.707031 C 66.894531 149.105469 67.546875 148.730469 67.988281 148.550781 C 68.214844 148.453125 68.40625 148.414062 68.53125 148.386719 C 68.550781 148.382812 68.5625 148.382812 68.574219 148.382812 C 68.625 148.402344 68.671875 148.417969 68.722656 148.441406 C 68.847656 148.488281 68.980469 148.53125 69.121094 148.582031 C 69.269531 148.640625 69.425781 148.695312 69.597656 148.757812 C 69.597656 148.757812 69.78125 148.804688 70.117188 148.941406 C 70.289062 149.011719 70.5 149.097656 70.746094 149.210938 C 70.65625 149.269531 70.554688 149.328125 70.441406 149.394531 C 70.304688 149.476562 70.171875 149.574219 70.015625 149.675781 C 69.703125 149.875 69.367188 150.132812 68.980469 150.417969 C 68.605469 150.71875 68.269531 150.976562 68 151.234375 C 67.714844 151.46875 67.5 151.699219 67.320312 151.878906 C 67.316406 151.878906 67.3125 151.882812 67.304688 151.886719 C 67.300781 151.867188 67.296875 151.84375 67.28125 151.828125 C 67.28125 151.828125 67.222656 151.769531 67.113281 151.667969 C 67.097656 151.652344 67.085938 151.640625 67.070312 151.625 C 66.917969 151.433594 66.78125 151.28125 66.652344 151.160156 C 66.515625 150.988281 66.394531 150.785156 66.347656 150.5625 Z M 66.222656 154.914062 C 66.21875 154.648438 66.289062 154.445312 66.382812 154.253906 C 66.480469 154.0625 66.582031 153.90625 66.65625 153.792969 C 66.730469 153.683594 66.765625 153.625 66.765625 153.625 C 66.800781 153.570312 66.828125 153.515625 66.851562 153.464844 C 67.0625 153.765625 67.347656 154.175781 67.710938 154.703125 C 67.878906 154.914062 68.0625 155.144531 68.257812 155.386719 C 68.242188 155.394531 68.234375 155.398438 68.21875 155.402344 C 68.195312 155.421875 68.171875 155.433594 68.148438 155.453125 C 68.148438 155.453125 68.144531 155.453125 68.050781 155.511719 C 67.957031 155.566406 67.777344 155.683594 67.425781 155.871094 C 67.4375 155.871094 67.554688 156.183594 67.757812 156.6875 C 67.785156 156.75 67.816406 156.816406 67.847656 156.882812 C 67.871094 156.929688 67.894531 156.972656 67.917969 157.019531 C 67.964844 157.109375 68.027344 157.199219 68.085938 157.296875 C 68.207031 157.5 68.367188 157.707031 68.546875 157.929688 C 68.90625 158.371094 69.375 158.832031 69.914062 159.304688 C 70.449219 159.777344 71.050781 160.253906 71.632812 160.777344 C 71.792969 160.917969 71.941406 161.058594 72.078125 161.199219 C 72.210938 161.335938 72.34375 161.488281 72.472656 161.640625 C 72.730469 161.949219 72.984375 162.25 73.222656 162.535156 C 73.707031 163.113281 74.175781 163.628906 74.632812 164.035156 C 75.078125 164.4375 75.542969 164.726562 75.925781 164.863281 C 76.117188 164.933594 76.28125 164.96875 76.398438 164.988281 C 76.515625 165.003906 76.574219 165.007812 76.574219 165.007812 C 76.714844 165.007812 76.820312 164.96875 76.90625 164.917969 C 77.132812 165.152344 77.359375 165.386719 77.589844 165.625 C 78.078125 166.132812 78.578125 166.65625 79.085938 167.183594 C 79.066406 167.179688 79.050781 167.179688 79.023438 167.175781 C 78.933594 167.171875 78.78125 167.144531 78.566406 167.074219 C 78.136719 166.933594 77.488281 166.589844 76.734375 166.074219 C 75.226562 165.03125 73.257812 163.324219 71.367188 161.238281 C 70.347656 160.179688 69.347656 159.28125 68.5 158.394531 C 67.652344 157.511719 66.957031 156.660156 66.554688 155.886719 C 66.328125 155.507812 66.242188 155.175781 66.222656 154.914062 Z M 64.441406 148.265625 C 63.890625 147.65625 63.15625 146.871094 63.878906 146.085938 C 64.09375 145.851562 64.375 145.730469 64.566406 145.691406 C 64.621094 145.683594 64.671875 145.683594 64.707031 145.683594 C 64.773438 145.699219 64.851562 145.726562 64.929688 145.757812 C 65.277344 145.894531 65.75 146.171875 66.195312 146.570312 C 66.640625 146.964844 66.972656 147.410156 67.183594 147.738281 C 67.199219 147.761719 67.214844 147.785156 67.226562 147.8125 C 67.078125 147.914062 66.921875 148.035156 66.753906 148.175781 C 66.441406 148.441406 66.089844 148.769531 65.785156 149.265625 C 65.773438 149.28125 65.765625 149.296875 65.757812 149.3125 C 65.707031 149.285156 65.652344 149.257812 65.589844 149.214844 C 65.304688 149.046875 64.898438 148.742188 64.441406 148.265625 Z M 62.472656 146.871094 C 62.4375 147.054688 62.445312 147.234375 62.5 147.402344 C 62.6875 147.90625 63.457031 148.433594 63.808594 148.84375 C 64.226562 149.28125 64.585938 149.699219 64.882812 149.992188 C 65.023438 150.144531 65.140625 150.269531 65.234375 150.351562 C 65.320312 150.4375 65.367188 150.484375 65.367188 150.484375 C 65.382812 150.496094 65.40625 150.496094 65.425781 150.496094 C 65.425781 150.617188 65.4375 150.742188 65.460938 150.855469 C 65.5625 151.328125 65.75 151.644531 65.878906 151.894531 C 65.886719 151.902344 65.894531 151.910156 65.898438 151.917969 C 65.980469 152.105469 66.097656 152.320312 66.242188 152.558594 C 66.054688 152.582031 65.875 152.707031 65.703125 152.984375 C 65.703125 152.984375 65.675781 153.035156 65.621094 153.136719 C 65.5625 153.242188 65.476562 153.390625 65.371094 153.625 C 65.265625 153.855469 65.128906 154.183594 65.105469 154.628906 C 65.070312 155.074219 65.199219 155.566406 65.421875 156.011719 C 65.890625 156.871094 66.589844 157.761719 67.519531 158.699219 C 67.980469 159.175781 68.488281 159.65625 69.035156 160.167969 C 69.582031 160.683594 70.160156 161.230469 70.726562 161.8125 C 71.875 163.09375 72.957031 164.144531 73.914062 165.035156 C 74.871094 165.925781 75.726562 166.632812 76.457031 167.164062 C 77.1875 167.699219 77.808594 168.050781 78.300781 168.230469 C 78.546875 168.324219 78.753906 168.382812 78.90625 168.40625 C 78.984375 168.414062 79.042969 168.433594 79.078125 168.433594 C 79.121094 168.433594 79.144531 168.433594 79.144531 168.433594 C 79.253906 168.433594 79.347656 168.417969 79.445312 168.390625 C 79.542969 168.359375 79.628906 168.316406 79.707031 168.28125 C 79.796875 168.214844 79.871094 168.140625 79.921875 168.070312 C 80.320312 168.492188 80.71875 168.917969 81.125 169.351562 C 82.320312 170.679688 83.554688 172.046875 84.820312 173.453125 C 86.070312 174.867188 87.335938 176.207031 88.539062 177.523438 C 89.742188 178.839844 90.886719 180.117188 92.046875 181.308594 C 94.355469 183.683594 96.648438 185.613281 98.648438 187.144531 C 99.667969 187.875 100.574219 188.570312 101.417969 189.113281 C 101.832031 189.390625 102.222656 189.648438 102.578125 189.886719 C 102.933594 190.121094 103.277344 190.320312 103.574219 190.507812 C 104.175781 190.875 104.644531 191.164062 104.960938 191.359375 C 105.285156 191.542969 105.457031 191.640625 105.457031 191.640625 C 105.871094 191.867188 106.214844 192.019531 106.5 192.121094 C 106.507812 192.128906 106.511719 192.140625 106.523438 192.148438 C 106.53125 192.148438 106.597656 192.207031 106.726562 192.246094 C 107.398438 192.445312 107.925781 192.976562 108.578125 193.25 C 108.984375 193.417969 109.378906 193.476562 109.691406 193.402344 C 109.847656 193.371094 109.972656 193.292969 110.0625 193.230469 C 110.121094 193.167969 110.171875 193.117188 110.199219 193.066406 C 110.234375 193.050781 110.265625 193.019531 110.296875 192.96875 C 110.324219 192.921875 110.355469 192.855469 110.386719 192.773438 C 110.402344 192.691406 110.410156 192.589844 110.414062 192.464844 C 110.417969 192.019531 110.171875 191.351562 109.570312 190.636719 C 109.570312 190.589844 109.566406 190.539062 109.5625 190.488281 C 109.628906 189.863281 109.296875 189.433594 109.039062 188.890625 C 109.039062 188.890625 108.773438 188.332031 108.246094 187.234375 C 107.707031 186.136719 106.9375 184.480469 105.691406 182.386719 C 105.53125 182.128906 105.371094 181.859375 105.203125 181.585938 C 105.035156 181.3125 104.84375 181.039062 104.652344 180.753906 C 104.285156 180.175781 103.839844 179.617188 103.394531 179.011719 C 103.171875 178.710938 102.941406 178.402344 102.707031 178.085938 C 102.464844 177.777344 102.199219 177.472656 101.941406 177.152344 C 101.417969 176.519531 100.882812 175.84375 100.277344 175.191406 C 97.914062 172.507812 94.957031 169.621094 91.574219 166.40625 C 84.871094 159.945312 79.859375 154.855469 76.246094 151.652344 C 75.339844 150.851562 74.5 150.175781 73.742188 149.640625 C 72.996094 149.085938 72.3125 148.691406 71.761719 148.382812 C 71.480469 148.238281 71.234375 148.113281 71.019531 148.003906 C 70.796875 147.910156 70.613281 147.828125 70.464844 147.765625 C 70.320312 147.699219 70.207031 147.652344 70.128906 147.628906 C 70.050781 147.601562 70.015625 147.585938 70.015625 147.585938 C 69.820312 147.519531 69.644531 147.46875 69.476562 147.417969 C 69.304688 147.382812 69.148438 147.355469 69.003906 147.335938 C 68.402344 147.246094 68.339844 147.421875 67.894531 146.984375 C 67.53125 146.621094 67.148438 146.269531 66.765625 145.929688 C 65.613281 144.90625 64.5 144.15625 63.242188 145.507812 C 62.957031 145.820312 62.566406 146.363281 62.472656 146.871094 " fill-opacity="1" fill-rule="nonzero"/></g><g clip-path="url(#be5d9fdef3)"><path fill="#000000" d="M 140.582031 188.457031 C 140.730469 188.558594 140.867188 188.65625 141.039062 188.535156 C 141.261719 188.566406 141.460938 188.476562 141.671875 188.417969 C 142.050781 188.308594 142.425781 188.179688 142.800781 188.042969 C 143.144531 187.921875 143.5 187.828125 143.828125 187.65625 C 144.140625 187.496094 144.46875 187.339844 144.804688 187.25 C 145.078125 187.175781 145.328125 187.054688 145.589844 186.957031 C 145.839844 186.867188 146.074219 186.734375 146.324219 186.644531 C 146.699219 186.511719 147.035156 186.28125 147.429688 186.195312 C 147.539062 186.167969 147.640625 186.085938 147.746094 186.039062 C 147.945312 185.945312 148.148438 185.828125 148.355469 185.78125 C 148.566406 185.734375 148.699219 185.542969 148.917969 185.53125 C 149.5 185.273438 150.082031 185.027344 150.675781 184.804688 C 150.714844 184.792969 150.757812 184.765625 150.796875 184.742188 C 151.121094 184.558594 151.464844 184.429688 151.816406 184.308594 C 151.941406 184.265625 152.0625 184.226562 152.175781 184.136719 C 152.273438 184.058594 152.414062 184.027344 152.546875 184.003906 C 152.820312 183.949219 153.070312 183.828125 153.3125 183.6875 C 153.347656 183.664062 153.394531 183.648438 153.433594 183.636719 C 153.902344 183.464844 154.375 183.296875 154.84375 183.121094 C 155.007812 183.0625 155.164062 182.960938 155.332031 182.921875 C 155.507812 182.886719 155.675781 182.839844 155.832031 182.753906 C 155.894531 182.722656 155.976562 182.730469 156.046875 182.707031 C 156.199219 182.65625 156.351562 182.597656 156.5 182.535156 C 156.640625 182.480469 156.773438 182.414062 156.910156 182.375 C 157.65625 182.191406 158.363281 181.894531 159.089844 181.65625 C 159.371094 181.566406 159.652344 181.484375 159.9375 181.421875 C 160.167969 181.371094 160.382812 181.277344 160.609375 181.222656 C 160.878906 181.152344 161.148438 181.132812 161.414062 181.050781 C 161.773438 180.9375 162.144531 180.957031 162.507812 180.964844 C 162.597656 180.964844 162.683594 180.964844 162.769531 181.007812 C 163.027344 181.136719 163.03125 181.179688 163.035156 181.421875 C 163.039062 181.613281 163.007812 181.78125 162.917969 181.949219 C 162.839844 182.09375 162.777344 182.246094 162.707031 182.394531 C 162.8125 182.464844 162.929688 182.457031 163.019531 182.421875 C 163.222656 182.339844 163.445312 182.320312 163.648438 182.21875 C 163.910156 182.089844 164.199219 182.015625 164.46875 181.886719 C 164.75 181.753906 165.042969 181.652344 165.320312 181.519531 C 165.746094 181.316406 166.175781 181.113281 166.617188 180.945312 C 166.628906 180.941406 166.648438 180.9375 166.65625 180.925781 C 166.816406 180.742188 167.03125 180.769531 167.238281 180.773438 C 167.28125 180.773438 167.320312 180.792969 167.371094 180.800781 C 167.316406 181.015625 167.222656 181.175781 167.023438 181.25 C 166.742188 181.34375 166.507812 181.535156 166.242188 181.65625 C 165.988281 181.78125 165.742188 181.925781 165.488281 182.042969 C 165.113281 182.21875 164.738281 182.398438 164.351562 182.542969 C 164.160156 182.613281 163.976562 182.714844 163.789062 182.804688 C 163.496094 182.941406 163.167969 182.972656 162.859375 183.066406 C 162.734375 183.101562 162.589844 183.085938 162.457031 183.074219 C 162.402344 183.070312 162.34375 183.039062 162.300781 183.007812 C 162.214844 182.945312 162.144531 182.859375 162.058594 182.808594 C 161.984375 182.761719 161.96875 182.699219 161.960938 182.621094 C 161.9375 182.375 162.003906 182.167969 162.171875 181.992188 C 162.234375 181.929688 162.300781 181.871094 162.328125 181.777344 C 162.34375 181.707031 162.414062 181.652344 162.378906 181.566406 C 162.363281 181.519531 162.152344 181.417969 162.109375 181.445312 C 161.957031 181.546875 161.792969 181.492188 161.628906 181.519531 C 161.445312 181.550781 161.261719 181.597656 161.074219 181.652344 C 160.511719 181.816406 159.929688 181.910156 159.386719 182.148438 C 159.191406 182.148438 159.007812 182.21875 158.839844 182.308594 C 158.71875 182.367188 158.566406 182.1875 158.484375 182.386719 C 158.347656 182.4375 158.210938 182.480469 158.070312 182.53125 C 157.945312 182.574219 157.820312 182.621094 157.695312 182.660156 C 157.402344 182.75 157.125 182.914062 156.808594 182.910156 C 156.730469 182.910156 156.679688 182.972656 156.621094 183.023438 C 156.574219 183.066406 156.523438 183.09375 156.460938 183.058594 C 156.421875 183.039062 156.386719 183.015625 156.339844 183.046875 C 156.09375 183.21875 155.816406 183.308594 155.539062 183.40625 C 154.957031 183.617188 154.382812 183.847656 153.792969 184.027344 C 153.734375 184.046875 153.683594 184.085938 153.628906 184.085938 C 153.5 184.085938 153.402344 184.128906 153.3125 184.222656 C 153.25 184.285156 153.179688 184.265625 153.113281 184.222656 C 153.054688 184.179688 152.992188 184.199219 152.949219 184.238281 C 152.863281 184.335938 152.757812 184.378906 152.632812 184.371094 C 152.554688 184.367188 152.5 184.429688 152.441406 184.480469 C 152.410156 184.507812 152.359375 184.546875 152.332031 184.539062 C 152.148438 184.464844 152.027344 184.566406 151.898438 184.671875 C 151.855469 184.707031 151.792969 184.734375 151.738281 184.734375 C 151.625 184.742188 151.53125 184.765625 151.457031 184.851562 C 151.375 184.941406 151.265625 184.914062 151.167969 184.933594 C 151.082031 184.949219 151.0625 185.144531 150.929688 185.03125 C 150.835938 185.070312 150.742188 185.109375 150.644531 185.148438 C 150.546875 185.1875 150.449219 185.21875 150.355469 185.261719 C 150.234375 185.3125 150.113281 185.371094 149.984375 185.40625 C 149.847656 185.449219 149.714844 185.527344 149.613281 185.652344 C 149.5625 185.722656 149.503906 185.734375 149.421875 185.6875 C 149.394531 185.671875 149.339844 185.691406 149.300781 185.707031 C 149.171875 185.753906 149.070312 185.835938 148.976562 185.941406 C 148.929688 186 148.859375 186.023438 148.78125 186.035156 C 148.363281 186.074219 148.292969 186.109375 147.90625 186.375 C 147.835938 186.425781 147.75 186.472656 147.664062 186.484375 C 147.570312 186.503906 147.488281 186.535156 147.4375 186.613281 C 147.351562 186.738281 147.222656 186.570312 147.167969 186.660156 C 147.097656 186.761719 147.050781 186.769531 146.953125 186.730469 C 146.875 186.695312 146.890625 186.820312 146.835938 186.828125 C 146.796875 186.839844 146.742188 186.800781 146.710938 186.820312 C 146.398438 186.992188 146.046875 187.070312 145.726562 187.214844 C 145.488281 187.328125 145.269531 187.496094 145 187.519531 C 144.957031 187.523438 144.90625 187.558594 144.886719 187.589844 C 144.804688 187.773438 144.605469 187.695312 144.488281 187.800781 C 144.378906 187.898438 144.246094 187.964844 144.089844 187.980469 C 144.046875 187.984375 144.011719 188.027344 143.972656 188.042969 C 143.773438 188.140625 143.570312 188.222656 143.351562 188.277344 C 143.058594 188.351562 142.777344 188.5 142.492188 188.621094 C 142.179688 188.753906 141.863281 188.890625 141.527344 188.917969 C 141.296875 188.9375 141.078125 188.972656 140.863281 189.046875 C 140.800781 189.070312 140.753906 189.042969 140.699219 189.015625 C 140.660156 188.996094 140.613281 188.996094 140.570312 188.988281 C 140.496094 188.972656 140.433594 189.085938 140.363281 189.019531 C 140.234375 188.894531 140.042969 188.855469 139.949219 188.679688 C 139.9375 188.65625 139.921875 188.613281 139.929688 188.597656 C 140.007812 188.417969 140.023438 188.214844 140.148438 188.054688 C 140.332031 187.816406 140.492188 187.558594 140.699219 187.34375 C 140.800781 187.234375 140.859375 187.09375 140.980469 187 C 141.085938 186.917969 141.132812 186.769531 141.21875 186.679688 C 141.519531 186.382812 141.777344 186.058594 142.050781 185.742188 C 142.304688 185.449219 142.613281 185.210938 142.808594 184.859375 C 142.910156 184.679688 143.105469 184.566406 143.191406 184.363281 C 143.242188 184.253906 143.332031 184.160156 143.371094 184.050781 C 143.398438 183.980469 143.503906 183.902344 143.402344 183.808594 C 143.324219 183.734375 143.269531 183.828125 143.199219 183.824219 C 142.820312 183.796875 142.488281 184.003906 142.121094 184.027344 C 141.808594 184.203125 141.46875 184.300781 141.132812 184.398438 C 140.859375 184.617188 140.515625 184.675781 140.21875 184.832031 C 139.914062 184.988281 139.609375 185.148438 139.300781 185.296875 C 139.140625 185.375 139 185.484375 138.8125 185.503906 C 138.746094 185.515625 138.65625 185.554688 138.621094 185.609375 C 138.507812 185.777344 138.351562 185.835938 138.175781 185.871094 C 138.148438 185.878906 138.121094 185.898438 138.097656 185.917969 C 137.789062 186.136719 137.453125 186.28125 137.128906 186.472656 C 137.054688 186.515625 136.988281 186.585938 136.90625 186.613281 C 136.679688 186.683594 136.5 186.851562 136.273438 186.914062 C 136.199219 186.929688 136.136719 186.957031 136.070312 186.917969 C 136.039062 186.898438 136.007812 186.902344 136 186.945312 C 135.964844 187.214844 135.710938 187.207031 135.550781 187.316406 C 135.445312 187.273438 135.382812 187.292969 135.320312 187.410156 C 135.265625 187.515625 135.160156 187.578125 135.042969 187.628906 C 134.855469 187.714844 134.667969 187.808594 134.488281 187.914062 C 133.964844 188.222656 133.414062 188.492188 132.894531 188.804688 C 132.496094 189.042969 132.0625 189.203125 131.699219 189.492188 C 131.511719 189.503906 131.394531 189.671875 131.226562 189.71875 C 131.148438 189.738281 131.074219 189.761719 131.039062 189.824219 C 130.964844 189.953125 130.808594 189.917969 130.726562 190.003906 C 130.640625 190.097656 130.535156 190.136719 130.429688 190.191406 C 130.316406 190.257812 130.242188 190.398438 130.082031 190.378906 C 129.875 190.574219 129.558594 190.574219 129.355469 190.796875 C 129.1875 190.847656 129.023438 190.90625 128.878906 191.027344 C 128.753906 191.132812 128.566406 191.121094 128.460938 191.261719 C 128.164062 191.3125 127.914062 191.476562 127.652344 191.597656 C 127.394531 191.710938 127.128906 191.804688 126.867188 191.894531 C 126.515625 192.019531 125.925781 192.078125 125.601562 192.019531 C 125.398438 191.984375 125.1875 191.9375 125.039062 191.78125 C 124.96875 191.707031 124.925781 191.648438 124.824219 191.707031 C 124.804688 191.714844 124.761719 191.710938 124.75 191.699219 C 124.679688 191.636719 124.621094 191.574219 124.558594 191.503906 C 124.445312 191.378906 124.316406 191.269531 124.230469 191.132812 C 124.160156 191.007812 124.25 190.828125 124.15625 190.691406 C 124.207031 190.621094 124.128906 190.519531 124.167969 190.484375 C 124.332031 190.339844 124.285156 190.148438 124.308594 189.972656 C 124.3125 189.917969 124.332031 189.851562 124.371094 189.808594 C 124.539062 189.59375 124.632812 189.332031 124.828125 189.140625 C 124.867188 189.097656 124.90625 189.042969 124.925781 188.992188 C 125.082031 188.679688 125.292969 188.40625 125.519531 188.144531 C 125.609375 188.042969 125.679688 187.929688 125.757812 187.820312 C 125.914062 187.578125 126.136719 187.40625 126.296875 187.171875 C 126.574219 186.761719 126.949219 186.433594 127.1875 185.992188 C 127.214844 185.941406 127.265625 185.894531 127.304688 185.855469 C 127.53125 185.632812 127.707031 185.371094 127.878906 185.109375 C 127.910156 185.058594 127.945312 185.007812 127.992188 184.964844 C 128.3125 184.6875 128.542969 184.332031 128.8125 184.003906 C 129.042969 183.722656 129.277344 183.453125 129.527344 183.191406 C 129.574219 183.136719 129.625 183.074219 129.65625 183.007812 C 129.71875 182.878906 129.8125 182.761719 129.921875 182.703125 C 130.167969 182.578125 130.265625 182.339844 130.390625 182.121094 C 130.464844 181.992188 130.542969 181.863281 130.644531 181.75 C 130.816406 181.566406 130.957031 181.355469 131.058594 181.085938 C 130.859375 181.078125 130.703125 181.058594 130.542969 181.203125 C 130.398438 181.328125 130.222656 181.410156 130.007812 181.316406 C 129.886719 181.265625 129.753906 181.355469 129.707031 181.449219 C 129.625 181.640625 129.496094 181.730469 129.308594 181.765625 C 129.09375 181.957031 128.820312 182.050781 128.570312 182.183594 C 128.386719 182.277344 128.199219 182.359375 128.023438 182.457031 C 127.84375 182.558594 127.652344 182.628906 127.472656 182.738281 C 127.363281 182.808594 127.238281 182.859375 127.113281 182.914062 C 127.03125 182.949219 126.949219 182.980469 126.867188 183.015625 C 126.652344 183.117188 126.464844 183.257812 126.242188 183.347656 C 126.039062 183.425781 125.859375 183.566406 125.664062 183.671875 C 125.453125 183.789062 125.242188 183.898438 125.03125 184.007812 C 124.832031 184.109375 124.628906 184.207031 124.433594 184.308594 C 124.222656 184.417969 124.007812 184.523438 123.804688 184.644531 C 123.523438 184.808594 123.257812 185.011719 122.964844 185.140625 C 122.714844 185.25 122.527344 185.441406 122.289062 185.566406 C 122.054688 185.6875 121.832031 185.835938 121.59375 185.960938 C 121.386719 186.066406 121.199219 186.21875 121 186.355469 C 120.9375 186.402344 120.816406 186.296875 120.800781 186.441406 C 120.710938 186.492188 120.617188 186.542969 120.535156 186.601562 C 120.457031 186.648438 120.390625 186.710938 120.320312 186.761719 C 120.234375 186.820312 120.148438 186.878906 120.0625 186.9375 C 119.984375 186.980469 119.898438 187.015625 119.824219 187.058594 C 119.734375 187.113281 119.65625 187.183594 119.566406 187.238281 C 119.488281 187.285156 119.394531 187.308594 119.328125 187.363281 C 118.996094 187.644531 118.601562 187.824219 118.222656 188.027344 C 118.105469 188.089844 118.003906 188.1875 117.882812 188.242188 C 117.75 188.300781 117.671875 188.46875 117.496094 188.445312 C 117.429688 188.578125 117.304688 188.625 117.179688 188.65625 C 116.972656 188.882812 116.703125 189.011719 116.464844 189.191406 C 116.300781 189.316406 116.117188 189.414062 115.945312 189.53125 C 115.882812 189.570312 115.816406 189.605469 115.761719 189.65625 C 115.632812 189.777344 115.503906 189.898438 115.304688 189.851562 C 115.203125 189.914062 115.074219 189.9375 115.035156 190.070312 C 115 190.179688 114.917969 190.242188 114.84375 190.316406 C 114.789062 190.367188 114.699219 190.253906 114.664062 190.371094 C 114.632812 190.472656 114.519531 190.46875 114.457031 190.535156 C 114.410156 190.589844 114.320312 190.605469 114.28125 190.664062 C 114.207031 190.773438 114.128906 190.84375 113.992188 190.828125 C 113.929688 190.824219 113.882812 190.863281 113.871094 190.9375 C 113.859375 191 113.847656 191.054688 113.789062 191.089844 C 113.40625 191.320312 113.113281 191.675781 112.742188 191.921875 C 112.5 192.089844 112.285156 192.308594 111.996094 192.398438 C 111.96875 192.40625 111.929688 192.429688 111.929688 192.441406 C 111.929688 192.683594 111.710938 192.65625 111.589844 192.734375 C 111.515625 192.777344 111.433594 192.820312 111.375 192.894531 C 111.257812 193.042969 111.15625 193.222656 111.011719 193.335938 C 110.867188 193.445312 110.730469 193.558594 110.601562 193.679688 C 110.589844 193.691406 110.578125 193.707031 110.570312 193.707031 C 110.546875 193.714844 110.519531 193.707031 110.496094 193.703125 C 110.488281 193.699219 110.480469 193.679688 110.480469 193.664062 C 110.472656 193.558594 110.464844 193.445312 110.550781 193.363281 C 110.636719 193.28125 110.707031 193.171875 110.804688 193.105469 C 111.050781 192.953125 111.234375 192.734375 111.4375 192.535156 C 111.460938 192.511719 111.480469 192.484375 111.5 192.472656 C 111.707031 192.371094 111.816406 192.167969 111.984375 192.023438 C 112.015625 191.996094 112.035156 191.945312 112.074219 191.9375 C 112.152344 191.910156 112.257812 191.917969 112.191406 191.777344 C 112.191406 191.777344 112.546875 191.464844 112.550781 191.464844 C 112.589844 191.449219 112.648438 191.445312 112.664062 191.414062 C 112.734375 191.320312 112.75 191.167969 112.917969 191.242188 C 112.976562 191.15625 113.039062 191.070312 113.160156 191.082031 C 113.347656 190.921875 113.609375 190.84375 113.710938 190.570312 C 113.726562 190.519531 113.796875 190.460938 113.84375 190.460938 C 114 190.460938 114.078125 190.34375 114.175781 190.253906 C 114.230469 190.203125 114.28125 190.136719 114.34375 190.101562 C 114.734375 189.886719 115.039062 189.554688 115.390625 189.28125 C 115.664062 189.074219 115.914062 188.835938 116.214844 188.679688 C 116.320312 188.503906 116.546875 188.554688 116.667969 188.414062 C 116.785156 188.273438 116.925781 188.164062 117.082031 188.078125 C 117.121094 188.054688 117.148438 188.011719 117.183594 187.992188 C 117.652344 187.769531 118.070312 187.449219 118.507812 187.175781 C 118.820312 187.101562 119.011719 186.8125 119.308594 186.707031 C 119.382812 186.59375 119.53125 186.617188 119.613281 186.550781 C 119.773438 186.421875 119.972656 186.363281 120.117188 186.214844 C 120.222656 186.105469 120.355469 186.035156 120.488281 185.964844 C 120.664062 185.871094 120.820312 185.777344 120.96875 185.648438 C 121.140625 185.503906 121.351562 185.417969 121.53125 185.289062 C 121.703125 185.164062 121.878906 185.058594 122.066406 184.964844 C 122.242188 184.878906 122.398438 184.769531 122.5625 184.667969 C 122.964844 184.410156 123.375 184.175781 123.789062 183.941406 C 124.472656 183.550781 125.167969 183.179688 125.867188 182.816406 C 126.234375 182.628906 126.585938 182.40625 126.953125 182.21875 C 127.320312 182.03125 127.6875 181.824219 128.0625 181.648438 C 128.433594 181.472656 128.792969 181.277344 129.1875 181.144531 C 129.292969 181.105469 129.386719 181.019531 129.488281 180.964844 C 130.0625 180.640625 130.671875 180.421875 131.300781 180.265625 C 131.496094 180.214844 131.714844 180.246094 131.921875 180.246094 C 132.023438 180.246094 132.109375 180.394531 132.09375 180.511719 C 132.058594 180.839844 131.917969 181.128906 131.753906 181.394531 C 131.5 181.859375 131.175781 182.3125 130.835938 182.753906 C 130.800781 182.800781 130.753906 182.839844 130.710938 182.882812 C 130.449219 183.152344 130.234375 183.457031 130.015625 183.765625 C 130 183.789062 129.984375 183.816406 129.960938 183.839844 C 129.664062 184.113281 129.449219 184.46875 129.171875 184.769531 C 128.933594 185.03125 128.703125 185.3125 128.496094 185.605469 C 128.320312 185.851562 128.121094 186.074219 127.929688 186.308594 C 127.777344 186.5 127.625 186.683594 127.472656 186.871094 C 127.371094 187 127.28125 187.136719 127.175781 187.265625 C 127.066406 187.390625 126.957031 187.507812 126.867188 187.652344 C 126.785156 187.785156 126.609375 187.847656 126.558594 188.023438 C 126.507812 188.207031 126.3125 188.289062 126.230469 188.449219 C 126.148438 188.601562 126.015625 188.703125 125.925781 188.839844 C 125.648438 189.269531 125.296875 189.640625 125.09375 190.125 C 125.015625 190.300781 125.082031 190.492188 124.980469 190.652344 C 125.003906 190.773438 125.019531 190.886719 125.050781 191.003906 C 125.0625 191.035156 125.113281 191.0625 125.148438 191.070312 C 125.332031 191.117188 125.523438 191.140625 125.707031 191.207031 C 125.945312 191.289062 126.167969 191.289062 126.398438 191.207031 C 126.496094 191.171875 126.597656 191.164062 126.699219 191.140625 C 126.96875 191.070312 127.234375 190.976562 127.476562 190.832031 C 127.589844 190.769531 127.726562 190.746094 127.847656 190.6875 C 128.085938 190.5625 128.332031 190.46875 128.5625 190.332031 C 128.945312 190.105469 129.351562 189.914062 129.742188 189.707031 C 130.148438 189.492188 130.550781 189.269531 130.933594 189.007812 C 130.957031 188.988281 130.988281 188.980469 131.015625 188.964844 C 131.5625 188.664062 132.113281 188.367188 132.65625 188.0625 C 132.824219 187.972656 132.980469 187.835938 133.15625 187.78125 C 133.347656 187.71875 133.5 187.617188 133.660156 187.5 C 133.695312 187.472656 133.742188 187.460938 133.78125 187.441406 C 134.035156 187.320312 134.285156 187.199219 134.527344 187.054688 C 134.769531 186.914062 135.03125 186.800781 135.273438 186.664062 C 135.527344 186.523438 135.839844 186.476562 136.042969 186.230469 C 136.300781 186.203125 136.457031 185.960938 136.714844 185.910156 C 136.863281 185.882812 136.992188 185.738281 137.136719 185.664062 C 137.957031 185.242188 138.773438 184.816406 139.597656 184.398438 C 139.941406 184.230469 140.296875 184.085938 140.652344 183.945312 C 141.039062 183.796875 141.417969 183.628906 141.8125 183.523438 C 142.054688 183.457031 142.300781 183.402344 142.535156 183.335938 C 142.976562 183.21875 143.417969 183.273438 143.859375 183.257812 C 144.003906 183.253906 144.03125 183.296875 143.976562 183.453125 C 143.953125 183.515625 143.949219 183.578125 144.003906 183.609375 C 144.074219 183.648438 144.121094 183.6875 144.089844 183.785156 C 143.949219 184.226562 143.746094 184.621094 143.414062 184.941406 C 143.40625 184.953125 143.394531 184.960938 143.382812 184.976562 C 143.316406 185.070312 143.25 185.171875 143.179688 185.269531 C 143.113281 185.367188 142.960938 185.378906 142.933594 185.519531 C 142.617188 185.839844 142.390625 186.246094 142.046875 186.539062 C 141.875 186.6875 141.722656 186.84375 141.613281 187.042969 C 141.574219 187.121094 141.511719 187.191406 141.445312 187.253906 C 141.195312 187.472656 141.007812 187.75 140.808594 188.015625 C 140.722656 188.15625 140.660156 188.316406 140.582031 188.457031 Z M 140.582031 188.457031 " fill-opacity="1" fill-rule="nonzero"/></g><g fill="#000000" fill-opacity="1"><g transform="translate(63.358913, 216.594883)"><g><path d="M 11 -15.734375 C 9.421875 -17.164062 7.535156 -17.824219 5.5 -18.207031 C 5.296875 -18.257812 5.066406 -18.28125 4.863281 -18.332031 C 3.640625 -18.539062 2.035156 -18.5625 1.933594 -16.984375 C 1.605469 -12.351562 1.402344 -7.714844 1.273438 -3.082031 C 1.246094 -2.265625 1.933594 -1.527344 2.722656 -1.425781 C 3.308594 -1.324219 3.921875 -1.503906 4.507812 -1.679688 C 6.542969 -2.367188 9.015625 -3.15625 10.667969 -4.558594 C 12.171875 -5.855469 13.292969 -7.589844 13.519531 -9.574219 C 13.800781 -11.941406 12.730469 -14.183594 11 -15.734375 Z M 9.574219 -9.34375 C 8.859375 -7.332031 7.027344 -6.59375 5.144531 -5.984375 C 5.246094 -8.757812 5.398438 -11.535156 5.550781 -14.285156 C 7.917969 -13.777344 10.566406 -12.121094 9.574219 -9.34375 Z M 9.574219 -9.34375 "/></g></g></g><g fill="#000000" fill-opacity="1"><g transform="translate(78.229139, 216.594883)"><g><path d="M 1.828125 -6.296875 C 1.828125 -6.921875 1.976562 -7.359375 2.28125 -7.609375 C 2.59375 -7.867188 2.960938 -8 3.390625 -8 C 3.816406 -8 4.1875 -7.867188 4.5 -7.609375 C 4.820312 -7.359375 4.984375 -6.921875 4.984375 -6.296875 C 4.984375 -5.679688 4.820312 -5.238281 4.5 -4.96875 C 4.1875 -4.695312 3.816406 -4.5625 3.390625 -4.5625 C 2.960938 -4.5625 2.59375 -4.695312 2.28125 -4.96875 C 1.976562 -5.238281 1.828125 -5.679688 1.828125 -6.296875 Z M 1.828125 -6.296875 "/></g></g></g><g fill="#ffffff" fill-opacity="1"><g transform="translate(85.058203, 216.594883)"><g><path d="M 14.464844 -2.367188 C 13.0625 -4.304688 11.457031 -6.007812 9.625 -7.484375 C 11 -8.453125 12.144531 -9.777344 12.628906 -11.230469 C 13.597656 -14.15625 11 -16.984375 8.046875 -16.855469 C 4.914062 -16.730469 2.851562 -13.828125 2.292969 -11 C 1.554688 -7.332031 1.554688 -3.410156 1.273438 0.304688 C 1.070312 2.75 4.890625 2.722656 5.09375 0.304688 C 5.246094 -1.730469 5.398438 -3.742188 5.578125 -5.753906 C 7.742188 -4.328125 9.625 -2.546875 11.179688 -0.433594 C 12.605469 1.527344 15.941406 -0.382812 14.464844 -2.367188 Z M 7.664062 -10.871094 C 7.128906 -10.390625 6.621094 -10.03125 5.957031 -9.929688 C 6.035156 -10.363281 6.136719 -10.796875 6.316406 -11.203125 C 6.492188 -11.714844 8.65625 -14.308594 9.015625 -12.578125 C 9.117188 -12.144531 7.96875 -11.128906 7.664062 -10.871094 Z M 7.664062 -10.871094 "/></g></g></g><g fill="#ffffff" fill-opacity="1"><g transform="translate(101.1761, 216.594883)"><g><path d="M 1.828125 -6.296875 C 1.828125 -6.921875 1.976562 -7.359375 2.28125 -7.609375 C 2.59375 -7.867188 2.960938 -8 3.390625 -8 C 3.816406 -8 4.1875 -7.867188 4.5 -7.609375 C 4.820312 -7.359375 4.984375 -6.921875 4.984375 -6.296875 C 4.984375 -5.679688 4.820312 -5.238281 4.5 -4.96875 C 4.1875 -4.695312 3.816406 -4.5625 3.390625 -4.5625 C 2.960938 -4.5625 2.59375 -4.695312 2.28125 -4.96875 C 1.976562 -5.238281 1.828125 -5.679688 1.828125 -6.296875 Z M 1.828125 -6.296875 "/></g></g></g><g fill="#ffffff" fill-opacity="1"><g transform="translate(108.000106, 216.594883)"><g><path d="M 14.15625 -15.53125 C 12.070312 -18.96875 6.621094 -19.402344 3.894531 -16.628906 C 1.222656 -14.335938 0.839844 -9.015625 1.605469 -6.035156 C 2.140625 -3.996094 3.488281 -1.859375 5.578125 -1.195312 C 7.742188 -0.484375 10.132812 -1.273438 11.839844 -2.671875 C 13.570312 -4.125 14.640625 -6.238281 14.996094 -8.453125 C 15.328125 -10.644531 15.355469 -13.570312 14.15625 -15.53125 Z M 9.523438 -5.628906 C 9.445312 -5.578125 9.394531 -5.527344 9.320312 -5.449219 C 8.503906 -4.761719 7.207031 -4.480469 6.339844 -5.144531 C 5.78125 -5.550781 5.527344 -6.238281 5.347656 -6.902344 C 5.09375 -7.996094 5.042969 -9.140625 5.167969 -10.261719 C 5.296875 -11.28125 5.550781 -12.578125 6.136719 -13.417969 C 6.671875 -14.15625 7.5625 -14.617188 8.480469 -14.640625 C 10.058594 -14.667969 11.078125 -13.597656 11.253906 -12.121094 C 11.558594 -9.878906 11.230469 -7.257812 9.523438 -5.628906 Z M 9.523438 -5.628906 "/></g></g></g><g fill="#ffffff" fill-opacity="1"><g transform="translate(124.474484, 216.594883)"><g><path d="M 1.828125 -6.296875 C 1.828125 -6.921875 1.976562 -7.359375 2.28125 -7.609375 C 2.59375 -7.867188 2.960938 -8 3.390625 -8 C 3.816406 -8 4.1875 -7.867188 4.5 -7.609375 C 4.820312 -7.359375 4.984375 -6.921875 4.984375 -6.296875 C 4.984375 -5.679688 4.820312 -5.238281 4.5 -4.96875 C 4.1875 -4.695312 3.816406 -4.5625 3.390625 -4.5625 C 2.960938 -4.5625 2.59375 -4.695312 2.28125 -4.96875 C 1.976562 -5.238281 1.828125 -5.679688 1.828125 -6.296875 Z M 1.828125 -6.296875 "/></g></g></g><g fill="#ffffff" fill-opacity="1"><g transform="translate(131.29849, 216.594883)"><g><path d="M 2.417969 -15.660156 C 1.910156 -11.078125 1.527344 -6.46875 1.273438 -1.832031 C 1.121094 0.609375 4.941406 0.609375 5.09375 -1.832031 C 5.347656 -6.46875 5.730469 -11.078125 6.238281 -15.660156 C 6.492188 -18.105469 2.671875 -18.078125 2.417969 -15.660156 Z M 2.417969 -15.660156 "/></g></g></g><g fill="#ffffff" fill-opacity="1"><g transform="translate(138.835451, 216.594883)"><g><path d="M 1.828125 -6.296875 C 1.828125 -6.921875 1.976562 -7.359375 2.28125 -7.609375 C 2.59375 -7.867188 2.960938 -8 3.390625 -8 C 3.816406 -8 4.1875 -7.867188 4.5 -7.609375 C 4.820312 -7.359375 4.984375 -6.921875 4.984375 -6.296875 C 4.984375 -5.679688 4.820312 -5.238281 4.5 -4.96875 C 4.1875 -4.695312 3.816406 -4.5625 3.390625 -4.5625 C 2.960938 -4.5625 2.59375 -4.695312 2.28125 -4.96875 C 1.976562 -5.238281 1.828125 -5.679688 1.828125 -6.296875 Z M 1.828125 -6.296875 "/></g></g></g><g fill="#000000" fill-opacity="1"><g transform="translate(145.662659, 216.594883)"><g><path d="M 11.585938 -17.492188 C 8.757812 -17.851562 5.933594 -17.902344 3.082031 -17.59375 C 0.660156 -17.367188 0.636719 -13.546875 3.082031 -13.800781 C 3.84375 -13.878906 4.582031 -13.902344 5.320312 -13.953125 C 5.09375 -10.210938 4.890625 -6.492188 4.660156 -2.777344 C 4.507812 -0.304688 8.328125 -0.332031 8.480469 -2.777344 C 8.707031 -6.46875 8.914062 -10.183594 9.140625 -13.902344 C 9.957031 -13.851562 10.769531 -13.777344 11.585938 -13.671875 C 14.03125 -13.34375 14.003906 -17.164062 11.585938 -17.492188 Z M 11.585938 -17.492188 "/></g></g></g><g fill="#000000" fill-opacity="1"><g transform="translate(160.354645, 216.594883)"><g><path d="M 4.839844 -3.871094 C 4.457031 -4.203125 3.996094 -4.429688 3.488281 -4.429688 L 3.183594 -4.429688 C 2.671875 -4.429688 2.164062 -4.203125 1.832031 -3.871094 C 1.476562 -3.539062 1.246094 -2.980469 1.273438 -2.519531 C 1.273438 -2.011719 1.453125 -1.503906 1.832031 -1.171875 C 2.191406 -0.816406 2.648438 -0.609375 3.183594 -0.609375 L 3.488281 -0.609375 C 3.972656 -0.609375 4.480469 -0.816406 4.839844 -1.171875 C 5.167969 -1.503906 5.421875 -2.035156 5.398438 -2.519531 C 5.371094 -3.003906 5.21875 -3.515625 4.839844 -3.871094 Z M 4.839844 -3.871094 "/></g></g></g><g fill="#000000" fill-opacity="1"><g transform="translate(47.189684, 194.826898)"><g><path d="M 10.753906 -7.835938 C 10.480469 -9.210938 9.988281 -10.871094 8.699219 -11.628906 C 7.277344 -12.476562 6.199219 -11.683594 5.484375 -10.417969 C 5.445312 -10.460938 5.386719 -10.515625 5.339844 -10.574219 C 4.238281 -11.726562 2.453125 -11.292969 1.597656 -10.082031 C 0.683594 -8.765625 0.453125 -6.851562 0.398438 -5.300781 C 0.355469 -3.605469 0.558594 -1.90625 0.777344 -0.226562 C 0.96875 1.308594 3.339844 0.863281 3.152344 -0.671875 C 2.886719 -2.6875 2.632812 -4.738281 2.957031 -6.765625 C 3.039062 -7.207031 3.136719 -7.652344 3.300781 -8.09375 C 3.355469 -8.234375 3.480469 -8.699219 3.660156 -8.78125 C 3.660156 -8.78125 3.675781 -8.785156 3.675781 -8.800781 C 3.679688 -8.769531 3.683594 -8.753906 3.722656 -8.726562 C 3.957031 -8.511719 4.035156 -7.753906 4.105469 -7.457031 C 4.230469 -6.890625 4.308594 -6.296875 4.351562 -5.714844 C 4.472656 -4.378906 6.777344 -4.484375 6.753906 -5.839844 C 6.71875 -6.71875 6.839844 -7.558594 7.164062 -8.375 C 7.28125 -8.625 7.574219 -8.976562 7.730469 -9.285156 C 7.808594 -9.035156 7.984375 -8.808594 8.0625 -8.558594 C 8.835938 -6.542969 8.859375 -4.136719 9.050781 -1.992188 C 9.175781 -0.445312 11.546875 -0.90625 11.421875 -2.4375 C 11.265625 -4.246094 11.121094 -6.070312 10.753906 -7.835938 Z M 10.753906 -7.835938 "/></g></g></g><g fill="#000000" fill-opacity="1"><g transform="translate(59.804859, 192.459695)"><g><path d="M 6.988281 -11.308594 C 5.289062 -13.203125 1.851562 -12.835938 0.480469 -10.792969 C -0.914062 -9.054688 -0.527344 -5.703125 0.292969 -3.9375 C 0.863281 -2.734375 1.953125 -1.5625 3.328125 -1.394531 C 4.757812 -1.203125 6.152344 -1.972656 7.050781 -3.042969 C 7.957031 -4.148438 8.375 -5.585938 8.339844 -7.003906 C 8.289062 -8.40625 7.960938 -10.230469 6.988281 -11.308594 Z M 5.265625 -4.609375 C 5.222656 -4.570312 5.195312 -4.53125 5.160156 -4.476562 C 4.730469 -3.953125 3.957031 -3.625 3.339844 -3.9375 C 2.945312 -4.125 2.707031 -4.523438 2.519531 -4.914062 C 2.234375 -5.566406 2.066406 -6.269531 2.015625 -6.984375 C 1.976562 -7.628906 1.984375 -8.46875 2.25 -9.058594 C 2.496094 -9.578125 2.996094 -9.96875 3.5625 -10.089844 C 4.542969 -10.292969 5.300781 -9.746094 5.582031 -8.847656 C 6.035156 -7.492188 6.132812 -5.820312 5.265625 -4.609375 Z M 5.265625 -4.609375 "/></g></g></g><g fill="#000000" fill-opacity="1"><g transform="translate(70.045786, 190.538013)"><g><path d="M 5.167969 -10.882812 C 5.234375 -9.128906 5.253906 -7.378906 5.253906 -5.625 L 3.242188 -8.574219 C 2.644531 -9.476562 1.207031 -8.847656 1.125 -7.882812 C 0.925781 -5.285156 0.820312 -2.695312 0.820312 -0.0898438 C 0.8125 1.453125 3.230469 1.671875 3.234375 0.113281 C 3.226562 -1.328125 3.269531 -2.761719 3.324219 -4.195312 C 4.050781 -3.136719 4.757812 -2.074219 5.476562 -1.027344 C 6.066406 -0.15625 7.566406 -0.730469 7.59375 -1.703125 C 7.6875 -4.703125 7.6875 -7.6875 7.566406 -10.679688 C 7.507812 -12.222656 5.09375 -12.425781 5.167969 -10.882812 Z M 5.167969 -10.882812 "/></g></g></g><path stroke-linecap="butt" transform="matrix(0.502607, 0, 0, 0.502607, 42.918282, 191.078894)" fill="none" stroke-linejoin="miter" d="M 112.327789 45.285792 C 109.529876 41.438662 106.343365 38.042308 102.690535 35.112272 C 105.426271 33.177049 107.711233 30.542348 108.682731 27.666716 C 110.594637 21.837731 105.426271 16.210819 99.550655 16.459522 C 93.333072 16.715997 89.221695 22.490578 88.110302 28.11749 C 86.641398 35.407607 86.641398 43.210674 86.081816 50.609598 C 85.677673 55.467085 93.270896 55.420453 93.675039 50.609598 C 93.985918 46.552625 94.281253 42.557827 94.638764 38.547486 C 98.944441 41.392031 102.690535 44.928281 105.783782 49.132922 C 108.628327 53.042227 115.257825 49.241729 112.327789 45.285792 Z M 98.796773 28.366194 C 97.732012 29.329919 96.721655 30.037169 95.392646 30.247013 C 95.555858 29.384323 95.757929 28.513861 96.11544 27.713347 C 96.457408 26.695218 100.778628 21.526852 101.478106 24.977611 C 101.680177 25.832529 99.402988 27.861015 98.796773 28.366194 Z M 98.796773 28.366194 " stroke="#000000" stroke-width="1.900001" stroke-opacity="1" stroke-miterlimit="4"/><path stroke-linecap="butt" transform="matrix(0.502607, 0, 0, 0.502607, 42.918282, 191.078894)" fill="none" stroke-linejoin="miter" d="M 119.260394 37.482725 C 119.260394 36.231437 119.563501 35.353203 120.161944 34.848024 C 120.77593 34.335074 121.506496 34.078598 122.353642 34.078598 C 123.193015 34.078598 123.939125 34.335074 124.576428 34.848024 C 125.221502 35.353203 125.540153 36.231437 125.540153 37.482725 C 125.540153 38.695154 125.221502 39.573387 124.576428 40.117426 C 123.939125 40.653693 123.193015 40.91794 122.353642 40.91794 C 121.506496 40.91794 120.77593 40.653693 120.161944 40.117426 C 119.563501 39.573387 119.260394 38.695154 119.260394 37.482725 Z M 119.260394 37.482725 " stroke="#000000" stroke-width="1.900001" stroke-opacity="1" stroke-miterlimit="4"/><path stroke-linecap="butt" transform="matrix(0.502607, 0, 0, 0.502607, 42.918282, 191.078894)" fill="none" stroke-linejoin="miter" d="M 157.350863 19.094223 C 153.208398 12.254881 142.358716 11.399964 136.941646 16.918069 C 131.625613 21.48022 130.856187 32.065656 132.379495 37.987904 C 133.444256 42.044877 136.125589 46.303921 140.283597 47.609614 C 144.589274 49.031886 149.345725 47.461946 152.749852 44.679578 C 156.185066 41.788402 158.314589 37.583761 159.029611 33.177049 C 159.690229 28.82474 159.736861 23.003528 157.350863 19.094223 Z M 148.133296 38.803962 C 147.985629 38.904997 147.876821 39.006033 147.729153 39.153701 C 146.10481 40.529341 143.524513 41.081151 141.806905 39.767687 C 140.68774 38.951629 140.182562 37.583761 139.825051 36.270296 C 139.319872 34.094142 139.218836 31.816952 139.46754 29.578622 C 139.724015 27.550136 140.229193 24.977611 141.39499 23.298863 C 142.459751 21.837731 144.239535 20.920638 146.058178 20.874006 C 149.198057 20.827374 151.226544 22.949124 151.576283 25.87916 C 152.190269 30.348048 151.521879 35.563046 148.133296 38.803962 Z M 148.133296 38.803962 " stroke="#000000" stroke-width="1.900001" stroke-opacity="1" stroke-miterlimit="4"/><path stroke-linecap="butt" transform="matrix(0.502607, 0, 0, 0.502607, 42.918282, 191.078894)" fill="none" stroke-linejoin="miter" d="M 165.612477 37.482725 C 165.612477 36.231437 165.915584 35.353203 166.514027 34.848024 C 167.128013 34.335074 167.850807 34.078598 168.705725 34.078598 C 169.545098 34.078598 170.283436 34.335074 170.928511 34.848024 C 171.573585 35.353203 171.892236 36.231437 171.892236 37.482725 C 171.892236 38.695154 171.573585 39.573387 170.928511 40.117426 C 170.283436 40.653693 169.545098 40.91794 168.705725 40.91794 C 167.850807 40.91794 167.128013 40.653693 166.514027 40.117426 C 165.915584 39.573387 165.612477 38.695154 165.612477 37.482725 Z M 165.612477 37.482725 " stroke="#000000" stroke-width="1.900001" stroke-opacity="1" stroke-miterlimit="4"/><path stroke-linecap="butt" transform="matrix(0.502607, 0, 0, 0.502607, 42.918282, 191.078894)" fill="none" stroke-linejoin="miter" d="M 180.348149 18.845519 C 179.337792 27.962051 178.58391 37.140758 178.070959 46.350553 C 177.767852 51.215812 185.368848 51.215812 185.671955 46.350553 C 186.177133 37.140758 186.938787 27.962051 187.956917 18.845519 C 188.454323 13.980261 180.853328 14.034664 180.348149 18.845519 Z M 180.348149 18.845519 " stroke="#000000" stroke-width="1.900001" stroke-opacity="1" stroke-miterlimit="4"/><path stroke-linecap="butt" transform="matrix(0.502607, 0, 0, 0.502607, 42.918282, 191.078894)" fill="none" stroke-linejoin="miter" d="M 194.182272 37.482725 C 194.182272 36.231437 194.485379 35.353203 195.083821 34.848024 C 195.697808 34.335074 196.420602 34.078598 197.27552 34.078598 C 198.114893 34.078598 198.853231 34.335074 199.498306 34.848024 C 200.14338 35.353203 200.462031 36.231437 200.462031 37.482725 C 200.462031 38.695154 200.14338 39.573387 199.498306 40.117426 C 198.853231 40.653693 198.114893 40.91794 197.27552 40.91794 C 196.420602 40.91794 195.697808 40.653693 195.083821 40.117426 C 194.485379 39.573387 194.182272 38.695154 194.182272 37.482725 Z M 194.182272 37.482725 " stroke="#000000" stroke-width="1.900001" stroke-opacity="1" stroke-miterlimit="4"/></svg>