<svg xmlns="http://www.w3.org/2000/svg" xmlns:xlink="http://www.w3.org/1999/xlink" width="500" zoomAndPan="magnify" viewBox="0 0 375 374.999991" height="500" preserveAspectRatio="xMidYMid meet" version="1.0"><defs><g/><clipPath id="5ebec85f54"><path d="M 96.386719 92 L 202.875 92 L 202.875 200.773438 L 96.386719 200.773438 Z M 96.386719 92 " clip-rule="nonzero"/></clipPath><clipPath id="4442f89781"><path d="M 203 171.230469 L 331.128906 171.230469 L 331.128906 200.480469 L 203 200.480469 Z M 203 171.230469 " clip-rule="nonzero"/></clipPath></defs><path fill="#f6cd47" d="M 76.828125 76.660156 C 107.726562 62.929688 213.734375 93.367188 235.429688 130.078125 C 257.128906 166.785156 258.820312 191.871094 245.457031 228.625 C 232.089844 265.378906 198.859375 292.066406 165.398438 297.054688 C 131.9375 302.042969 83.511719 312.070312 53.4375 275.359375 C 23.367188 238.648438 11.695312 235.261719 10.046875 220.25 C 8.398438 205.234375 0.0234375 158.5 21.71875 125.085938 C 43.414062 91.671875 46.757812 90.027344 76.828125 76.660156 Z M 76.828125 76.660156 " fill-opacity="1" fill-rule="nonzero"/><g clip-path="url(#5ebec85f54)"><path fill="#000000" d="M 201.007812 198.808594 C 200.09375 199.398438 198.621094 197.121094 198.0625 197.414062 C 198.332031 197.273438 198.589844 197.121094 198.84375 196.949219 C 199.238281 196.683594 199.597656 196.378906 199.914062 196.046875 C 200.324219 196.558594 201.738281 198.003906 201.167969 198.660156 C 201.121094 198.722656 201.0625 198.765625 201.007812 198.808594 Z M 191.472656 193.117188 C 191.488281 193.097656 191.488281 193.082031 191.5 193.0625 C 191.804688 192.40625 192.414062 191.5625 193.25 190.777344 C 194.105469 189.996094 195.003906 189.402344 195.6875 188.980469 C 195.84375 188.882812 195.976562 188.808594 196.09375 188.734375 C 196.890625 190.523438 197.320312 191.503906 197.320312 191.503906 C 197.875 192.71875 199.460938 195.195312 197.121094 195.566406 C 195.832031 195.773438 194.296875 194.640625 193.222656 194.066406 C 193.210938 194.066406 192.925781 193.910156 192.351562 193.609375 C 192.117188 193.480469 191.8125 193.308594 191.472656 193.117188 Z M 169.464844 177.621094 C 169.199219 177.390625 168.941406 177.15625 168.675781 176.917969 C 168.71875 176.824219 168.761719 176.726562 168.816406 176.605469 C 168.90625 176.394531 169.027344 176.132812 169.160156 175.835938 C 169.328125 175.550781 169.515625 175.222656 169.730469 174.859375 C 169.941406 174.5 170.167969 174.101562 170.441406 173.683594 C 170.730469 173.285156 171.042969 172.851562 171.371094 172.402344 C 172.003906 171.488281 172.867188 170.601562 173.722656 169.644531 C 174.179688 169.199219 174.644531 168.777344 175.089844 168.363281 C 175.316406 168.164062 175.539062 167.964844 175.757812 167.773438 C 175.984375 167.59375 176.214844 167.421875 176.433594 167.25 C 176.878906 166.917969 177.300781 166.605469 177.699219 166.304688 C 178.105469 166.03125 178.503906 165.808594 178.863281 165.589844 C 179.21875 165.375 179.546875 165.1875 179.832031 165.015625 C 180.121094 164.878906 180.386719 164.769531 180.589844 164.679688 C 181.011719 164.496094 181.242188 164.398438 181.242188 164.398438 C 181.308594 164.367188 181.355469 164.3125 181.394531 164.261719 C 182.222656 165.296875 183.039062 166.320312 183.828125 167.304688 C 185.789062 170.011719 187.648438 172.519531 189.121094 174.9375 C 191.851562 179.4375 193.675781 183.386719 195.003906 186.261719 C 194.988281 186.269531 194.96875 186.269531 194.960938 186.285156 C 194.960938 186.285156 194.757812 186.582031 194.277344 187.113281 C 193.800781 187.644531 193.027344 188.394531 191.953125 189.378906 C 190.878906 190.367188 190.066406 191.203125 189.53125 191.796875 C 189.484375 191.839844 189.449219 191.882812 189.414062 191.914062 C 188.371094 191.3125 187.113281 190.613281 185.691406 189.675781 C 184.882812 189.160156 184.007812 188.601562 183.066406 187.996094 C 182.109375 187.414062 181.15625 186.6875 180.109375 185.96875 C 177.992188 184.546875 175.75 182.777344 173.25 180.835938 C 172.046875 179.8125 170.785156 178.746094 169.464844 177.621094 Z M 161.476562 169.863281 C 161.519531 169.785156 161.632812 169.585938 161.8125 169.289062 C 161.933594 169.089844 162.078125 168.839844 162.25 168.554688 C 162.441406 168.285156 162.683594 167.988281 162.941406 167.65625 C 163.199219 167.3125 163.488281 166.957031 163.796875 166.566406 C 164.140625 166.199219 164.511719 165.8125 164.902344 165.40625 C 165.660156 164.570312 166.640625 163.796875 167.628906 162.953125 C 169.710938 161.378906 171.746094 160.136719 173.296875 159.371094 C 174.0625 158.964844 174.699219 158.679688 175.148438 158.488281 C 175.59375 158.300781 175.835938 158.195312 175.835938 158.195312 C 175.917969 158.152344 175.976562 158.082031 176.023438 158.015625 C 176.347656 158.375 176.679688 158.734375 176.992188 159.085938 C 177.894531 160.136719 178.800781 161.144531 179.667969 162.15625 C 179.589844 162.207031 179.503906 162.261719 179.398438 162.335938 C 179.035156 162.570312 178.480469 162.910156 177.839844 163.449219 C 177.507812 163.707031 177.136719 163.992188 176.726562 164.3125 C 176.308594 164.617188 175.910156 165.015625 175.445312 165.414062 C 174.496094 166.191406 173.511719 167.199219 172.355469 168.304688 C 171.273438 169.480469 170.289062 170.488281 169.523438 171.4375 C 168.710938 172.347656 168.097656 173.183594 167.589844 173.84375 C 167.207031 174.320312 166.921875 174.738281 166.699219 175.070312 C 166.296875 174.703125 165.898438 174.320312 165.480469 173.9375 C 164.15625 172.675781 162.863281 171.273438 161.476562 169.863281 Z M 110.757812 118.0625 C 110.757812 118.042969 110.765625 118.027344 110.765625 118.019531 C 110.796875 117.996094 110.828125 118.015625 110.835938 118.019531 C 110.839844 118.019531 110.839844 118.019531 110.839844 118.019531 C 110.855469 118.003906 110.886719 117.976562 110.902344 117.960938 C 110.933594 117.9375 110.960938 117.90625 110.988281 117.875 C 111 117.855469 111.007812 117.835938 111.019531 117.824219 C 111.253906 118.109375 111.484375 118.394531 111.722656 118.695312 C 113.191406 120.367188 114.785156 122.324219 116.679688 124.371094 C 119.046875 127.019531 121.789062 129.933594 124.773438 133.042969 C 124.03125 132.476562 123.203125 131.703125 122.285156 130.734375 C 121.707031 130.121094 121.105469 129.429688 120.445312 128.683594 C 120.105469 128.300781 119.761719 127.910156 119.371094 127.507812 C 118.964844 127.074219 118.546875 126.703125 118.117188 126.3125 C 116.503906 124.882812 115.09375 123.6875 113.980469 122.566406 C 112.855469 121.464844 112.054688 120.441406 111.523438 119.589844 C 111.246094 119.171875 111.066406 118.78125 110.90625 118.453125 C 110.875 118.375 110.839844 118.296875 110.816406 118.214844 C 110.789062 118.15625 110.757812 118.070312 110.757812 118.0625 Z M 108.632812 110.171875 C 108.679688 110.070312 108.734375 109.964844 108.792969 109.847656 C 108.902344 109.667969 109.042969 109.46875 109.1875 109.25 C 109.34375 109.023438 109.507812 108.785156 109.699219 108.523438 C 109.910156 108.285156 110.144531 108.027344 110.382812 107.761719 C 110.847656 107.210938 111.480469 106.707031 112.117188 106.167969 C 113.453125 105.171875 114.816406 104.433594 115.835938 104.09375 C 116.085938 104.003906 116.320312 103.921875 116.515625 103.847656 C 116.722656 103.78125 116.898438 103.765625 117.039062 103.730469 C 117.328125 103.667969 117.484375 103.644531 117.484375 103.644531 C 117.566406 103.613281 117.613281 103.53125 117.640625 103.417969 C 120.265625 104.945312 123.605469 107.445312 127.398438 110.824219 C 129.535156 112.714844 131.875 114.84375 134.308594 117.160156 C 136.753906 119.472656 139.367188 121.941406 142.109375 124.53125 C 144.851562 127.140625 147.683594 129.9375 150.625 132.808594 C 152.097656 134.246094 153.597656 135.707031 155.109375 137.191406 C 156.640625 138.65625 158.191406 140.144531 159.761719 141.652344 C 164.910156 146.566406 169.800781 151.347656 174.167969 156.003906 C 173.835938 156.230469 173.242188 156.621094 172.414062 157.179688 C 171.039062 158.105469 169.011719 159.484375 166.457031 161.441406 C 165.207031 162.472656 164.089844 163.359375 163.195312 164.207031 C 162.25 165.007812 161.542969 165.789062 160.9375 166.386719 C 160.320312 166.964844 159.933594 167.484375 159.640625 167.8125 C 159.617188 167.832031 159.605469 167.847656 159.59375 167.867188 C 158.75 166.957031 157.902344 166.027344 157.019531 165.082031 C 155.523438 163.464844 153.980469 161.789062 152.390625 160.0625 C 151.59375 159.199219 150.789062 158.316406 149.960938 157.425781 C 149.15625 156.523438 148.332031 155.605469 147.496094 154.675781 C 144.160156 150.957031 141.070312 147.4375 138.09375 144.167969 C 135.097656 140.902344 132.273438 137.925781 129.664062 135.15625 C 124.441406 129.632812 120.160156 124.914062 116.84375 121.023438 C 113.566406 117.085938 111.226562 114.082031 109.78125 111.9375 C 109.324219 111.230469 108.945312 110.652344 108.632812 110.171875 Z M 105.105469 104.976562 C 105 104.425781 105.0625 103.730469 105.492188 103.070312 C 106.324219 101.730469 107.765625 100.894531 108.746094 100.496094 C 109.25 100.28125 109.675781 100.191406 109.953125 100.128906 C 109.992188 100.121094 110.019531 100.121094 110.050781 100.117188 C 110.15625 100.164062 110.261719 100.203125 110.375 100.25 C 110.652344 100.355469 110.945312 100.457031 111.265625 100.570312 C 111.589844 100.695312 111.9375 100.820312 112.320312 100.957031 C 112.320312 100.957031 112.726562 101.0625 113.472656 101.371094 C 113.851562 101.523438 114.320312 101.71875 114.871094 101.972656 C 114.667969 102.09375 114.441406 102.230469 114.191406 102.378906 C 113.890625 102.5625 113.59375 102.78125 113.246094 103.003906 C 112.554688 103.441406 111.808594 104.019531 110.945312 104.652344 C 110.117188 105.324219 109.367188 105.902344 108.773438 106.472656 C 108.144531 107 107.667969 107.511719 107.261719 107.910156 C 107.253906 107.914062 107.25 107.917969 107.234375 107.925781 C 107.226562 107.882812 107.214844 107.835938 107.179688 107.796875 C 107.179688 107.796875 107.046875 107.667969 106.804688 107.4375 C 106.777344 107.410156 106.746094 107.375 106.710938 107.34375 C 106.371094 106.917969 106.066406 106.578125 105.78125 106.308594 C 105.484375 105.921875 105.210938 105.472656 105.105469 104.976562 Z M 104.828125 114.667969 C 104.820312 114.082031 104.980469 113.625 105.183594 113.203125 C 105.398438 112.773438 105.628906 112.425781 105.789062 112.179688 C 105.957031 111.929688 106.039062 111.800781 106.039062 111.800781 C 106.113281 111.675781 106.171875 111.554688 106.226562 111.441406 C 106.691406 112.113281 107.324219 113.027344 108.136719 114.203125 C 108.503906 114.667969 108.910156 115.1875 109.34375 115.722656 C 109.316406 115.738281 109.292969 115.753906 109.261719 115.761719 C 109.210938 115.796875 109.15625 115.828125 109.105469 115.871094 C 109.105469 115.871094 109.097656 115.875 108.886719 116.003906 C 108.679688 116.121094 108.285156 116.382812 107.5 116.808594 C 107.527344 116.808594 107.785156 117.5 108.234375 118.621094 C 108.300781 118.757812 108.367188 118.90625 108.433594 119.058594 C 108.488281 119.15625 108.539062 119.257812 108.59375 119.359375 C 108.691406 119.5625 108.832031 119.765625 108.964844 119.984375 C 109.234375 120.425781 109.585938 120.898438 109.984375 121.390625 C 110.789062 122.371094 111.828125 123.402344 113.019531 124.453125 C 114.207031 125.5 115.542969 126.570312 116.835938 127.730469 C 117.1875 128.042969 117.519531 128.355469 117.824219 128.667969 C 118.117188 128.976562 118.414062 129.316406 118.699219 129.652344 C 119.273438 130.339844 119.835938 131.007812 120.363281 131.644531 C 121.4375 132.929688 122.472656 134.082031 123.488281 134.984375 C 124.480469 135.886719 125.507812 136.527344 126.359375 136.835938 C 126.78125 136.992188 127.148438 137.070312 127.40625 137.109375 C 127.664062 137.144531 127.800781 137.152344 127.800781 137.152344 C 128.109375 137.152344 128.347656 137.070312 128.53125 136.957031 C 129.035156 137.476562 129.539062 138 130.050781 138.53125 C 131.136719 139.660156 132.246094 140.824219 133.367188 142 C 133.324219 141.992188 133.292969 141.992188 133.234375 141.984375 C 133.035156 141.976562 132.691406 141.910156 132.21875 141.757812 C 131.265625 141.441406 129.824219 140.683594 128.15625 139.527344 C 124.8125 137.210938 120.445312 133.402344 116.246094 128.761719 C 113.980469 126.402344 111.765625 124.402344 109.878906 122.421875 C 108.003906 120.460938 106.460938 118.5625 105.570312 116.839844 C 105.0625 115.996094 104.875 115.257812 104.828125 114.667969 Z M 100.882812 99.859375 C 99.652344 98.503906 98.03125 96.757812 99.628906 95.003906 C 100.105469 94.484375 100.730469 94.210938 101.152344 94.132812 C 101.28125 94.113281 101.386719 94.105469 101.472656 94.105469 C 101.617188 94.144531 101.785156 94.207031 101.964844 94.273438 C 102.730469 94.578125 103.777344 95.195312 104.769531 96.085938 C 105.753906 96.96875 106.496094 97.953125 106.960938 98.691406 C 106.996094 98.742188 107.03125 98.796875 107.054688 98.847656 C 106.730469 99.082031 106.378906 99.347656 106.007812 99.660156 C 105.316406 100.25 104.535156 100.988281 103.859375 102.085938 C 103.832031 102.125 103.820312 102.15625 103.800781 102.191406 C 103.6875 102.132812 103.566406 102.070312 103.429688 101.976562 C 102.792969 101.605469 101.890625 100.921875 100.882812 99.859375 Z M 96.511719 96.757812 C 96.433594 97.164062 96.449219 97.566406 96.570312 97.9375 C 96.984375 99.0625 98.695312 100.234375 99.476562 101.152344 C 100.402344 102.125 101.199219 103.058594 101.855469 103.710938 C 102.167969 104.050781 102.433594 104.328125 102.640625 104.507812 C 102.832031 104.699219 102.9375 104.804688 102.9375 104.804688 C 102.972656 104.832031 103.015625 104.832031 103.0625 104.832031 C 103.0625 105.105469 103.089844 105.375 103.144531 105.628906 C 103.371094 106.683594 103.777344 107.390625 104.070312 107.941406 C 104.085938 107.957031 104.097656 107.980469 104.109375 108 C 104.296875 108.417969 104.558594 108.890625 104.875 109.421875 C 104.460938 109.476562 104.058594 109.753906 103.679688 110.371094 C 103.679688 110.371094 103.621094 110.484375 103.492188 110.710938 C 103.371094 110.945312 103.175781 111.273438 102.945312 111.800781 C 102.710938 112.3125 102.40625 113.046875 102.347656 114.039062 C 102.273438 115.027344 102.558594 116.121094 103.054688 117.117188 C 104.09375 119.027344 105.648438 121.011719 107.707031 123.105469 C 108.726562 124.160156 109.863281 125.234375 111.074219 126.375 C 112.285156 127.519531 113.566406 128.742188 114.820312 130.039062 C 117.371094 132.890625 119.773438 135.230469 121.894531 137.21875 C 124.023438 139.195312 125.914062 140.769531 127.539062 141.960938 C 129.15625 143.148438 130.535156 143.933594 131.628906 144.335938 C 132.175781 144.542969 132.632812 144.671875 132.972656 144.722656 C 133.144531 144.738281 133.273438 144.785156 133.355469 144.785156 C 133.453125 144.785156 133.5 144.785156 133.5 144.785156 C 133.746094 144.785156 133.957031 144.746094 134.167969 144.695312 C 134.386719 144.621094 134.578125 144.527344 134.746094 144.445312 C 134.949219 144.300781 135.113281 144.136719 135.226562 143.976562 C 136.113281 144.921875 136.992188 145.867188 137.894531 146.832031 C 140.546875 149.789062 143.289062 152.835938 146.089844 155.964844 C 148.863281 159.113281 151.675781 162.101562 154.339844 165.039062 C 157.019531 167.964844 159.558594 170.8125 162.128906 173.464844 C 167.25 178.75 172.335938 183.054688 176.773438 186.460938 C 179.035156 188.09375 181.050781 189.644531 182.921875 190.847656 C 183.839844 191.464844 184.703125 192.042969 185.5 192.570312 C 186.289062 193.097656 187.046875 193.535156 187.707031 193.953125 C 189.039062 194.777344 190.082031 195.414062 190.78125 195.851562 C 191.5 196.265625 191.878906 196.476562 191.878906 196.476562 C 192.800781 196.980469 193.5625 197.320312 194.199219 197.546875 C 194.214844 197.566406 194.222656 197.59375 194.246094 197.613281 C 194.265625 197.613281 194.410156 197.742188 194.703125 197.824219 C 196.191406 198.269531 197.363281 199.453125 198.808594 200.0625 C 199.707031 200.441406 200.582031 200.570312 201.28125 200.402344 C 201.625 200.335938 201.902344 200.164062 202.105469 200.023438 C 202.234375 199.886719 202.339844 199.773438 202.40625 199.660156 C 202.480469 199.621094 202.546875 199.554688 202.617188 199.441406 C 202.683594 199.335938 202.753906 199.1875 202.820312 199 C 202.859375 198.816406 202.871094 198.589844 202.878906 198.320312 C 202.894531 197.320312 202.339844 195.832031 201.007812 194.246094 C 201.007812 194.140625 201 194.027344 200.988281 193.910156 C 201.140625 192.519531 200.398438 191.5625 199.828125 190.351562 C 199.828125 190.351562 199.238281 189.109375 198.070312 186.660156 C 196.875 184.222656 195.167969 180.527344 192.402344 175.871094 C 192.050781 175.289062 191.691406 174.695312 191.320312 174.082031 C 190.945312 173.46875 190.519531 172.867188 190.097656 172.226562 C 189.285156 170.941406 188.296875 169.699219 187.308594 168.351562 C 186.8125 167.679688 186.300781 166.988281 185.777344 166.285156 C 185.242188 165.59375 184.65625 164.917969 184.078125 164.207031 C 182.921875 162.792969 181.734375 161.289062 180.386719 159.835938 C 175.148438 153.859375 168.582031 147.433594 161.082031 140.269531 C 146.210938 125.878906 135.082031 114.542969 127.074219 107.410156 C 125.058594 105.621094 123.195312 104.121094 121.519531 102.921875 C 119.859375 101.691406 118.339844 100.8125 117.121094 100.121094 C 116.5 99.796875 115.949219 99.519531 115.46875 99.28125 C 114.980469 99.066406 114.574219 98.886719 114.242188 98.75 C 113.921875 98.601562 113.671875 98.496094 113.5 98.441406 C 113.328125 98.382812 113.242188 98.351562 113.242188 98.351562 C 112.816406 98.203125 112.417969 98.085938 112.050781 97.976562 C 111.667969 97.894531 111.320312 97.832031 111 97.785156 C 109.667969 97.59375 109.527344 97.984375 108.539062 97.003906 C 107.730469 96.199219 106.890625 95.414062 106.039062 94.65625 C 103.484375 92.375 101.007812 90.707031 98.214844 93.722656 C 97.585938 94.417969 96.722656 95.621094 96.511719 96.757812 " fill-opacity="1" fill-rule="nonzero"/></g><g clip-path="url(#4442f89781)"><path fill="#000000" d="M 270.746094 189.09375 C 271.078125 189.3125 271.390625 189.523438 271.769531 189.261719 C 272.273438 189.324219 272.722656 189.132812 273.195312 189.003906 C 274.050781 188.765625 274.890625 188.484375 275.734375 188.195312 C 276.507812 187.925781 277.308594 187.726562 278.054688 187.359375 C 278.753906 187.011719 279.488281 186.671875 280.25 186.472656 C 280.863281 186.3125 281.425781 186.054688 282.015625 185.84375 C 282.578125 185.644531 283.101562 185.355469 283.660156 185.164062 C 284.503906 184.875 285.269531 184.378906 286.152344 184.1875 C 286.402344 184.128906 286.621094 183.949219 286.863281 183.851562 C 287.316406 183.652344 287.765625 183.390625 288.238281 183.292969 C 288.710938 183.191406 289.011719 182.773438 289.503906 182.753906 C 290.808594 182.195312 292.121094 181.65625 293.457031 181.179688 C 293.546875 181.148438 293.636719 181.089844 293.726562 181.039062 C 294.460938 180.640625 295.230469 180.359375 296.023438 180.101562 C 296.304688 180.011719 296.578125 179.921875 296.828125 179.734375 C 297.046875 179.5625 297.371094 179.492188 297.660156 179.445312 C 298.28125 179.324219 298.84375 179.066406 299.386719 178.753906 C 299.464844 178.707031 299.566406 178.675781 299.65625 178.644531 C 300.710938 178.277344 301.773438 177.910156 302.828125 177.53125 C 303.199219 177.398438 303.550781 177.179688 303.933594 177.101562 C 304.324219 177.019531 304.703125 176.921875 305.054688 176.730469 C 305.195312 176.664062 305.378906 176.683594 305.539062 176.632812 C 305.878906 176.523438 306.21875 176.394531 306.5625 176.261719 C 306.871094 176.144531 307.171875 175.996094 307.484375 175.914062 C 309.160156 175.515625 310.746094 174.867188 312.382812 174.359375 C 313.011719 174.160156 313.644531 173.980469 314.289062 173.851562 C 314.808594 173.742188 315.292969 173.53125 315.804688 173.414062 C 316.40625 173.261719 317.015625 173.222656 317.609375 173.042969 C 318.421875 172.792969 319.253906 172.84375 320.078125 172.855469 C 320.277344 172.855469 320.46875 172.855469 320.660156 172.953125 C 321.242188 173.234375 321.25 173.324219 321.261719 173.851562 C 321.273438 174.257812 321.203125 174.628906 321 174.988281 C 320.820312 175.304688 320.679688 175.636719 320.519531 175.953125 C 320.761719 176.105469 321.019531 176.09375 321.222656 176.015625 C 321.683594 175.835938 322.183594 175.792969 322.636719 175.574219 C 323.230469 175.296875 323.878906 175.136719 324.484375 174.859375 C 325.113281 174.570312 325.777344 174.347656 326.398438 174.058594 C 327.363281 173.621094 328.324219 173.183594 329.320312 172.8125 C 329.351562 172.804688 329.390625 172.792969 329.410156 172.773438 C 329.769531 172.375 330.253906 172.433594 330.714844 172.445312 C 330.816406 172.445312 330.90625 172.484375 331.015625 172.503906 C 330.894531 172.964844 330.683594 173.3125 330.234375 173.472656 C 329.601562 173.679688 329.070312 174.089844 328.476562 174.359375 C 327.90625 174.628906 327.351562 174.9375 326.78125 175.195312 C 325.9375 175.574219 325.09375 175.964844 324.222656 176.273438 C 323.789062 176.433594 323.378906 176.652344 322.957031 176.839844 C 322.296875 177.140625 321.5625 177.210938 320.859375 177.410156 C 320.578125 177.488281 320.257812 177.449219 319.957031 177.429688 C 319.835938 177.417969 319.707031 177.351562 319.605469 177.28125 C 319.414062 177.152344 319.253906 176.960938 319.0625 176.851562 C 318.894531 176.75 318.863281 176.613281 318.84375 176.441406 C 318.792969 175.914062 318.945312 175.464844 319.316406 175.085938 C 319.457031 174.949219 319.605469 174.816406 319.667969 174.617188 C 319.707031 174.46875 319.867188 174.347656 319.785156 174.160156 C 319.746094 174.058594 319.273438 173.839844 319.175781 173.902344 C 318.832031 174.121094 318.460938 174 318.101562 174.058594 C 317.679688 174.128906 317.269531 174.230469 316.847656 174.347656 C 315.582031 174.699219 314.277344 174.90625 313.054688 175.425781 C 312.613281 175.425781 312.199219 175.574219 311.820312 175.765625 C 311.546875 175.894531 311.207031 175.503906 311.027344 175.933594 C 310.714844 176.042969 310.40625 176.144531 310.09375 176.253906 C 309.8125 176.34375 309.53125 176.441406 309.25 176.53125 C 308.589844 176.722656 307.964844 177.082031 307.253906 177.070312 C 307.074219 177.070312 306.960938 177.210938 306.832031 177.320312 C 306.722656 177.410156 306.609375 177.46875 306.472656 177.390625 C 306.378906 177.351562 306.300781 177.300781 306.199219 177.371094 C 305.648438 177.738281 305.015625 177.9375 304.394531 178.148438 C 303.089844 178.605469 301.792969 179.105469 300.46875 179.492188 C 300.339844 179.535156 300.21875 179.621094 300.097656 179.621094 C 299.808594 179.621094 299.585938 179.710938 299.386719 179.914062 C 299.246094 180.050781 299.085938 180.011719 298.933594 179.914062 C 298.804688 179.824219 298.664062 179.863281 298.574219 179.953125 C 298.371094 180.160156 298.140625 180.25 297.859375 180.242188 C 297.679688 180.230469 297.558594 180.359375 297.429688 180.46875 C 297.359375 180.53125 297.238281 180.621094 297.179688 180.601562 C 296.765625 180.441406 296.496094 180.660156 296.207031 180.890625 C 296.105469 180.96875 295.964844 181.027344 295.84375 181.027344 C 295.59375 181.039062 295.382812 181.089844 295.210938 181.277344 C 295.03125 181.476562 294.78125 181.417969 294.558594 181.457031 C 294.367188 181.488281 294.328125 181.914062 294.027344 181.667969 C 293.816406 181.757812 293.605469 181.835938 293.386719 181.925781 C 293.164062 182.003906 292.945312 182.074219 292.734375 182.164062 C 292.460938 182.273438 292.191406 182.40625 291.902344 182.484375 C 291.589844 182.574219 291.289062 182.742188 291.066406 183.011719 C 290.945312 183.164062 290.816406 183.191406 290.636719 183.09375 C 290.574219 183.050781 290.445312 183.101562 290.363281 183.132812 C 290.074219 183.230469 289.84375 183.410156 289.632812 183.640625 C 289.523438 183.769531 289.371094 183.820312 289.191406 183.839844 C 288.246094 183.929688 288.097656 184 287.222656 184.578125 C 287.0625 184.6875 286.875 184.789062 286.683594 184.816406 C 286.472656 184.855469 286.28125 184.925781 286.171875 185.097656 C 285.980469 185.367188 285.6875 185.007812 285.558594 185.195312 C 285.40625 185.414062 285.296875 185.433594 285.078125 185.34375 C 284.90625 185.277344 284.9375 185.542969 284.816406 185.566406 C 284.726562 185.585938 284.605469 185.503906 284.535156 185.542969 C 283.832031 185.914062 283.039062 186.082031 282.316406 186.402344 C 281.785156 186.640625 281.292969 187.011719 280.683594 187.058594 C 280.589844 187.070312 280.472656 187.140625 280.429688 187.210938 C 280.25 187.609375 279.796875 187.4375 279.539062 187.667969 C 279.285156 187.878906 278.984375 188.027344 278.636719 188.058594 C 278.542969 188.066406 278.464844 188.15625 278.375 188.195312 C 277.921875 188.40625 277.472656 188.585938 276.980469 188.703125 C 276.316406 188.863281 275.683594 189.183594 275.042969 189.441406 C 274.339844 189.730469 273.628906 190.03125 272.875 190.089844 C 272.351562 190.128906 271.863281 190.210938 271.378906 190.371094 C 271.238281 190.417969 271.128906 190.359375 271.007812 190.300781 C 270.917969 190.261719 270.816406 190.261719 270.71875 190.242188 C 270.558594 190.210938 270.417969 190.449219 270.257812 190.308594 C 269.964844 190.039062 269.535156 189.953125 269.324219 189.574219 C 269.292969 189.523438 269.261719 189.433594 269.28125 189.394531 C 269.453125 189.003906 269.492188 188.566406 269.773438 188.214844 C 270.1875 187.699219 270.546875 187.140625 271.007812 186.679688 C 271.238281 186.441406 271.371094 186.132812 271.640625 185.933594 C 271.882812 185.753906 271.980469 185.433594 272.183594 185.234375 C 272.855469 184.597656 273.4375 183.890625 274.050781 183.210938 C 274.621094 182.574219 275.3125 182.054688 275.753906 181.296875 C 275.984375 180.910156 276.425781 180.660156 276.617188 180.222656 C 276.726562 179.980469 276.929688 179.78125 277.019531 179.542969 C 277.078125 179.394531 277.320312 179.222656 277.089844 179.015625 C 276.917969 178.855469 276.789062 179.066406 276.636719 179.054688 C 275.785156 178.996094 275.03125 179.445312 274.210938 179.492188 C 273.507812 179.871094 272.746094 180.082031 271.980469 180.300781 C 271.371094 180.769531 270.597656 180.898438 269.925781 181.238281 C 269.242188 181.578125 268.558594 181.925781 267.867188 182.246094 C 267.507812 182.414062 267.183594 182.652344 266.765625 182.695312 C 266.613281 182.714844 266.414062 182.804688 266.332031 182.921875 C 266.082031 183.28125 265.730469 183.410156 265.328125 183.492188 C 265.269531 183.5 265.207031 183.550781 265.160156 183.589844 C 264.464844 184.058594 263.703125 184.378906 262.980469 184.789062 C 262.808594 184.886719 262.660156 185.035156 262.480469 185.097656 C 261.96875 185.246094 261.566406 185.613281 261.054688 185.746094 C 260.882812 185.785156 260.742188 185.84375 260.59375 185.753906 C 260.523438 185.714844 260.453125 185.722656 260.441406 185.8125 C 260.363281 186.402344 259.789062 186.382812 259.429688 186.621094 C 259.1875 186.523438 259.046875 186.570312 258.90625 186.820312 C 258.785156 187.050781 258.546875 187.191406 258.285156 187.300781 C 257.863281 187.480469 257.441406 187.6875 257.039062 187.917969 C 255.855469 188.585938 254.621094 189.164062 253.449219 189.839844 C 252.554688 190.359375 251.582031 190.707031 250.757812 191.335938 C 250.335938 191.355469 250.078125 191.726562 249.695312 191.824219 C 249.523438 191.867188 249.355469 191.914062 249.273438 192.054688 C 249.113281 192.332031 248.761719 192.253906 248.570312 192.445312 C 248.378906 192.644531 248.140625 192.734375 247.910156 192.851562 C 247.648438 192.992188 247.488281 193.300781 247.125 193.25 C 246.65625 193.679688 245.941406 193.679688 245.492188 194.160156 C 245.109375 194.269531 244.738281 194.398438 244.417969 194.65625 C 244.136719 194.886719 243.714844 194.867188 243.472656 195.164062 C 242.8125 195.273438 242.25 195.632812 241.65625 195.894531 C 241.074219 196.140625 240.484375 196.339844 239.890625 196.539062 C 239.097656 196.808594 237.773438 196.941406 237.042969 196.808594 C 236.589844 196.730469 236.109375 196.628906 235.777344 196.292969 C 235.617188 196.132812 235.527344 196.003906 235.296875 196.132812 C 235.253906 196.152344 235.15625 196.140625 235.125 196.113281 C 234.972656 195.984375 234.832031 195.84375 234.691406 195.695312 C 234.441406 195.425781 234.152344 195.183594 233.960938 194.886719 C 233.800781 194.617188 234 194.226562 233.789062 193.929688 C 233.910156 193.78125 233.730469 193.558594 233.820312 193.480469 C 234.191406 193.171875 234.082031 192.753906 234.132812 192.375 C 234.140625 192.253906 234.191406 192.113281 234.273438 192.015625 C 234.652344 191.554688 234.863281 190.988281 235.304688 190.570312 C 235.394531 190.480469 235.476562 190.359375 235.527344 190.25 C 235.878906 189.574219 236.347656 188.984375 236.859375 188.414062 C 237.0625 188.195312 237.222656 187.949219 237.390625 187.707031 C 237.742188 187.191406 238.246094 186.8125 238.605469 186.300781 C 239.230469 185.414062 240.070312 184.707031 240.613281 183.75 C 240.671875 183.640625 240.785156 183.539062 240.875 183.453125 C 241.386719 182.972656 241.777344 182.40625 242.167969 181.835938 C 242.238281 181.726562 242.320312 181.617188 242.417969 181.527344 C 243.140625 180.917969 243.664062 180.152344 244.265625 179.445312 C 244.789062 178.835938 245.308594 178.246094 245.871094 177.679688 C 245.980469 177.558594 246.09375 177.429688 246.164062 177.28125 C 246.304688 177 246.515625 176.75 246.765625 176.621094 C 247.316406 176.351562 247.539062 175.835938 247.820312 175.367188 C 247.988281 175.085938 248.160156 174.808594 248.390625 174.558594 C 248.773438 174.160156 249.09375 173.703125 249.324219 173.121094 C 248.871094 173.101562 248.519531 173.0625 248.160156 173.371094 C 247.839844 173.640625 247.4375 173.820312 246.957031 173.621094 C 246.683594 173.511719 246.382812 173.703125 246.28125 173.910156 C 246.09375 174.320312 245.800781 174.519531 245.378906 174.589844 C 244.898438 175.007812 244.285156 175.207031 243.722656 175.496094 C 243.3125 175.703125 242.890625 175.875 242.488281 176.09375 C 242.089844 176.3125 241.65625 176.460938 241.253906 176.703125 C 241.003906 176.851562 240.722656 176.960938 240.441406 177.082031 C 240.261719 177.160156 240.070312 177.21875 239.890625 177.300781 C 239.410156 177.519531 238.988281 177.828125 238.484375 178.019531 C 238.023438 178.1875 237.625 178.496094 237.183594 178.726562 C 236.710938 178.976562 236.238281 179.214844 235.757812 179.453125 C 235.316406 179.671875 234.855469 179.882812 234.414062 180.101562 C 233.941406 180.339844 233.457031 180.570312 232.996094 180.828125 C 232.363281 181.1875 231.773438 181.625 231.109375 181.90625 C 230.550781 182.144531 230.128906 182.554688 229.59375 182.824219 C 229.0625 183.09375 228.5625 183.410156 228.03125 183.679688 C 227.558594 183.910156 227.136719 184.238281 226.695312 184.539062 C 226.554688 184.636719 226.273438 184.410156 226.242188 184.726562 C 226.042969 184.835938 225.832031 184.945312 225.640625 185.066406 C 225.472656 185.175781 225.320312 185.304688 225.160156 185.414062 C 224.96875 185.542969 224.777344 185.675781 224.578125 185.792969 C 224.40625 185.894531 224.21875 185.964844 224.046875 186.0625 C 223.847656 186.183594 223.664062 186.332031 223.464844 186.453125 C 223.292969 186.550781 223.082031 186.601562 222.933594 186.722656 C 222.179688 187.328125 221.296875 187.71875 220.445312 188.15625 C 220.183594 188.296875 219.953125 188.503906 219.679688 188.625 C 219.378906 188.753906 219.199219 189.113281 218.808594 189.0625 C 218.65625 189.351562 218.375 189.453125 218.097656 189.523438 C 217.632812 190.011719 217.023438 190.289062 216.492188 190.679688 C 216.117188 190.949219 215.707031 191.167969 215.316406 191.417969 C 215.175781 191.507812 215.023438 191.578125 214.90625 191.6875 C 214.613281 191.953125 214.324219 192.214844 213.882812 192.113281 C 213.652344 192.246094 213.359375 192.292969 213.269531 192.582031 C 213.1875 192.824219 213.007812 192.960938 212.835938 193.121094 C 212.71875 193.230469 212.515625 192.980469 212.4375 193.242188 C 212.367188 193.460938 212.117188 193.449219 211.976562 193.589844 C 211.863281 193.710938 211.664062 193.75 211.574219 193.871094 C 211.414062 194.109375 211.230469 194.257812 210.921875 194.226562 C 210.78125 194.21875 210.679688 194.308594 210.648438 194.46875 C 210.628906 194.597656 210.601562 194.714844 210.46875 194.796875 C 209.605469 195.292969 208.945312 196.0625 208.113281 196.601562 C 207.570312 196.960938 207.089844 197.4375 206.4375 197.628906 C 206.375 197.648438 206.285156 197.699219 206.285156 197.726562 C 206.285156 198.246094 205.792969 198.1875 205.523438 198.355469 C 205.351562 198.453125 205.171875 198.542969 205.039062 198.703125 C 204.769531 199.023438 204.550781 199.414062 204.21875 199.660156 C 203.898438 199.902344 203.585938 200.140625 203.292969 200.410156 C 203.273438 200.429688 203.246094 200.46875 203.226562 200.46875 C 203.175781 200.480469 203.113281 200.46875 203.0625 200.457031 C 203.042969 200.449219 203.023438 200.410156 203.023438 200.371094 C 203.003906 200.140625 202.992188 199.902344 203.183594 199.722656 C 203.375 199.542969 203.535156 199.300781 203.757812 199.164062 C 204.308594 198.832031 204.71875 198.355469 205.179688 197.925781 C 205.230469 197.875 205.273438 197.816406 205.320312 197.789062 C 205.785156 197.566406 206.035156 197.128906 206.40625 196.820312 C 206.476562 196.761719 206.527344 196.652344 206.605469 196.628906 C 206.785156 196.570312 207.027344 196.589844 206.878906 196.28125 C 206.878906 196.28125 207.671875 195.605469 207.679688 195.605469 C 207.769531 195.574219 207.902344 195.5625 207.941406 195.496094 C 208.089844 195.292969 208.132812 194.964844 208.511719 195.125 C 208.644531 194.9375 208.785156 194.757812 209.054688 194.777344 C 209.476562 194.425781 210.066406 194.257812 210.289062 193.667969 C 210.328125 193.558594 210.488281 193.429688 210.589844 193.429688 C 210.941406 193.429688 211.121094 193.179688 211.34375 192.980469 C 211.464844 192.871094 211.574219 192.734375 211.714844 192.652344 C 212.597656 192.183594 213.28125 191.464844 214.070312 190.878906 C 214.683594 190.429688 215.246094 189.910156 215.929688 189.574219 C 216.160156 189.195312 216.671875 189.304688 216.941406 188.996094 C 217.214844 188.695312 217.523438 188.457031 217.875 188.265625 C 217.964844 188.214844 218.027344 188.125 218.105469 188.085938 C 219.160156 187.597656 220.101562 186.910156 221.085938 186.3125 C 221.789062 186.152344 222.21875 185.523438 222.882812 185.296875 C 223.054688 185.054688 223.382812 185.105469 223.574219 184.957031 C 223.9375 184.675781 224.378906 184.558594 224.707031 184.230469 C 224.941406 184 225.242188 183.839844 225.542969 183.691406 C 225.933594 183.492188 226.285156 183.28125 226.625 183.003906 C 227.007812 182.695312 227.476562 182.503906 227.890625 182.226562 C 228.269531 181.957031 228.671875 181.726562 229.09375 181.527344 C 229.484375 181.335938 229.835938 181.097656 230.207031 180.878906 C 231.109375 180.320312 232.035156 179.8125 232.96875 179.304688 C 234.503906 178.457031 236.066406 177.660156 237.644531 176.871094 C 238.464844 176.460938 239.257812 175.984375 240.082031 175.574219 C 240.914062 175.167969 241.738281 174.71875 242.582031 174.339844 C 243.414062 173.960938 244.226562 173.53125 245.109375 173.242188 C 245.351562 173.164062 245.5625 172.972656 245.792969 172.855469 C 247.074219 172.15625 248.449219 171.675781 249.867188 171.339844 C 250.308594 171.230469 250.796875 171.296875 251.261719 171.296875 C 251.492188 171.296875 251.683594 171.617188 251.652344 171.875 C 251.570312 172.585938 251.25 173.210938 250.890625 173.789062 C 250.316406 174.796875 249.585938 175.773438 248.820312 176.730469 C 248.742188 176.832031 248.632812 176.921875 248.539062 177.011719 C 247.949219 177.597656 247.46875 178.257812 246.976562 178.925781 C 246.933594 178.976562 246.90625 179.035156 246.855469 179.085938 C 246.183594 179.683594 245.699219 180.449219 245.078125 181.097656 C 244.539062 181.667969 244.023438 182.273438 243.554688 182.914062 C 243.164062 183.441406 242.710938 183.929688 242.28125 184.4375 C 241.9375 184.847656 241.597656 185.246094 241.253906 185.65625 C 241.023438 185.933594 240.824219 186.234375 240.582031 186.511719 C 240.34375 186.78125 240.09375 187.03125 239.890625 187.347656 C 239.710938 187.636719 239.308594 187.769531 239.199219 188.148438 C 239.078125 188.546875 238.648438 188.726562 238.457031 189.074219 C 238.277344 189.402344 237.972656 189.621094 237.773438 189.921875 C 237.152344 190.847656 236.359375 191.65625 235.898438 192.703125 C 235.726562 193.082031 235.878906 193.5 235.648438 193.847656 C 235.695312 194.109375 235.738281 194.359375 235.808594 194.605469 C 235.828125 194.675781 235.949219 194.738281 236.027344 194.757812 C 236.4375 194.855469 236.871094 194.90625 237.28125 195.046875 C 237.8125 195.226562 238.316406 195.226562 238.835938 195.046875 C 239.058594 194.976562 239.289062 194.957031 239.511719 194.90625 C 240.121094 194.757812 240.714844 194.546875 241.265625 194.238281 C 241.515625 194.097656 241.828125 194.046875 242.097656 193.917969 C 242.628906 193.648438 243.183594 193.449219 243.703125 193.152344 C 244.566406 192.664062 245.480469 192.246094 246.363281 191.796875 C 247.277344 191.335938 248.179688 190.847656 249.042969 190.28125 C 249.09375 190.242188 249.164062 190.21875 249.222656 190.191406 C 250.457031 189.542969 251.691406 188.894531 252.917969 188.238281 C 253.296875 188.039062 253.648438 187.746094 254.039062 187.628906 C 254.472656 187.488281 254.8125 187.269531 255.175781 187.019531 C 255.253906 186.960938 255.355469 186.929688 255.445312 186.890625 C 256.015625 186.632812 256.578125 186.363281 257.121094 186.054688 C 257.671875 185.746094 258.253906 185.503906 258.804688 185.207031 C 259.378906 184.898438 260.082031 184.796875 260.53125 184.269531 C 261.113281 184.207031 261.464844 183.679688 262.046875 183.570312 C 262.378906 183.511719 262.667969 183.203125 262.992188 183.042969 C 264.835938 182.125 266.671875 181.199219 268.53125 180.300781 C 269.300781 179.933594 270.105469 179.621094 270.90625 179.3125 C 271.769531 178.996094 272.625 178.625 273.515625 178.398438 C 274.058594 178.257812 274.609375 178.136719 275.144531 177.996094 C 276.136719 177.738281 277.128906 177.859375 278.121094 177.828125 C 278.445312 177.820312 278.503906 177.910156 278.382812 178.246094 C 278.332031 178.386719 278.324219 178.515625 278.445312 178.585938 C 278.605469 178.675781 278.703125 178.753906 278.636719 178.964844 C 278.324219 179.921875 277.863281 180.78125 277.121094 181.476562 C 277.097656 181.496094 277.070312 181.515625 277.050781 181.546875 C 276.898438 181.757812 276.75 181.976562 276.585938 182.183594 C 276.4375 182.394531 276.097656 182.425781 276.035156 182.722656 C 275.324219 183.421875 274.8125 184.296875 274.039062 184.9375 C 273.65625 185.253906 273.316406 185.59375 273.066406 186.023438 C 272.976562 186.191406 272.835938 186.351562 272.683594 186.480469 C 272.121094 186.960938 271.699219 187.558594 271.257812 188.136719 C 271.058594 188.4375 270.917969 188.785156 270.746094 189.09375 Z M 270.746094 189.09375 " fill-opacity="1" fill-rule="nonzero"/></g><g fill="#000000" fill-opacity="1"><g transform="translate(97.795626, 252.468239)"><g><path d="M 24.5625 -35.140625 C 21.039062 -38.324219 16.832031 -39.800781 12.28125 -40.652344 C 11.828125 -40.769531 11.316406 -40.824219 10.859375 -40.9375 C 8.128906 -41.394531 4.546875 -41.449219 4.320312 -37.925781 C 3.582031 -27.578125 3.128906 -17.226562 2.84375 -6.878906 C 2.785156 -5.058594 4.320312 -3.410156 6.082031 -3.183594 C 7.390625 -2.957031 8.757812 -3.355469 10.0625 -3.753906 C 14.613281 -5.289062 20.128906 -7.050781 23.824219 -10.175781 C 27.179688 -13.078125 29.679688 -16.945312 30.191406 -21.378906 C 30.816406 -26.667969 28.429688 -31.671875 24.5625 -35.140625 Z M 21.378906 -20.867188 C 19.785156 -16.375 15.691406 -14.726562 11.484375 -13.363281 C 11.714844 -19.558594 12.054688 -25.757812 12.394531 -31.898438 C 17.683594 -30.761719 23.597656 -27.066406 21.378906 -20.867188 Z M 21.378906 -20.867188 "/></g></g></g><g fill="#000000" fill-opacity="1"><g transform="translate(131.000521, 252.468239)"><g><path d="M 4.09375 -14.046875 C 4.09375 -15.441406 4.429688 -16.421875 5.109375 -16.984375 C 5.796875 -17.554688 6.613281 -17.84375 7.5625 -17.84375 C 8.507812 -17.84375 9.34375 -17.554688 10.0625 -16.984375 C 10.78125 -16.421875 11.140625 -15.441406 11.140625 -14.046875 C 11.140625 -12.679688 10.78125 -11.691406 10.0625 -11.078125 C 9.34375 -10.472656 8.507812 -10.171875 7.5625 -10.171875 C 6.613281 -10.171875 5.796875 -10.472656 5.109375 -11.078125 C 4.429688 -11.691406 4.09375 -12.679688 4.09375 -14.046875 Z M 4.09375 -14.046875 "/></g></g></g><g fill="#ffffff" fill-opacity="1"><g transform="translate(146.249672, 252.468239)"><g><path d="M 32.296875 -5.289062 C 29.167969 -9.609375 25.585938 -13.417969 21.492188 -16.714844 C 24.5625 -18.878906 27.121094 -21.832031 28.203125 -25.074219 C 30.363281 -31.613281 24.5625 -37.925781 17.96875 -37.640625 C 10.972656 -37.355469 6.367188 -30.875 5.117188 -24.5625 C 3.46875 -16.375 3.46875 -7.617188 2.84375 0.683594 C 2.386719 6.140625 10.917969 6.082031 11.371094 0.683594 C 11.714844 -3.867188 12.054688 -8.359375 12.453125 -12.851562 C 17.285156 -9.664062 21.492188 -5.6875 24.960938 -0.964844 C 28.144531 3.410156 35.59375 -0.851562 32.296875 -5.289062 Z M 17.113281 -24.277344 C 15.921875 -23.199219 14.785156 -22.402344 13.304688 -22.175781 C 13.476562 -23.140625 13.703125 -24.109375 14.101562 -25.019531 C 14.5 -26.15625 19.332031 -31.953125 20.128906 -28.089844 C 20.355469 -27.121094 17.796875 -24.847656 17.113281 -24.277344 Z M 17.113281 -24.277344 "/></g></g></g><g fill="#ffffff" fill-opacity="1"><g transform="translate(182.240588, 252.468239)"><g><path d="M 4.09375 -14.046875 C 4.09375 -15.441406 4.429688 -16.421875 5.109375 -16.984375 C 5.796875 -17.554688 6.613281 -17.84375 7.5625 -17.84375 C 8.507812 -17.84375 9.34375 -17.554688 10.0625 -16.984375 C 10.78125 -16.421875 11.140625 -15.441406 11.140625 -14.046875 C 11.140625 -12.679688 10.78125 -11.691406 10.0625 -11.078125 C 9.34375 -10.472656 8.507812 -10.171875 7.5625 -10.171875 C 6.613281 -10.171875 5.796875 -10.472656 5.109375 -11.078125 C 4.429688 -11.691406 4.09375 -12.679688 4.09375 -14.046875 Z M 4.09375 -14.046875 "/></g></g></g><g fill="#ffffff" fill-opacity="1"><g transform="translate(197.478445, 252.468239)"><g><path d="M 31.613281 -34.683594 C 26.949219 -42.359375 14.785156 -43.328125 8.699219 -37.128906 C 2.730469 -32.011719 1.875 -20.128906 3.582031 -13.476562 C 4.777344 -8.925781 7.789062 -4.152344 12.453125 -2.671875 C 17.285156 -1.082031 22.628906 -2.84375 26.4375 -5.96875 C 30.304688 -9.210938 32.695312 -13.929688 33.488281 -18.878906 C 34.230469 -23.765625 34.285156 -30.304688 31.613281 -34.683594 Z M 21.265625 -12.566406 C 21.09375 -12.453125 20.980469 -12.339844 20.808594 -12.167969 C 18.992188 -10.632812 16.089844 -10.007812 14.15625 -11.484375 C 12.90625 -12.394531 12.339844 -13.929688 11.941406 -15.410156 C 11.371094 -17.855469 11.257812 -20.414062 11.542969 -22.914062 C 11.828125 -25.1875 12.394531 -28.089844 13.703125 -29.964844 C 14.898438 -31.613281 16.886719 -32.636719 18.933594 -32.695312 C 22.460938 -32.75 24.734375 -30.363281 25.132812 -27.066406 C 25.8125 -22.0625 25.074219 -16.203125 21.265625 -12.566406 Z M 21.265625 -12.566406 "/></g></g></g><g fill="#ffffff" fill-opacity="1"><g transform="translate(234.265375, 252.468239)"><g><path d="M 4.09375 -14.046875 C 4.09375 -15.441406 4.429688 -16.421875 5.109375 -16.984375 C 5.796875 -17.554688 6.613281 -17.84375 7.5625 -17.84375 C 8.507812 -17.84375 9.34375 -17.554688 10.0625 -16.984375 C 10.78125 -16.421875 11.140625 -15.441406 11.140625 -14.046875 C 11.140625 -12.679688 10.78125 -11.691406 10.0625 -11.078125 C 9.34375 -10.472656 8.507812 -10.171875 7.5625 -10.171875 C 6.613281 -10.171875 5.796875 -10.472656 5.109375 -11.078125 C 4.429688 -11.691406 4.09375 -12.679688 4.09375 -14.046875 Z M 4.09375 -14.046875 "/></g></g></g><g fill="#ffffff" fill-opacity="1"><g transform="translate(249.503232, 252.468239)"><g><path d="M 5.402344 -34.96875 C 4.265625 -24.734375 3.410156 -14.441406 2.84375 -4.09375 C 2.5 1.363281 11.03125 1.363281 11.371094 -4.09375 C 11.941406 -14.441406 12.792969 -24.734375 13.929688 -34.96875 C 14.5 -40.425781 5.96875 -40.371094 5.402344 -34.96875 Z M 5.402344 -34.96875 "/></g></g></g><g fill="#ffffff" fill-opacity="1"><g transform="translate(266.333104, 252.468239)"><g><path d="M 4.09375 -14.046875 C 4.09375 -15.441406 4.429688 -16.421875 5.109375 -16.984375 C 5.796875 -17.554688 6.613281 -17.84375 7.5625 -17.84375 C 8.507812 -17.84375 9.34375 -17.554688 10.0625 -16.984375 C 10.78125 -16.421875 11.140625 -15.441406 11.140625 -14.046875 C 11.140625 -12.679688 10.78125 -11.691406 10.0625 -11.078125 C 9.34375 -10.472656 8.507812 -10.171875 7.5625 -10.171875 C 6.613281 -10.171875 5.796875 -10.472656 5.109375 -11.078125 C 4.429688 -11.691406 4.09375 -12.679688 4.09375 -14.046875 Z M 4.09375 -14.046875 "/></g></g></g><g fill="#000000" fill-opacity="1"><g transform="translate(281.578111, 252.468239)"><g><path d="M 25.871094 -39.0625 C 19.558594 -39.859375 13.25 -39.972656 6.878906 -39.289062 C 1.476562 -38.777344 1.421875 -30.25 6.878906 -30.816406 C 8.585938 -30.988281 10.234375 -31.042969 11.882812 -31.160156 C 11.371094 -22.800781 10.917969 -14.5 10.40625 -6.199219 C 10.0625 -0.683594 18.59375 -0.738281 18.933594 -6.199219 C 19.445312 -14.441406 19.902344 -22.742188 20.414062 -31.042969 C 22.230469 -30.929688 24.050781 -30.761719 25.871094 -30.53125 C 31.328125 -29.792969 31.273438 -38.324219 25.871094 -39.0625 Z M 25.871094 -39.0625 "/></g></g></g><g fill="#000000" fill-opacity="1"><g transform="translate(314.384998, 252.468239)"><g><path d="M 10.804688 -8.640625 C 9.949219 -9.382812 8.925781 -9.894531 7.789062 -9.894531 L 7.105469 -9.894531 C 5.96875 -9.894531 4.832031 -9.382812 4.09375 -8.640625 C 3.296875 -7.902344 2.785156 -6.652344 2.84375 -5.628906 C 2.84375 -4.492188 3.242188 -3.355469 4.09375 -2.617188 C 4.890625 -1.820312 5.914062 -1.363281 7.105469 -1.363281 L 7.789062 -1.363281 C 8.871094 -1.363281 10.007812 -1.820312 10.804688 -2.617188 C 11.542969 -3.355469 12.109375 -4.546875 12.054688 -5.628906 C 11.996094 -6.710938 11.65625 -7.847656 10.804688 -8.640625 Z M 10.804688 -8.640625 "/></g></g></g><g fill="#000000" fill-opacity="1"><g transform="translate(61.689279, 203.860759)"><g><path d="M 24.015625 -17.496094 C 23.402344 -20.566406 22.304688 -24.277344 19.425781 -25.96875 C 16.253906 -27.859375 13.839844 -26.089844 12.246094 -23.265625 C 12.15625 -23.359375 12.023438 -23.480469 11.925781 -23.609375 C 9.46875 -26.183594 5.476562 -25.214844 3.570312 -22.515625 C 1.523438 -19.570312 1.007812 -15.300781 0.890625 -11.839844 C 0.792969 -8.054688 1.25 -4.261719 1.734375 -0.507812 C 2.160156 2.925781 7.460938 1.929688 7.035156 -1.503906 C 6.449219 -6.003906 5.882812 -10.582031 6.605469 -15.109375 C 6.789062 -16.09375 7.003906 -17.085938 7.367188 -18.070312 C 7.492188 -18.386719 7.773438 -19.425781 8.175781 -19.613281 C 8.175781 -19.613281 8.210938 -19.617188 8.203125 -19.652344 C 8.21875 -19.582031 8.226562 -19.546875 8.308594 -19.488281 C 8.839844 -19.003906 9.007812 -17.316406 9.171875 -16.652344 C 9.445312 -15.386719 9.621094 -14.0625 9.71875 -12.765625 C 9.984375 -9.777344 15.136719 -10.011719 15.082031 -13.039062 C 15.007812 -15 15.277344 -16.882812 15.996094 -18.699219 C 16.257812 -19.261719 16.914062 -20.042969 17.261719 -20.730469 C 17.4375 -20.179688 17.828125 -19.667969 18.003906 -19.113281 C 19.726562 -14.605469 19.785156 -9.238281 20.207031 -4.449219 C 20.488281 -0.992188 25.785156 -2.019531 25.507812 -5.445312 C 25.15625 -9.476562 24.828125 -13.550781 24.015625 -17.496094 Z M 24.015625 -17.496094 "/></g></g></g><g fill="#000000" fill-opacity="1"><g transform="translate(89.858692, 198.574846)"><g><path d="M 15.609375 -25.25 C 11.8125 -29.480469 4.136719 -28.660156 1.078125 -24.097656 C -2.039062 -20.21875 -1.179688 -12.734375 0.65625 -8.796875 C 1.929688 -6.105469 4.359375 -3.488281 7.429688 -3.113281 C 10.621094 -2.6875 13.738281 -4.40625 15.742188 -6.796875 C 17.765625 -9.261719 18.699219 -12.476562 18.617188 -15.644531 C 18.507812 -18.769531 17.78125 -22.839844 15.609375 -25.25 Z M 11.753906 -10.292969 C 11.660156 -10.203125 11.605469 -10.117188 11.519531 -9.992188 C 10.566406 -8.824219 8.835938 -8.097656 7.460938 -8.792969 C 6.578125 -9.210938 6.046875 -10.101562 5.625 -10.972656 C 4.988281 -12.425781 4.617188 -14.003906 4.503906 -15.59375 C 4.414062 -17.039062 4.429688 -18.910156 5.023438 -20.226562 C 5.574219 -21.390625 6.691406 -22.261719 7.957031 -22.535156 C 10.140625 -22.980469 11.835938 -21.761719 12.46875 -19.757812 C 13.476562 -16.726562 13.699219 -13 11.753906 -10.292969 Z M 11.753906 -10.292969 "/></g></g></g><g fill="#000000" fill-opacity="1"><g transform="translate(112.726462, 194.283771)"><g><path d="M 11.539062 -24.304688 C 11.691406 -20.382812 11.730469 -16.472656 11.730469 -12.558594 L 7.238281 -19.144531 C 5.910156 -21.164062 2.695312 -19.753906 2.515625 -17.597656 C 2.066406 -11.804688 1.835938 -6.015625 1.828125 -0.195312 C 1.816406 3.246094 7.214844 3.734375 7.21875 0.253906 C 7.203125 -2.960938 7.296875 -6.164062 7.425781 -9.371094 C 9.042969 -7.003906 10.621094 -4.628906 12.230469 -2.296875 C 13.546875 -0.347656 16.894531 -1.632812 16.960938 -3.804688 C 17.167969 -10.503906 17.164062 -17.164062 16.894531 -23.847656 C 16.761719 -27.296875 11.371094 -27.75 11.539062 -24.304688 Z M 11.539062 -24.304688 "/></g></g></g><path stroke-linecap="butt" transform="matrix(1.12231, 0, 0, 1.12231, 52.15214, 195.491618)" fill="none" stroke-linejoin="miter" d="M 112.327763 45.28934 C 109.532886 41.439859 106.341228 38.039368 102.693618 35.10875 C 105.425845 33.180529 107.712562 30.545758 108.680153 27.663868 C 110.594452 21.837438 105.425845 16.209399 99.550687 16.456518 C 93.330956 16.717558 89.223915 22.49178 88.110141 28.119819 C 86.637871 35.404597 86.637871 43.211456 86.080984 50.607611 C 85.67376 55.46645 93.268306 55.417722 93.67553 50.607611 C 93.985298 46.549297 94.281144 42.553633 94.63964 38.547527 C 98.945073 41.391131 102.693618 44.927364 105.784341 49.135341 C 108.627945 53.043991 115.25838 49.246718 112.327763 45.28934 Z M 98.795409 28.366938 C 97.733844 29.334529 96.717525 30.037598 95.394918 30.246431 C 95.555023 29.383256 95.753414 28.516601 96.11191 27.712595 C 96.459965 26.699757 100.775839 21.52767 101.482389 24.980369 C 101.677299 25.833102 99.404505 27.862259 98.795409 28.366938 Z M 98.795409 28.366938 " stroke="#000000" stroke-width="1.900001" stroke-opacity="1" stroke-miterlimit="4"/><path stroke-linecap="butt" transform="matrix(1.12231, 0, 0, 1.12231, 52.15214, 195.491618)" fill="none" stroke-linejoin="miter" d="M 119.261005 37.482481 C 119.261005 36.229485 119.560332 35.352388 120.162466 34.84771 C 120.775042 34.33607 121.502475 34.08199 122.351728 34.08199 C 123.19402 34.08199 123.935375 34.33607 124.579276 34.84771 C 125.223176 35.352388 125.543386 36.229485 125.543386 37.482481 C 125.543386 38.697191 125.223176 39.574288 124.579276 40.117253 C 123.935375 40.653256 123.19402 40.921258 122.351728 40.921258 C 121.502475 40.921258 120.775042 40.653256 120.162466 40.117253 C 119.560332 39.574288 119.261005 38.697191 119.261005 37.482481 Z M 119.261005 37.482481 " stroke="#000000" stroke-width="1.900001" stroke-opacity="1" stroke-miterlimit="4"/><path stroke-linecap="butt" transform="matrix(1.12231, 0, 0, 1.12231, 52.15214, 195.491618)" fill="none" stroke-linejoin="miter" d="M 157.352074 19.091289 C 153.206746 12.252021 142.361373 11.399288 136.942166 16.915949 C 131.623896 21.478942 130.858176 32.066755 132.379174 37.99064 C 133.44422 42.048954 136.127719 46.302178 140.283488 47.614343 C 144.58544 49.034405 149.346824 47.46468 152.750795 44.680245 C 156.189572 41.787913 158.316184 37.583417 159.033176 33.180529 C 159.687518 28.826369 159.736246 22.999939 157.352074 19.091289 Z M 148.135594 38.805088 C 147.989412 38.906023 147.878034 39.003479 147.728371 39.153142 C 146.106438 40.524476 143.523874 41.081363 141.804486 39.772679 C 140.690712 38.954751 140.182552 37.583417 139.824057 36.271252 C 139.319378 34.095912 139.218442 31.819637 139.465561 29.581647 C 139.726601 27.55249 140.23128 24.980369 141.397262 23.295786 C 142.458828 21.837438 144.240866 20.922055 146.05771 20.873327 C 149.200641 20.8246 151.229798 22.951212 151.574371 25.88183 C 152.193908 30.347367 151.525644 35.564702 148.135594 38.805088 Z M 148.135594 38.805088 " stroke="#000000" stroke-width="1.900001" stroke-opacity="1" stroke-miterlimit="4"/><path stroke-linecap="butt" transform="matrix(1.12231, 0, 0, 1.12231, 52.15214, 195.491618)" fill="none" stroke-linejoin="miter" d="M 165.611404 37.482481 C 165.611404 36.229485 165.91073 35.352388 166.512864 34.84771 C 167.12544 34.33607 167.852874 34.08199 168.702126 34.08199 C 169.544418 34.08199 170.285773 34.33607 170.929674 34.84771 C 171.573575 35.352388 171.893785 36.229485 171.893785 37.482481 C 171.893785 38.697191 171.573575 39.574288 170.929674 40.117253 C 170.285773 40.653256 169.544418 40.921258 168.702126 40.921258 C 167.852874 40.921258 167.12544 40.653256 166.512864 40.117253 C 165.91073 39.574288 165.611404 38.697191 165.611404 37.482481 Z M 165.611404 37.482481 " stroke="#000000" stroke-width="1.900001" stroke-opacity="1" stroke-miterlimit="4"/><path stroke-linecap="butt" transform="matrix(1.12231, 0, 0, 1.12231, 52.15214, 195.491618)" fill="none" stroke-linejoin="miter" d="M 180.351505 18.84417 C 179.335187 27.959714 178.579909 37.137907 178.07523 46.350906 C 177.765462 51.213225 185.370449 51.213225 185.669776 46.350906 C 186.174455 37.137907 186.943655 27.959714 187.956493 18.84417 C 188.45073 13.985332 180.856184 14.034059 180.351505 18.84417 Z M 180.351505 18.84417 " stroke="#000000" stroke-width="1.900001" stroke-opacity="1" stroke-miterlimit="4"/><path stroke-linecap="butt" transform="matrix(1.12231, 0, 0, 1.12231, 52.15214, 195.491618)" fill="none" stroke-linejoin="miter" d="M 194.183185 37.482481 C 194.183185 36.229485 194.482512 35.352388 195.084646 34.84771 C 195.693741 34.33607 196.424655 34.08199 197.273908 34.08199 C 198.1162 34.08199 198.857555 34.33607 199.501456 34.84771 C 200.141876 35.352388 200.465566 36.229485 200.465566 37.482481 C 200.465566 38.697191 200.141876 39.574288 199.501456 40.117253 C 198.857555 40.653256 198.1162 40.921258 197.273908 40.921258 C 196.424655 40.921258 195.693741 40.653256 195.084646 40.117253 C 194.482512 39.574288 194.183185 38.697191 194.183185 37.482481 Z M 194.183185 37.482481 " stroke="#000000" stroke-width="1.900001" stroke-opacity="1" stroke-miterlimit="4"/></svg>