<svg xmlns="http://www.w3.org/2000/svg" xmlns:xlink="http://www.w3.org/1999/xlink" width="500" zoomAndPan="magnify" viewBox="0 0 375 374.999991" height="500" preserveAspectRatio="xMidYMid meet" version="1.0"><defs><g/><clipPath id="8a4324a0ef"><path d="M 18.882812 139.972656 L 165.613281 139.972656 L 165.613281 231.3125 L 18.882812 231.3125 Z M 18.882812 139.972656 " clip-rule="nonzero"/></clipPath><clipPath id="1a13eb842a"><path d="M 72.5625 151.125 L 145.929688 151.125 L 145.929688 164.332031 L 72.5625 164.332031 Z M 72.5625 151.125 " clip-rule="nonzero"/></clipPath><clipPath id="5f8f39adea"><path d="M 142 198 L 170 198 L 170 219 L 142 219 Z M 142 198 " clip-rule="nonzero"/></clipPath><clipPath id="c0f00b3901"><path d="M 167.585938 197.988281 L 171.800781 229.992188 L 132.519531 235.160156 L 128.308594 203.15625 Z M 167.585938 197.988281 " clip-rule="nonzero"/></clipPath><clipPath id="22ecce9b75"><path d="M 167.585938 197.988281 L 171.800781 229.992188 L 132.519531 235.160156 L 128.308594 203.15625 Z M 167.585938 197.988281 " clip-rule="nonzero"/></clipPath><clipPath id="581bf4478f"><path d="M 144 199 L 169 199 L 169 218 L 144 218 Z M 144 199 " clip-rule="nonzero"/></clipPath><clipPath id="4dd1d144cf"><path d="M 167.585938 197.988281 L 171.800781 229.992188 L 132.519531 235.160156 L 128.308594 203.15625 Z M 167.585938 197.988281 " clip-rule="nonzero"/></clipPath><clipPath id="67fcc8884c"><path d="M 167.585938 197.988281 L 171.800781 229.992188 L 132.519531 235.160156 L 128.308594 203.15625 Z M 167.585938 197.988281 " clip-rule="nonzero"/></clipPath><clipPath id="63245f678a"><path d="M 140 203 L 167 203 L 167 223 L 140 223 Z M 140 203 " clip-rule="nonzero"/></clipPath><clipPath id="951f91dfab"><path d="M 167.585938 197.988281 L 171.800781 229.992188 L 132.519531 235.160156 L 128.308594 203.15625 Z M 167.585938 197.988281 " clip-rule="nonzero"/></clipPath><clipPath id="ddd88c4219"><path d="M 167.585938 197.988281 L 171.800781 229.992188 L 132.519531 235.160156 L 128.308594 203.15625 Z M 167.585938 197.988281 " clip-rule="nonzero"/></clipPath><clipPath id="4a65069c94"><path d="M 142 204 L 166 204 L 166 222 L 142 222 Z M 142 204 " clip-rule="nonzero"/></clipPath><clipPath id="d042a3c485"><path d="M 167.585938 197.988281 L 171.800781 229.992188 L 132.519531 235.160156 L 128.308594 203.15625 Z M 167.585938 197.988281 " clip-rule="nonzero"/></clipPath><clipPath id="86fbbbbe2f"><path d="M 167.585938 197.988281 L 171.800781 229.992188 L 132.519531 235.160156 L 128.308594 203.15625 Z M 167.585938 197.988281 " clip-rule="nonzero"/></clipPath><clipPath id="b3e100deab"><path d="M 135 204 L 165 204 L 165 230 L 135 230 Z M 135 204 " clip-rule="nonzero"/></clipPath><clipPath id="4dc8755cac"><path d="M 167.585938 197.988281 L 171.800781 229.992188 L 132.519531 235.160156 L 128.308594 203.15625 Z M 167.585938 197.988281 " clip-rule="nonzero"/></clipPath><clipPath id="1b70c32135"><path d="M 167.585938 197.988281 L 171.800781 229.992188 L 132.519531 235.160156 L 128.308594 203.15625 Z M 167.585938 197.988281 " clip-rule="nonzero"/></clipPath><clipPath id="f76f6fd981"><path d="M 136 205 L 163 205 L 163 228 L 136 228 Z M 136 205 " clip-rule="nonzero"/></clipPath><clipPath id="f1f6ab2f02"><path d="M 167.585938 197.988281 L 171.800781 229.992188 L 132.519531 235.160156 L 128.308594 203.15625 Z M 167.585938 197.988281 " clip-rule="nonzero"/></clipPath><clipPath id="3786e93cc3"><path d="M 167.585938 197.988281 L 171.800781 229.992188 L 132.519531 235.160156 L 128.308594 203.15625 Z M 167.585938 197.988281 " clip-rule="nonzero"/></clipPath><clipPath id="7c54dd02bc"><path d="M 130 204 L 160 204 L 160 233 L 130 233 Z M 130 204 " clip-rule="nonzero"/></clipPath><clipPath id="bf0f859e8b"><path d="M 167.585938 197.988281 L 171.800781 229.992188 L 132.519531 235.160156 L 128.308594 203.15625 Z M 167.585938 197.988281 " clip-rule="nonzero"/></clipPath><clipPath id="98ca043e55"><path d="M 167.585938 197.988281 L 171.800781 229.992188 L 132.519531 235.160156 L 128.308594 203.15625 Z M 167.585938 197.988281 " clip-rule="nonzero"/></clipPath><clipPath id="bedbce5ee2"><path d="M 157.042969 202.695312 L 160.808594 231.320312 L 132.546875 235.039062 L 128.78125 206.417969 Z M 157.042969 202.695312 " clip-rule="nonzero"/></clipPath><clipPath id="41236d335c"><path d="M 157.042969 202.695312 L 160.808594 231.304688 L 132.554688 235.023438 L 128.789062 206.414062 Z M 157.042969 202.695312 " clip-rule="nonzero"/></clipPath><clipPath id="28cca021d1"><path d="M 132 206 L 158 206 L 158 232 L 132 232 Z M 132 206 " clip-rule="nonzero"/></clipPath><clipPath id="8b5d699c28"><path d="M 167.585938 197.988281 L 171.800781 229.992188 L 132.519531 235.160156 L 128.308594 203.15625 Z M 167.585938 197.988281 " clip-rule="nonzero"/></clipPath><clipPath id="a9be7f9b03"><path d="M 167.585938 197.988281 L 171.800781 229.992188 L 132.519531 235.160156 L 128.308594 203.15625 Z M 167.585938 197.988281 " clip-rule="nonzero"/></clipPath></defs><rect x="-37.5" width="450" fill="#ffffff" y="-37.499999" height="449.999989" fill-opacity="1"/><rect x="-37.5" width="450" fill="#ffffff" y="-37.499999" height="449.999989" fill-opacity="1"/><g clip-path="url(#8a4324a0ef)"><path fill="#f2ebbf" d="M 82.300781 139.988281 C 81.296875 139.96875 80.285156 140.019531 79.1875 140.128906 C 74.039062 140.644531 71.242188 141.53125 66.613281 144.109375 C 62.632812 146.324219 59.828125 148.515625 55.914062 152.464844 C 51.648438 156.777344 50.070312 159.066406 46.765625 165.738281 C 43.984375 171.351562 43.898438 171.464844 36.417969 179.316406 C 31.703125 184.261719 25.546875 191.675781 23.496094 194.875 C 21.804688 197.511719 20.269531 200.664062 19.53125 203.011719 C 18.964844 204.8125 18.894531 205.566406 18.894531 209.800781 C 18.894531 213.953125 18.976562 214.839844 19.515625 216.710938 C 20.59375 220.429688 21.90625 222.761719 24.203125 225.046875 C 27.179688 228 30.292969 229.660156 34.683594 230.628906 C 36.644531 231.0625 42.464844 231.136719 44.800781 230.757812 C 46.742188 230.441406 49.257812 229.738281 56.460938 227.492188 C 62.65625 225.558594 64.191406 225.195312 69.214844 224.453125 C 77.617188 223.207031 90.90625 223.941406 106.898438 226.523438 C 120.757812 228.765625 125.332031 228.992188 132.277344 227.792969 C 145.082031 225.585938 156.566406 217.25 162.140625 206.128906 C 164.683594 201.050781 165.558594 197.183594 165.578125 190.882812 C 165.597656 186.289062 165.226562 184.347656 163.714844 181.085938 C 161.90625 177.175781 159.828125 175.136719 155.542969 173.0625 C 152.097656 171.394531 149.84375 170.699219 142.820312 169.125 C 137.035156 167.828125 130.992188 165.933594 127.371094 164.277344 C 124.746094 163.078125 117.347656 158.101562 112.789062 154.464844 C 108.886719 151.355469 106.855469 149.933594 101.898438 146.847656 C 97.714844 144.242188 96.515625 143.644531 93.195312 142.488281 C 88.273438 140.773438 85.320312 140.054688 82.300781 139.988281 Z M 82.300781 139.988281 " fill-opacity="1" fill-rule="nonzero"/></g><g fill="#8cbeb2" fill-opacity="1"><g transform="translate(38.060518, 208.869049)"><g><path d="M 19.257812 -2.03125 C 18.746094 -1.511719 18.015625 -1.398438 17.394531 -1.523438 C 16.609375 -1.679688 16.460938 -2.335938 16.632812 -3.183594 C 16.789062 -3.96875 17.285156 -4.941406 17.707031 -5.761719 C 18.5625 -7.351562 19.210938 -7.910156 19.625 -7.828125 C 19.917969 -7.789062 20.078125 -7.519531 20.347656 -7.46875 C 21.214844 -7.292969 22.117188 -8.253906 22.402344 -9.570312 C 22.632812 -10.707031 22.128906 -11.734375 20.679688 -12.023438 C 18.40625 -12.476562 15.398438 -11.511719 11.121094 -6.476562 C 10.871094 -6.183594 10.621094 -5.910156 10.375 -5.640625 C 9.738281 -6.433594 9.519531 -7.378906 9.730469 -8.433594 C 10.03125 -9.941406 11.039062 -10.148438 11.828125 -9.90625 C 12.132812 -9.800781 12.34375 -9.996094 12.382812 -10.308594 C 12.578125 -11.28125 12.070312 -12.394531 10.5 -12.707031 C 8.742188 -13.058594 6.933594 -12.175781 6.496094 -10.003906 C 6.082031 -7.9375 7.050781 -5.898438 8.964844 -4.394531 C 7.816406 -3.507812 6.585938 -3.042969 5.304688 -3.300781 C 4.167969 -3.527344 3.402344 -4.328125 3.585938 -5.234375 C 3.613281 -5.382812 3.492188 -5.511719 3.324219 -5.546875 C 1.671875 -5.878906 0.242188 -4.421875 -0.0976562 -2.726562 C -0.441406 -1.011719 0.34375 0.972656 3.175781 1.539062 C 5.40625 1.984375 7.941406 0.171875 9.859375 -2 C 10.195312 -2.386719 10.539062 -2.8125 10.871094 -3.195312 C 11.621094 -2.851562 12.441406 -2.558594 13.324219 -2.339844 C 13.09375 -1.71875 12.914062 -1.152344 12.808594 -0.636719 C 12.472656 1.058594 12.730469 2.550781 14.199219 2.84375 C 16.988281 3.402344 19.195312 -0.324219 20.085938 -1.328125 C 20.390625 -1.675781 19.691406 -2.460938 19.257812 -2.03125 Z M 13.914062 -3.683594 C 13.136719 -3.882812 12.457031 -4.125 11.894531 -4.429688 C 12.90625 -5.625 13.910156 -6.777344 14.953125 -7.6875 C 15.695312 -8.269531 15.972656 -8.367188 16.238281 -8.3125 C 16.382812 -8.28125 16.472656 -8.179688 16.429688 -7.972656 C 16.261719 -7.125 15.320312 -6.410156 13.914062 -3.683594 Z M 13.914062 -3.683594 "/></g></g></g><g fill="#8cbeb2" fill-opacity="1"><g transform="translate(55.980592, 212.449848)"><g><path d="M 3.679688 0.460938 C 6.128906 0.765625 8.589844 -0.753906 10.855469 -3.933594 C 11.136719 -4.300781 10.378906 -5.035156 9.980469 -4.574219 C 7.660156 -1.976562 3.558594 -2.65625 3.910156 -5.460938 C 4.039062 -6.503906 4.707031 -7.421875 5.648438 -7.304688 C 6.277344 -7.222656 6.460938 -6.839844 6.414062 -6.464844 C 6.320312 -5.710938 5.828125 -5.6875 5.785156 -5.332031 C 5.75 -5.058594 6.066406 -4.703125 6.800781 -4.609375 C 7.699219 -4.496094 9.023438 -5.054688 9.246094 -6.855469 C 9.414062 -8.214844 8.6875 -9.535156 6.679688 -9.785156 C 3.375 -10.199219 0.9375 -7 0.570312 -4.070312 C 0.300781 -1.894531 1.171875 0.144531 3.679688 0.460938 Z M 3.679688 0.460938 "/></g></g></g><g fill="#8cbeb2" fill-opacity="1"><g transform="translate(67.073968, 213.80018)"><g><path d="M 2.230469 0.140625 C 3.722656 0.234375 5.070312 -1.050781 6.019531 -2.703125 L 6.105469 -2.695312 C 5.742188 -0.96875 6.269531 0.398438 7.71875 0.488281 C 10.054688 0.636719 11.417969 -2.570312 12.574219 -4.460938 C 12.808594 -4.847656 12.007812 -5.535156 11.660156 -5.046875 C 11.199219 -4.402344 10.648438 -4.035156 9.929688 -4.082031 C 9.003906 -4.140625 8.828125 -4.996094 9.640625 -6.484375 C 10.179688 -7.675781 10.769531 -8.292969 10.820312 -9.09375 C 10.847656 -9.554688 10.679688 -9.882812 10.132812 -9.917969 C 9.144531 -9.980469 8.945312 -9.191406 8.25 -9.234375 C 7.703125 -9.269531 7.839844 -10.0625 6.15625 -10.171875 C 2.539062 -10.398438 0.449219 -6.097656 0.265625 -3.171875 C 0.144531 -1.300781 0.800781 0.0507812 2.230469 0.140625 Z M 4.609375 -4.078125 C 3.957031 -4.121094 3.582031 -4.566406 3.628906 -5.28125 C 3.6875 -6.207031 4.445312 -7.195312 5.542969 -7.125 C 6.214844 -7.082031 6.609375 -6.636719 6.5625 -5.941406 C 6.507812 -5.058594 5.703125 -4.011719 4.609375 -4.078125 Z M 4.609375 -4.078125 "/></g></g></g><g fill="#8cbeb2" fill-opacity="1"><g transform="translate(80.355781, 214.562452)"><g><path d="M 2.464844 -0.0078125 C 3.75 -0.015625 4.96875 -1.390625 5.828125 -3.101562 L 5.910156 -3.101562 C 5.6875 -1.351562 6.386719 -0.0234375 7.734375 -0.03125 C 10.074219 -0.0390625 11.222656 -3.332031 12.246094 -5.296875 C 12.457031 -5.695312 11.609375 -6.324219 11.296875 -5.820312 C 10.878906 -5.144531 10.351562 -4.742188 9.636719 -4.738281 C 8.707031 -4.734375 8.472656 -5.574219 9.183594 -7.117188 L 11.542969 -13.21875 C 12.085938 -14.421875 11.789062 -15.199219 11.050781 -15.199219 C 10.417969 -15.195312 9.640625 -14.832031 8.84375 -12.890625 C 7.949219 -10.71875 7.953125 -9.558594 7.613281 -9.554688 C 7.066406 -9.554688 7.148438 -10.566406 5.460938 -10.558594 C 1.835938 -10.546875 0.0390625 -6.113281 0.0507812 -2.992188 C 0.0585938 -1.308594 0.800781 -0.00390625 2.464844 -0.0078125 Z M 4.367188 -4.378906 C 3.566406 -4.375 3.269531 -4.902344 3.265625 -5.515625 C 3.261719 -6.441406 3.953125 -7.476562 4.988281 -7.480469 C 5.808594 -7.484375 6.148438 -6.980469 6.152344 -6.367188 C 6.15625 -5.484375 5.421875 -4.382812 4.367188 -4.378906 Z M 4.367188 -4.378906 "/></g></g></g><g fill="#8cbeb2" fill-opacity="1"><g transform="translate(93.933469, 214.409189)"><g><path d="M 3.953125 -0.257812 C 6.394531 -0.421875 8.503906 -2.375 10.128906 -5.925781 C 10.335938 -6.339844 9.453125 -6.914062 9.148438 -6.390625 C 8.296875 -4.875 6.644531 -4.027344 5.210938 -3.933594 C 4.015625 -3.855469 3 -4.167969 2.953125 -4.90625 C 2.933594 -5.179688 3.140625 -5.253906 3.292969 -5.179688 C 3.792969 -4.9375 4.367188 -4.914062 4.957031 -4.953125 C 7.015625 -5.085938 8.230469 -6.898438 8.128906 -8.433594 C 8.035156 -9.820312 7.089844 -11.027344 5.136719 -10.898438 C -0.902344 -10.503906 -1.957031 0.128906 3.953125 -0.257812 Z M 4.304688 -6.492188 C 3.632812 -6.449219 3.289062 -6.828125 3.261719 -7.289062 C 3.222656 -7.859375 3.6875 -8.5 4.507812 -8.554688 C 5.160156 -8.597656 5.5 -8.21875 5.53125 -7.757812 C 5.566406 -7.230469 5.125 -6.546875 4.304688 -6.492188 Z M 4.304688 -6.492188 "/></g></g></g><g fill="#8cbeb2" fill-opacity="1"><g transform="translate(105.133652, 213.743553)"><g><path d="M 1.316406 -0.183594 C 2.796875 -0.386719 2.910156 -1.574219 2.761719 -2.640625 L 2.632812 -3.578125 C 2.375 -5.4375 3.175781 -7.3125 4.386719 -7.480469 C 4.867188 -7.550781 5.214844 -7.34375 5.292969 -6.777344 C 5.441406 -5.714844 4.59375 -4.148438 4.816406 -2.5625 C 5.007812 -1.183594 5.777344 -0.84375 6.738281 -0.976562 C 8.304688 -1.195312 8.4375 -2.382812 8.316406 -3.261719 C 8.230469 -3.867188 8.054688 -4.054688 7.972656 -4.660156 C 7.753906 -6.226562 8.558594 -8.105469 9.769531 -8.273438 C 10.25 -8.339844 10.597656 -8.132812 10.664062 -7.652344 C 10.78125 -6.796875 10.097656 -5.273438 10.320312 -3.6875 C 10.484375 -2.496094 11.085938 -1.539062 12.421875 -1.722656 C 15.242188 -2.117188 16.097656 -6.363281 16.605469 -7.605469 C 16.78125 -8.03125 15.859375 -8.542969 15.59375 -7.996094 C 15.265625 -7.3125 14.929688 -6.816406 14.300781 -6.730469 C 13.59375 -6.632812 13.230469 -6.945312 13.128906 -7.675781 C 12.984375 -8.71875 13.558594 -9.480469 13.40625 -10.585938 C 13.261719 -11.628906 12.535156 -12.421875 10.90625 -12.195312 C 9.902344 -12.058594 9.070312 -11.453125 8.398438 -10.464844 C 8.136719 -10.066406 7.976562 -10.128906 7.878906 -10.394531 C 7.566406 -11.117188 6.902344 -11.597656 5.878906 -11.457031 C 4.960938 -11.328125 4.1875 -10.773438 3.519531 -9.914062 C 2.941406 -9.15625 2.433594 -9.445312 2.335938 -10.15625 C 2.277344 -10.574219 2.058594 -10.925781 1.578125 -10.859375 C 0.742188 -10.742188 0.1875 -8.472656 -0.3125 -5.789062 C -0.660156 -3.992188 -0.554688 -2.476562 -0.421875 -1.496094 C -0.296875 -0.617188 0.335938 -0.046875 1.316406 -0.183594 Z M 1.316406 -0.183594 "/></g></g></g><g fill="#8cbeb2" fill-opacity="1"><g transform="translate(122.738184, 211.123284)"><g><path d="M 9.492188 -7.960938 C 9.082031 -6.964844 8.5 -5.871094 7.882812 -5.738281 C 7.40625 -5.632812 6.933594 -5.941406 7.011719 -7.164062 C 7.261719 -9.398438 7.675781 -10.585938 7.488281 -11.453125 C 7.34375 -12.113281 6.960938 -12.289062 6.363281 -12.160156 C 5.3125 -11.929688 4.785156 -10.285156 4.523438 -7.402344 C 4.402344 -6.363281 4.007812 -5.695312 3.101562 -5.5 C 2.421875 -5.355469 2.160156 -5.664062 2.035156 -6.242188 C 1.773438 -7.457031 2.402344 -9.039062 2.113281 -10.375 C 1.996094 -10.914062 1.75 -11.160156 1.296875 -11.0625 C 0.140625 -10.8125 -0.449219 -8.960938 -0.746094 -5.746094 C -0.867188 -4.320312 -0.648438 -3.09375 -0.515625 -2.476562 C -0.175781 -0.910156 0.902344 -0.410156 2.015625 -0.652344 C 3.355469 -0.941406 4.183594 -2.003906 4.441406 -3.503906 C 4.535156 -4.0625 4.96875 -4.050781 5.023438 -3.589844 C 5.230469 -1.539062 4.070312 0.476562 2.261719 0.890625 C 0.988281 1.1875 0.0703125 0.632812 -0.253906 -0.375 C -0.382812 -0.78125 -1.652344 0.441406 -1.195312 2.542969 C -0.769531 4.523438 0.730469 5.46875 2.914062 5 C 5.199219 4.503906 6.277344 2.609375 6.679688 -1.917969 C 6.90625 -1.664062 7.191406 -1.554688 7.5 -1.621094 C 9.496094 -2.054688 9.878906 -4.875 10.53125 -7.644531 C 10.65625 -8.167969 9.664062 -8.363281 9.492188 -7.960938 Z M 9.492188 -7.960938 "/></g></g></g><g fill="#f06060" fill-opacity="1"><g transform="translate(19.840168, 200.346483)"><g><path d="M 25.179688 -39.941406 C 10.953125 -39.941406 2.09375 -32.480469 2.09375 -23.675781 C 2.09375 -19.757812 4.402344 -16.210938 8.804688 -16.210938 C 14.011719 -16.210938 16.804688 -20.828125 15.835938 -23.191406 C 14.65625 -23.191406 13.796875 -24.265625 13.796875 -25.714844 C 13.796875 -30.652344 19.164062 -32.746094 25.394531 -32.746094 C 31.351562 -32.746094 34.734375 -30.867188 34.734375 -26.253906 C 34.734375 -21.636719 31.511719 -19.113281 28.507812 -19.113281 C 26.144531 -19.113281 25.609375 -20.078125 26.359375 -22.226562 L 26.199219 -21.851562 C 26.519531 -23.191406 27.164062 -24.855469 27.96875 -27.21875 C 28.507812 -28.988281 27.863281 -30.117188 25.609375 -30.117188 C 23.996094 -30.117188 22.816406 -29.417969 22.117188 -27.539062 C 21.207031 -25.230469 20.1875 -22.492188 19.273438 -20.078125 C 16.75 -13.636719 12.722656 -10.898438 9.769531 -10.898438 C 7.246094 -10.898438 5.261719 -12.507812 5.261719 -14.871094 C 5.261719 -15.246094 4.886719 -15.515625 4.457031 -15.515625 C 0.160156 -15.515625 -2.683594 -11.113281 -2.683594 -6.601562 C -2.683594 -2.199219 -0.160156 2.253906 6.121094 2.253906 C 13.097656 2.253906 18.789062 -4.027344 21.902344 -12.238281 L 22.066406 -12.617188 L 21.902344 -12.238281 L 22.171875 -12.777344 C 22.492188 -13.261719 22.921875 -13.527344 23.460938 -13.527344 C 24.800781 -13.527344 25.394531 -11.972656 28.9375 -11.972656 C 38.546875 -11.972656 43.324219 -19.59375 43.324219 -26.253906 C 43.324219 -35.003906 37.527344 -39.941406 25.179688 -39.941406 Z M 25.179688 -39.941406 "/></g></g></g><g fill="#f06060" fill-opacity="1"><g transform="translate(60.639002, 200.346483)"><g><path d="M 5.691406 0 C 9.503906 0 12.722656 -3.488281 14.871094 -7.839844 L 15.085938 -7.839844 C 14.441406 -3.382812 16 0 19.703125 0 C 25.660156 0 28.613281 -8.375 31.246094 -13.367188 C 31.78125 -14.386719 29.632812 -16 28.828125 -14.710938 C 27.753906 -12.992188 26.414062 -11.972656 24.585938 -11.972656 C 22.226562 -11.972656 21.636719 -14.121094 23.460938 -18.039062 C 24.640625 -21.152344 26.039062 -22.816406 26.039062 -24.855469 C 26.039062 -26.039062 25.554688 -26.84375 24.160156 -26.84375 C 21.636719 -26.84375 21.257812 -24.800781 19.488281 -24.800781 C 18.09375 -24.800781 18.304688 -26.84375 14.011719 -26.84375 C 4.777344 -26.84375 0.160156 -15.570312 0.160156 -8.105469 C 0.160156 -3.328125 2.039062 0 5.691406 0 Z M 11.058594 -11.113281 C 9.394531 -11.113281 8.375 -12.1875 8.375 -14.011719 C 8.375 -16.375 10.144531 -19.003906 12.9375 -19.003906 C 14.65625 -19.003906 15.730469 -17.929688 15.730469 -16.160156 C 15.730469 -13.90625 13.851562 -11.113281 11.058594 -11.113281 Z M 11.058594 -11.113281 "/></g></g></g><g fill="#f06060" fill-opacity="1"><g transform="translate(88.231899, 200.346483)"><g><path d="M 9.449219 0 C 15.730469 0 21.472656 -4.617188 26.199219 -13.367188 C 26.789062 -14.386719 24.640625 -16 23.78125 -14.710938 C 18.734375 -7.410156 8.160156 -7.839844 8.160156 -15.03125 C 8.160156 -17.714844 9.554688 -20.238281 11.972656 -20.238281 C 13.582031 -20.238281 14.171875 -19.328125 14.171875 -18.359375 C 14.171875 -16.425781 12.9375 -16.210938 12.9375 -15.300781 C 12.9375 -14.601562 13.851562 -13.796875 15.730469 -13.796875 C 18.039062 -13.796875 21.207031 -15.621094 21.207031 -20.238281 C 21.207031 -23.730469 18.949219 -26.84375 13.796875 -26.84375 C 5.316406 -26.84375 0.160156 -17.984375 0.160156 -10.46875 C 0.160156 -4.886719 3.007812 0 9.449219 0 Z M 9.449219 0 "/></g></g></g><g fill="#f06060" fill-opacity="1"><g transform="translate(110.778621, 200.346483)"><g><path d="M 5.421875 0 C 13.152344 0 17.285156 -10.308594 18.898438 -13.367188 C 19.433594 -14.386719 17.339844 -15.945312 16.480469 -14.710938 C 15.40625 -13.046875 13.691406 -12.027344 11.542969 -12.027344 C 8.375 -12.027344 6.710938 -14.386719 7.839844 -18.144531 C 8.859375 -21.742188 9.179688 -21.851562 14.171875 -21.851562 C 16.320312 -21.851562 16.964844 -26.789062 15.515625 -26.789062 L 12.722656 -26.789062 C 11.703125 -26.789062 11.863281 -27.703125 12.667969 -29.417969 C 14.332031 -32.800781 13.636719 -34.464844 11.648438 -34.464844 C 10.308594 -34.464844 9.125 -33.984375 7.839844 -30.867188 C 7.085938 -28.9375 5.367188 -26.789062 2.253906 -26.789062 C 1.019531 -26.789062 1.074219 -22.65625 4.1875 -22.65625 C 2.84375 -18.949219 1.664062 -15.785156 0.75 -13.097656 C -1.664062 -6.226562 -0.589844 0 5.421875 0 Z M 5.421875 0 "/></g></g></g><g fill="#f06060" fill-opacity="1"><g transform="translate(126.024501, 200.346483)"><g><path d="M 10.09375 0 C 16.320312 0 22.011719 -4.617188 26.734375 -13.367188 C 27.324219 -14.386719 25.179688 -16 24.320312 -14.710938 C 21.902344 -11.003906 17.554688 -9.125 13.90625 -9.125 C 10.84375 -9.125 8.320312 -10.09375 8.320312 -11.972656 C 8.320312 -12.667969 8.859375 -12.832031 9.234375 -12.617188 C 10.46875 -11.917969 11.917969 -11.757812 13.421875 -11.757812 C 18.683594 -11.757812 22.066406 -16.160156 22.066406 -20.078125 C 22.066406 -23.621094 19.863281 -26.84375 14.871094 -26.84375 C -0.535156 -26.84375 -4.992188 0 10.09375 0 Z M 12.027344 -15.785156 C 10.308594 -15.785156 9.503906 -16.804688 9.503906 -17.984375 C 9.503906 -19.433594 10.789062 -20.992188 12.882812 -20.992188 C 14.546875 -20.992188 15.355469 -19.972656 15.355469 -18.789062 C 15.355469 -17.449219 14.121094 -15.785156 12.027344 -15.785156 Z M 12.027344 -15.785156 "/></g></g></g><g clip-path="url(#1a13eb842a)"><path fill="#f3b562" d="M 79.59375 151.683594 L 81.253906 155.058594 C 81.308594 155.191406 81.441406 155.285156 81.59375 155.300781 L 85.324219 155.847656 C 85.683594 155.90625 85.832031 156.359375 85.570312 156.601562 L 82.875 159.222656 C 82.761719 159.316406 82.722656 159.46875 82.742188 159.621094 L 83.382812 163.332031 C 83.4375 163.691406 83.0625 163.972656 82.742188 163.804688 L 79.40625 162.050781 C 79.273438 161.976562 79.121094 161.976562 78.992188 162.050781 L 75.652344 163.804688 C 75.332031 163.972656 74.957031 163.691406 75.011719 163.332031 L 75.652344 159.621094 C 75.671875 159.46875 75.636719 159.335938 75.523438 159.222656 L 72.828125 156.601562 C 72.5625 156.339844 72.714844 155.90625 73.070312 155.847656 L 76.804688 155.300781 C 76.953125 155.285156 77.066406 155.191406 77.144531 155.058594 L 78.800781 151.683594 C 78.972656 151.363281 79.441406 151.363281 79.59375 151.683594 Z M 93.769531 151.683594 L 92.109375 155.058594 C 92.054688 155.191406 91.921875 155.285156 91.769531 155.300781 L 88.039062 155.847656 C 87.679688 155.90625 87.53125 156.359375 87.792969 156.601562 L 90.488281 159.222656 C 90.601562 159.316406 90.640625 159.46875 90.621094 159.621094 L 89.980469 163.332031 C 89.925781 163.691406 90.300781 163.972656 90.621094 163.804688 L 93.957031 162.050781 C 94.089844 161.976562 94.242188 161.976562 94.371094 162.050781 L 97.710938 163.804688 C 98.03125 163.972656 98.425781 163.691406 98.351562 163.332031 L 97.710938 159.621094 C 97.691406 159.46875 97.726562 159.335938 97.839844 159.222656 L 100.535156 156.601562 C 100.800781 156.339844 100.648438 155.90625 100.292969 155.847656 L 96.578125 155.300781 C 96.425781 155.285156 96.3125 155.191406 96.238281 155.058594 L 94.578125 151.683594 C 94.410156 151.363281 93.9375 151.363281 93.769531 151.683594 Z M 108.753906 151.683594 L 107.097656 155.058594 C 107.039062 155.191406 106.90625 155.285156 106.757812 155.300781 L 103.023438 155.847656 C 102.667969 155.90625 102.515625 156.359375 102.78125 156.601562 L 105.476562 159.222656 C 105.589844 159.316406 105.625 159.46875 105.605469 159.621094 L 104.964844 163.332031 C 104.910156 163.691406 105.285156 163.972656 105.605469 163.804688 L 108.945312 162.050781 C 109.074219 161.976562 109.226562 161.976562 109.359375 162.050781 L 112.695312 163.804688 C 113.015625 163.972656 113.410156 163.691406 113.335938 163.332031 L 112.695312 159.621094 C 112.675781 159.46875 112.714844 159.335938 112.828125 159.222656 L 115.523438 156.601562 C 115.785156 156.339844 115.636719 155.90625 115.277344 155.847656 L 111.546875 155.300781 C 111.394531 155.285156 111.28125 155.191406 111.207031 155.058594 L 109.546875 151.683594 C 109.378906 151.363281 108.90625 151.363281 108.753906 151.683594 Z M 123.722656 151.683594 L 122.0625 155.058594 C 122.007812 155.191406 121.875 155.285156 121.722656 155.300781 L 117.992188 155.847656 C 117.632812 155.90625 117.484375 156.359375 117.746094 156.601562 L 120.441406 159.222656 C 120.554688 159.316406 120.59375 159.46875 120.574219 159.621094 L 119.933594 163.332031 C 119.878906 163.691406 120.253906 163.972656 120.574219 163.804688 L 123.910156 162.050781 C 124.042969 161.976562 124.195312 161.976562 124.324219 162.050781 L 127.664062 163.804688 C 127.984375 163.972656 128.378906 163.691406 128.304688 163.332031 L 127.664062 159.621094 C 127.644531 159.46875 127.679688 159.335938 127.792969 159.222656 L 130.488281 156.601562 C 130.753906 156.339844 130.601562 155.90625 130.246094 155.847656 L 126.53125 155.300781 C 126.378906 155.285156 126.265625 155.191406 126.191406 155.058594 L 124.53125 151.683594 C 124.363281 151.363281 123.890625 151.363281 123.722656 151.683594 Z M 135.691406 164.050781 L 139.027344 162.296875 C 139.085938 162.277344 139.140625 162.277344 139.179688 162.296875 L 142.515625 164.050781 C 142.761719 164.179688 143.0625 164.164062 143.289062 163.992188 C 143.515625 163.824219 143.628906 163.558594 143.570312 163.277344 L 142.929688 159.5625 C 142.929688 159.507812 142.929688 159.449219 142.96875 159.410156 L 145.664062 156.8125 C 145.871094 156.621094 145.929688 156.320312 145.851562 156.054688 C 145.757812 155.792969 145.53125 155.605469 145.269531 155.566406 L 141.535156 155.019531 C 141.480469 155.019531 141.441406 154.980469 141.402344 154.925781 L 139.746094 151.550781 C 139.613281 151.304688 139.367188 151.136719 139.085938 151.136719 C 138.800781 151.136719 138.558594 151.289062 138.425781 151.550781 L 136.785156 154.945312 C 136.765625 155 136.710938 155.019531 136.652344 155.039062 L 132.921875 155.585938 C 132.636719 155.621094 132.414062 155.8125 132.335938 156.074219 C 132.261719 156.339844 132.316406 156.621094 132.527344 156.828125 L 135.222656 159.449219 C 135.257812 159.488281 135.277344 159.542969 135.257812 159.601562 L 134.617188 163.3125 C 134.5625 163.597656 134.675781 163.859375 134.902344 164.03125 C 135.03125 164.125 135.183594 164.164062 135.335938 164.164062 C 135.464844 164.144531 135.578125 164.105469 135.691406 164.050781 Z M 138.765625 161.804688 L 135.429688 163.558594 C 135.351562 163.597656 135.277344 163.558594 135.257812 163.539062 C 135.238281 163.519531 135.183594 163.464844 135.203125 163.390625 L 135.84375 159.675781 C 135.878906 159.429688 135.804688 159.203125 135.636719 159.035156 L 132.941406 156.414062 C 132.882812 156.359375 132.882812 156.28125 132.902344 156.246094 C 132.902344 156.207031 132.941406 156.152344 133.035156 156.132812 L 136.765625 155.585938 C 137.011719 155.546875 137.199219 155.398438 137.3125 155.191406 L 138.972656 151.816406 C 139.011719 151.738281 139.085938 151.722656 139.125 151.722656 C 139.160156 151.722656 139.234375 151.722656 139.273438 151.816406 L 140.933594 155.191406 C 141.046875 155.398438 141.253906 155.546875 141.480469 155.585938 L 145.210938 156.132812 C 145.304688 156.152344 145.324219 156.207031 145.34375 156.246094 C 145.34375 156.28125 145.363281 156.339844 145.304688 156.414062 L 142.609375 159.035156 C 142.441406 159.203125 142.367188 159.449219 142.402344 159.675781 L 143.042969 163.390625 C 143.0625 163.484375 143.007812 163.519531 142.988281 163.539062 C 142.96875 163.558594 142.894531 163.597656 142.816406 163.558594 L 139.480469 161.804688 C 139.367188 161.75 139.253906 161.730469 139.140625 161.730469 C 139.027344 161.730469 138.859375 161.75 138.765625 161.804688 Z M 138.765625 161.804688 " fill-opacity="1" fill-rule="nonzero"/></g><g clip-path="url(#5f8f39adea)"><g clip-path="url(#c0f00b3901)"><g clip-path="url(#22ecce9b75)"><path fill="#f2f2f0" d="M 144.777344 216.925781 L 142.953125 203.082031 C 142.820312 202.078125 143.527344 201.152344 144.535156 201.019531 L 165.757812 198.226562 C 166.765625 198.09375 167.6875 198.804688 167.820312 199.808594 L 169.640625 213.652344 C 169.773438 214.660156 169.066406 215.582031 168.0625 215.714844 L 146.835938 218.507812 C 145.832031 218.640625 144.90625 217.933594 144.777344 216.925781 " fill-opacity="1" fill-rule="nonzero"/></g></g></g><g clip-path="url(#581bf4478f)"><g clip-path="url(#4dd1d144cf)"><g clip-path="url(#67fcc8884c)"><path fill="#f3b562" d="M 146.023438 215.777344 L 144.457031 203.867188 C 144.339844 202.988281 144.960938 202.179688 145.84375 202.0625 L 164.765625 199.570312 C 165.644531 199.457031 166.453125 200.078125 166.570312 200.957031 L 168.136719 212.867188 C 168.253906 213.75 167.632812 214.558594 166.753906 214.671875 L 147.832031 217.164062 C 146.949219 217.28125 146.140625 216.660156 146.023438 215.777344 " fill-opacity="1" fill-rule="nonzero"/></g></g></g><g clip-path="url(#63245f678a)"><g clip-path="url(#951f91dfab)"><g clip-path="url(#ddd88c4219)"><path fill="#f2f2f0" d="M 140.660156 218.667969 L 141.839844 204.75 C 141.925781 203.742188 142.816406 202.992188 143.824219 203.078125 L 165.15625 204.886719 C 166.167969 204.972656 166.917969 205.859375 166.832031 206.871094 L 165.652344 220.785156 C 165.566406 221.796875 164.679688 222.546875 163.667969 222.460938 L 142.335938 220.652344 C 141.324219 220.566406 140.574219 219.675781 140.660156 218.667969 " fill-opacity="1" fill-rule="nonzero"/></g></g></g><g clip-path="url(#4a65069c94)"><g clip-path="url(#d042a3c485)"><g clip-path="url(#86fbbbbe2f)"><path fill="#f3b562" d="M 142.128906 217.8125 L 143.140625 205.839844 C 143.21875 204.957031 143.996094 204.296875 144.882812 204.375 L 163.898438 205.984375 C 164.785156 206.0625 165.441406 206.839844 165.367188 207.726562 L 164.351562 219.695312 C 164.277344 220.582031 163.496094 221.238281 162.613281 221.164062 L 143.59375 219.550781 C 142.710938 219.476562 142.050781 218.695312 142.128906 217.8125 " fill-opacity="1" fill-rule="nonzero"/></g></g></g><g clip-path="url(#b3e100deab)"><g clip-path="url(#4dc8755cac)"><g clip-path="url(#1b70c32135)"><path fill="#f2f2f0" d="M 135.445312 218.203125 L 141.039062 205.40625 C 141.445312 204.476562 142.527344 204.050781 143.457031 204.457031 L 163.074219 213.03125 C 164.003906 213.4375 164.425781 214.519531 164.019531 215.449219 L 158.429688 228.246094 C 158.023438 229.171875 156.941406 229.597656 156.011719 229.191406 L 136.394531 220.621094 C 135.464844 220.214844 135.039062 219.132812 135.445312 218.203125 " fill-opacity="1" fill-rule="nonzero"/></g></g></g><g clip-path="url(#f76f6fd981)"><g clip-path="url(#f1f6ab2f02)"><g clip-path="url(#3786e93cc3)"><path fill="#f3b562" d="M 137.109375 217.863281 L 141.921875 206.855469 C 142.277344 206.042969 143.226562 205.667969 144.039062 206.027344 L 161.527344 213.667969 C 162.34375 214.023438 162.714844 214.972656 162.359375 215.785156 L 157.546875 226.792969 C 157.191406 227.609375 156.242188 227.980469 155.429688 227.625 L 137.941406 219.984375 C 137.125 219.625 136.753906 218.679688 137.109375 217.863281 " fill-opacity="1" fill-rule="nonzero"/></g></g></g><g clip-path="url(#7c54dd02bc)"><g clip-path="url(#bf0f859e8b)"><g clip-path="url(#98ca043e55)"><g clip-path="url(#bedbce5ee2)"><g clip-path="url(#41236d335c)"><path fill="#f2f2f0" d="M 130.675781 216.285156 L 139.550781 205.503906 C 140.195312 204.71875 141.351562 204.605469 142.136719 205.25 L 158.664062 218.855469 C 159.449219 219.5 159.5625 220.65625 158.917969 221.441406 L 150.042969 232.222656 C 149.398438 233.007812 148.242188 233.117188 147.457031 232.472656 L 130.925781 218.871094 C 130.144531 218.226562 130.03125 217.070312 130.675781 216.285156 " fill-opacity="1" fill-rule="nonzero"/></g></g></g></g></g><g clip-path="url(#28cca021d1)"><g clip-path="url(#8b5d699c28)"><g clip-path="url(#a9be7f9b03)"><path fill="#f3b562" d="M 132.367188 216.414062 L 140 207.136719 C 140.566406 206.453125 141.582031 206.355469 142.265625 206.917969 L 157.003906 219.046875 C 157.691406 219.609375 157.789062 220.625 157.222656 221.3125 L 149.589844 230.585938 C 149.027344 231.273438 148.011719 231.371094 147.324219 230.804688 L 132.589844 218.679688 C 131.902344 218.113281 131.804688 217.101562 132.367188 216.414062 " fill-opacity="1" fill-rule="nonzero"/></g></g></g></svg>